%TF.GenerationSoftware,KiCad,Pcbnew,9.0.0*%
%TF.CreationDate,2025-04-09T20:53:35+02:00*%
%TF.ProjectId,schema,73636865-6d61-42e6-9b69-6361645f7063,rev?*%
%TF.SameCoordinates,Original*%
%TF.FileFunction,Legend,Top*%
%TF.FilePolarity,Positive*%
%FSLAX46Y46*%
G04 Gerber Fmt 4.6, Leading zero omitted, Abs format (unit mm)*
G04 Created by KiCad (PCBNEW 9.0.0) date 2025-04-09 20:53:35*
%MOMM*%
%LPD*%
G01*
G04 APERTURE LIST*
G04 Aperture macros list*
%AMRoundRect*
0 Rectangle with rounded corners*
0 $1 Rounding radius*
0 $2 $3 $4 $5 $6 $7 $8 $9 X,Y pos of 4 corners*
0 Add a 4 corners polygon primitive as box body*
4,1,4,$2,$3,$4,$5,$6,$7,$8,$9,$2,$3,0*
0 Add four circle primitives for the rounded corners*
1,1,$1+$1,$2,$3*
1,1,$1+$1,$4,$5*
1,1,$1+$1,$6,$7*
1,1,$1+$1,$8,$9*
0 Add four rect primitives between the rounded corners*
20,1,$1+$1,$2,$3,$4,$5,0*
20,1,$1+$1,$4,$5,$6,$7,0*
20,1,$1+$1,$6,$7,$8,$9,0*
20,1,$1+$1,$8,$9,$2,$3,0*%
G04 Aperture macros list end*
%ADD10C,0.150000*%
%ADD11C,0.200000*%
%ADD12C,0.120000*%
%ADD13C,0.100000*%
%ADD14C,0.127000*%
%ADD15C,1.712000*%
%ADD16O,1.800000X1.800000*%
%ADD17O,1.500000X1.500000*%
%ADD18O,1.700000X1.700000*%
%ADD19R,3.500000X1.700000*%
%ADD20R,1.700000X1.700000*%
%ADD21R,1.700000X3.500000*%
%ADD22O,3.000000X2.500000*%
%ADD23C,1.800000*%
%ADD24C,2.604000*%
%ADD25RoundRect,0.250000X0.725000X-0.600000X0.725000X0.600000X-0.725000X0.600000X-0.725000X-0.600000X0*%
%ADD26O,1.950000X1.700000*%
%ADD27RoundRect,0.250000X-0.600000X-0.725000X0.600000X-0.725000X0.600000X0.725000X-0.600000X0.725000X0*%
%ADD28O,1.700000X1.950000*%
%ADD29C,1.982000*%
%ADD30C,2.490000*%
G04 APERTURE END LIST*
D10*
X156877998Y-98180868D02*
X156797185Y-98207805D01*
X156797185Y-98207805D02*
X156716373Y-98288618D01*
X156716373Y-98288618D02*
X156662498Y-98396367D01*
X156662498Y-98396367D02*
X156662498Y-98504117D01*
X156662498Y-98504117D02*
X156689436Y-98584929D01*
X156689436Y-98584929D02*
X156770248Y-98719616D01*
X156770248Y-98719616D02*
X156851060Y-98800428D01*
X156851060Y-98800428D02*
X156985747Y-98881241D01*
X156985747Y-98881241D02*
X157066560Y-98908178D01*
X157066560Y-98908178D02*
X157174309Y-98908178D01*
X157174309Y-98908178D02*
X157282059Y-98854303D01*
X157282059Y-98854303D02*
X157335934Y-98800428D01*
X157335934Y-98800428D02*
X157389808Y-98692679D01*
X157389808Y-98692679D02*
X157389808Y-98638804D01*
X157389808Y-98638804D02*
X157201247Y-98450242D01*
X157201247Y-98450242D02*
X157093497Y-98557992D01*
X157686120Y-98450242D02*
X157120434Y-97884557D01*
X157120434Y-97884557D02*
X157335934Y-97669057D01*
X157335934Y-97669057D02*
X157416746Y-97642120D01*
X157416746Y-97642120D02*
X157470621Y-97642120D01*
X157470621Y-97642120D02*
X157551433Y-97669057D01*
X157551433Y-97669057D02*
X157632245Y-97749870D01*
X157632245Y-97749870D02*
X157659182Y-97830682D01*
X157659182Y-97830682D02*
X157659182Y-97884557D01*
X157659182Y-97884557D02*
X157632245Y-97965369D01*
X157632245Y-97965369D02*
X157416746Y-98180868D01*
X157713057Y-97399683D02*
X157713057Y-97345809D01*
X157713057Y-97345809D02*
X157739995Y-97264996D01*
X157739995Y-97264996D02*
X157874682Y-97130309D01*
X157874682Y-97130309D02*
X157955494Y-97103372D01*
X157955494Y-97103372D02*
X158009369Y-97103372D01*
X158009369Y-97103372D02*
X158090181Y-97130309D01*
X158090181Y-97130309D02*
X158144056Y-97184184D01*
X158144056Y-97184184D02*
X158197930Y-97291934D01*
X158197930Y-97291934D02*
X158197930Y-97938431D01*
X158197930Y-97938431D02*
X158548117Y-97588245D01*
X158332618Y-96672373D02*
X158386492Y-96618499D01*
X158386492Y-96618499D02*
X158467305Y-96591561D01*
X158467305Y-96591561D02*
X158521179Y-96591561D01*
X158521179Y-96591561D02*
X158601992Y-96618499D01*
X158601992Y-96618499D02*
X158736679Y-96699311D01*
X158736679Y-96699311D02*
X158871366Y-96833998D01*
X158871366Y-96833998D02*
X158952178Y-96968685D01*
X158952178Y-96968685D02*
X158979115Y-97049497D01*
X158979115Y-97049497D02*
X158979115Y-97103372D01*
X158979115Y-97103372D02*
X158952178Y-97184184D01*
X158952178Y-97184184D02*
X158898303Y-97238059D01*
X158898303Y-97238059D02*
X158817491Y-97264996D01*
X158817491Y-97264996D02*
X158763616Y-97264996D01*
X158763616Y-97264996D02*
X158682804Y-97238059D01*
X158682804Y-97238059D02*
X158548117Y-97157247D01*
X158548117Y-97157247D02*
X158413430Y-97022560D01*
X158413430Y-97022560D02*
X158332618Y-96887873D01*
X158332618Y-96887873D02*
X158305680Y-96807060D01*
X158305680Y-96807060D02*
X158305680Y-96753186D01*
X158305680Y-96753186D02*
X158332618Y-96672373D01*
X131293372Y-87751494D02*
X131212560Y-87778431D01*
X131212560Y-87778431D02*
X131131748Y-87859243D01*
X131131748Y-87859243D02*
X131077873Y-87966993D01*
X131077873Y-87966993D02*
X131077873Y-88074742D01*
X131077873Y-88074742D02*
X131104810Y-88155555D01*
X131104810Y-88155555D02*
X131185623Y-88290242D01*
X131185623Y-88290242D02*
X131266435Y-88371054D01*
X131266435Y-88371054D02*
X131401122Y-88451866D01*
X131401122Y-88451866D02*
X131481934Y-88478803D01*
X131481934Y-88478803D02*
X131589684Y-88478803D01*
X131589684Y-88478803D02*
X131697433Y-88424929D01*
X131697433Y-88424929D02*
X131751308Y-88371054D01*
X131751308Y-88371054D02*
X131805183Y-88263304D01*
X131805183Y-88263304D02*
X131805183Y-88209429D01*
X131805183Y-88209429D02*
X131616621Y-88020868D01*
X131616621Y-88020868D02*
X131508871Y-88128617D01*
X132101494Y-88020868D02*
X131535809Y-87455182D01*
X131535809Y-87455182D02*
X131751308Y-87239683D01*
X131751308Y-87239683D02*
X131832120Y-87212746D01*
X131832120Y-87212746D02*
X131885995Y-87212746D01*
X131885995Y-87212746D02*
X131966807Y-87239683D01*
X131966807Y-87239683D02*
X132047619Y-87320495D01*
X132047619Y-87320495D02*
X132074557Y-87401307D01*
X132074557Y-87401307D02*
X132074557Y-87455182D01*
X132074557Y-87455182D02*
X132047619Y-87535994D01*
X132047619Y-87535994D02*
X131832120Y-87751494D01*
X132424743Y-87051121D02*
X132343931Y-87078059D01*
X132343931Y-87078059D02*
X132290056Y-87078059D01*
X132290056Y-87078059D02*
X132209244Y-87051121D01*
X132209244Y-87051121D02*
X132182306Y-87024184D01*
X132182306Y-87024184D02*
X132155369Y-86943372D01*
X132155369Y-86943372D02*
X132155369Y-86889497D01*
X132155369Y-86889497D02*
X132182306Y-86808685D01*
X132182306Y-86808685D02*
X132290056Y-86700935D01*
X132290056Y-86700935D02*
X132370868Y-86673998D01*
X132370868Y-86673998D02*
X132424743Y-86673998D01*
X132424743Y-86673998D02*
X132505555Y-86700935D01*
X132505555Y-86700935D02*
X132532493Y-86727872D01*
X132532493Y-86727872D02*
X132559430Y-86808685D01*
X132559430Y-86808685D02*
X132559430Y-86862559D01*
X132559430Y-86862559D02*
X132532493Y-86943372D01*
X132532493Y-86943372D02*
X132424743Y-87051121D01*
X132424743Y-87051121D02*
X132397806Y-87131933D01*
X132397806Y-87131933D02*
X132397806Y-87185808D01*
X132397806Y-87185808D02*
X132424743Y-87266620D01*
X132424743Y-87266620D02*
X132532493Y-87374370D01*
X132532493Y-87374370D02*
X132613305Y-87401307D01*
X132613305Y-87401307D02*
X132667180Y-87401307D01*
X132667180Y-87401307D02*
X132747992Y-87374370D01*
X132747992Y-87374370D02*
X132855741Y-87266620D01*
X132855741Y-87266620D02*
X132882679Y-87185808D01*
X132882679Y-87185808D02*
X132882679Y-87131933D01*
X132882679Y-87131933D02*
X132855741Y-87051121D01*
X132855741Y-87051121D02*
X132747992Y-86943372D01*
X132747992Y-86943372D02*
X132667180Y-86916434D01*
X132667180Y-86916434D02*
X132613305Y-86916434D01*
X132613305Y-86916434D02*
X132532493Y-86943372D01*
X131293372Y-90291494D02*
X131212560Y-90318431D01*
X131212560Y-90318431D02*
X131131748Y-90399243D01*
X131131748Y-90399243D02*
X131077873Y-90506993D01*
X131077873Y-90506993D02*
X131077873Y-90614742D01*
X131077873Y-90614742D02*
X131104810Y-90695555D01*
X131104810Y-90695555D02*
X131185623Y-90830242D01*
X131185623Y-90830242D02*
X131266435Y-90911054D01*
X131266435Y-90911054D02*
X131401122Y-90991866D01*
X131401122Y-90991866D02*
X131481934Y-91018803D01*
X131481934Y-91018803D02*
X131589684Y-91018803D01*
X131589684Y-91018803D02*
X131697433Y-90964929D01*
X131697433Y-90964929D02*
X131751308Y-90911054D01*
X131751308Y-90911054D02*
X131805183Y-90803304D01*
X131805183Y-90803304D02*
X131805183Y-90749429D01*
X131805183Y-90749429D02*
X131616621Y-90560868D01*
X131616621Y-90560868D02*
X131508871Y-90668617D01*
X132101494Y-90560868D02*
X131535809Y-89995182D01*
X131535809Y-89995182D02*
X131751308Y-89779683D01*
X131751308Y-89779683D02*
X131832120Y-89752746D01*
X131832120Y-89752746D02*
X131885995Y-89752746D01*
X131885995Y-89752746D02*
X131966807Y-89779683D01*
X131966807Y-89779683D02*
X132047619Y-89860495D01*
X132047619Y-89860495D02*
X132074557Y-89941307D01*
X132074557Y-89941307D02*
X132074557Y-89995182D01*
X132074557Y-89995182D02*
X132047619Y-90075994D01*
X132047619Y-90075994D02*
X131832120Y-90291494D01*
X132694117Y-89968245D02*
X132801867Y-89860495D01*
X132801867Y-89860495D02*
X132828804Y-89779683D01*
X132828804Y-89779683D02*
X132828804Y-89725808D01*
X132828804Y-89725808D02*
X132801867Y-89591121D01*
X132801867Y-89591121D02*
X132721054Y-89456434D01*
X132721054Y-89456434D02*
X132505555Y-89240935D01*
X132505555Y-89240935D02*
X132424743Y-89213998D01*
X132424743Y-89213998D02*
X132370868Y-89213998D01*
X132370868Y-89213998D02*
X132290056Y-89240935D01*
X132290056Y-89240935D02*
X132182306Y-89348685D01*
X132182306Y-89348685D02*
X132155369Y-89429497D01*
X132155369Y-89429497D02*
X132155369Y-89483372D01*
X132155369Y-89483372D02*
X132182306Y-89564184D01*
X132182306Y-89564184D02*
X132316993Y-89698871D01*
X132316993Y-89698871D02*
X132397806Y-89725808D01*
X132397806Y-89725808D02*
X132451680Y-89725808D01*
X132451680Y-89725808D02*
X132532493Y-89698871D01*
X132532493Y-89698871D02*
X132640242Y-89591121D01*
X132640242Y-89591121D02*
X132667180Y-89510309D01*
X132667180Y-89510309D02*
X132667180Y-89456434D01*
X132667180Y-89456434D02*
X132640242Y-89375622D01*
X131193372Y-69971494D02*
X131112560Y-69998431D01*
X131112560Y-69998431D02*
X131031748Y-70079243D01*
X131031748Y-70079243D02*
X130977873Y-70186993D01*
X130977873Y-70186993D02*
X130977873Y-70294742D01*
X130977873Y-70294742D02*
X131004810Y-70375555D01*
X131004810Y-70375555D02*
X131085623Y-70510242D01*
X131085623Y-70510242D02*
X131166435Y-70591054D01*
X131166435Y-70591054D02*
X131301122Y-70671866D01*
X131301122Y-70671866D02*
X131381934Y-70698803D01*
X131381934Y-70698803D02*
X131489684Y-70698803D01*
X131489684Y-70698803D02*
X131597433Y-70644929D01*
X131597433Y-70644929D02*
X131651308Y-70591054D01*
X131651308Y-70591054D02*
X131705183Y-70483304D01*
X131705183Y-70483304D02*
X131705183Y-70429429D01*
X131705183Y-70429429D02*
X131516621Y-70240868D01*
X131516621Y-70240868D02*
X131408871Y-70348617D01*
X132001494Y-70240868D02*
X131435809Y-69675182D01*
X131435809Y-69675182D02*
X131651308Y-69459683D01*
X131651308Y-69459683D02*
X131732120Y-69432746D01*
X131732120Y-69432746D02*
X131785995Y-69432746D01*
X131785995Y-69432746D02*
X131866807Y-69459683D01*
X131866807Y-69459683D02*
X131947619Y-69540495D01*
X131947619Y-69540495D02*
X131974557Y-69621307D01*
X131974557Y-69621307D02*
X131974557Y-69675182D01*
X131974557Y-69675182D02*
X131947619Y-69755994D01*
X131947619Y-69755994D02*
X131732120Y-69971494D01*
X132028432Y-69190309D02*
X132028432Y-69136434D01*
X132028432Y-69136434D02*
X132055369Y-69055622D01*
X132055369Y-69055622D02*
X132190056Y-68920935D01*
X132190056Y-68920935D02*
X132270868Y-68893998D01*
X132270868Y-68893998D02*
X132324743Y-68893998D01*
X132324743Y-68893998D02*
X132405555Y-68920935D01*
X132405555Y-68920935D02*
X132459430Y-68974810D01*
X132459430Y-68974810D02*
X132513305Y-69082559D01*
X132513305Y-69082559D02*
X132513305Y-69729057D01*
X132513305Y-69729057D02*
X132863491Y-69378871D01*
X131266435Y-67458431D02*
X131185623Y-67485368D01*
X131185623Y-67485368D02*
X131104811Y-67566180D01*
X131104811Y-67566180D02*
X131050936Y-67673930D01*
X131050936Y-67673930D02*
X131050936Y-67781680D01*
X131050936Y-67781680D02*
X131077873Y-67862492D01*
X131077873Y-67862492D02*
X131158685Y-67997179D01*
X131158685Y-67997179D02*
X131239498Y-68077991D01*
X131239498Y-68077991D02*
X131374185Y-68158803D01*
X131374185Y-68158803D02*
X131454997Y-68185741D01*
X131454997Y-68185741D02*
X131562746Y-68185741D01*
X131562746Y-68185741D02*
X131670496Y-68131866D01*
X131670496Y-68131866D02*
X131724371Y-68077991D01*
X131724371Y-68077991D02*
X131778246Y-67970241D01*
X131778246Y-67970241D02*
X131778246Y-67916367D01*
X131778246Y-67916367D02*
X131589684Y-67727805D01*
X131589684Y-67727805D02*
X131481934Y-67835554D01*
X132074557Y-67727805D02*
X131508872Y-67162119D01*
X131508872Y-67162119D02*
X132397806Y-67404556D01*
X132397806Y-67404556D02*
X131832120Y-66838871D01*
X132667180Y-67135182D02*
X132101494Y-66569497D01*
X132101494Y-66569497D02*
X132236181Y-66434810D01*
X132236181Y-66434810D02*
X132343931Y-66380935D01*
X132343931Y-66380935D02*
X132451680Y-66380935D01*
X132451680Y-66380935D02*
X132532493Y-66407872D01*
X132532493Y-66407872D02*
X132667180Y-66488685D01*
X132667180Y-66488685D02*
X132747992Y-66569497D01*
X132747992Y-66569497D02*
X132828804Y-66704184D01*
X132828804Y-66704184D02*
X132855741Y-66784996D01*
X132855741Y-66784996D02*
X132855741Y-66892746D01*
X132855741Y-66892746D02*
X132801867Y-67000495D01*
X132801867Y-67000495D02*
X132667180Y-67135182D01*
X131293372Y-77591494D02*
X131212560Y-77618431D01*
X131212560Y-77618431D02*
X131131748Y-77699243D01*
X131131748Y-77699243D02*
X131077873Y-77806993D01*
X131077873Y-77806993D02*
X131077873Y-77914742D01*
X131077873Y-77914742D02*
X131104810Y-77995555D01*
X131104810Y-77995555D02*
X131185623Y-78130242D01*
X131185623Y-78130242D02*
X131266435Y-78211054D01*
X131266435Y-78211054D02*
X131401122Y-78291866D01*
X131401122Y-78291866D02*
X131481934Y-78318803D01*
X131481934Y-78318803D02*
X131589684Y-78318803D01*
X131589684Y-78318803D02*
X131697433Y-78264929D01*
X131697433Y-78264929D02*
X131751308Y-78211054D01*
X131751308Y-78211054D02*
X131805183Y-78103304D01*
X131805183Y-78103304D02*
X131805183Y-78049429D01*
X131805183Y-78049429D02*
X131616621Y-77860868D01*
X131616621Y-77860868D02*
X131508871Y-77968617D01*
X132101494Y-77860868D02*
X131535809Y-77295182D01*
X131535809Y-77295182D02*
X131751308Y-77079683D01*
X131751308Y-77079683D02*
X131832120Y-77052746D01*
X131832120Y-77052746D02*
X131885995Y-77052746D01*
X131885995Y-77052746D02*
X131966807Y-77079683D01*
X131966807Y-77079683D02*
X132047619Y-77160495D01*
X132047619Y-77160495D02*
X132074557Y-77241307D01*
X132074557Y-77241307D02*
X132074557Y-77295182D01*
X132074557Y-77295182D02*
X132047619Y-77375994D01*
X132047619Y-77375994D02*
X131832120Y-77591494D01*
X132370868Y-76460123D02*
X132101494Y-76729497D01*
X132101494Y-76729497D02*
X132343931Y-77025808D01*
X132343931Y-77025808D02*
X132343931Y-76971933D01*
X132343931Y-76971933D02*
X132370868Y-76891121D01*
X132370868Y-76891121D02*
X132505555Y-76756434D01*
X132505555Y-76756434D02*
X132586367Y-76729497D01*
X132586367Y-76729497D02*
X132640242Y-76729497D01*
X132640242Y-76729497D02*
X132721054Y-76756434D01*
X132721054Y-76756434D02*
X132855741Y-76891121D01*
X132855741Y-76891121D02*
X132882679Y-76971933D01*
X132882679Y-76971933D02*
X132882679Y-77025808D01*
X132882679Y-77025808D02*
X132855741Y-77106620D01*
X132855741Y-77106620D02*
X132721054Y-77241307D01*
X132721054Y-77241307D02*
X132640242Y-77268245D01*
X132640242Y-77268245D02*
X132586367Y-77268245D01*
X131293372Y-75051494D02*
X131212560Y-75078431D01*
X131212560Y-75078431D02*
X131131748Y-75159243D01*
X131131748Y-75159243D02*
X131077873Y-75266993D01*
X131077873Y-75266993D02*
X131077873Y-75374742D01*
X131077873Y-75374742D02*
X131104810Y-75455555D01*
X131104810Y-75455555D02*
X131185623Y-75590242D01*
X131185623Y-75590242D02*
X131266435Y-75671054D01*
X131266435Y-75671054D02*
X131401122Y-75751866D01*
X131401122Y-75751866D02*
X131481934Y-75778803D01*
X131481934Y-75778803D02*
X131589684Y-75778803D01*
X131589684Y-75778803D02*
X131697433Y-75724929D01*
X131697433Y-75724929D02*
X131751308Y-75671054D01*
X131751308Y-75671054D02*
X131805183Y-75563304D01*
X131805183Y-75563304D02*
X131805183Y-75509429D01*
X131805183Y-75509429D02*
X131616621Y-75320868D01*
X131616621Y-75320868D02*
X131508871Y-75428617D01*
X132101494Y-75320868D02*
X131535809Y-74755182D01*
X131535809Y-74755182D02*
X131751308Y-74539683D01*
X131751308Y-74539683D02*
X131832120Y-74512746D01*
X131832120Y-74512746D02*
X131885995Y-74512746D01*
X131885995Y-74512746D02*
X131966807Y-74539683D01*
X131966807Y-74539683D02*
X132047619Y-74620495D01*
X132047619Y-74620495D02*
X132074557Y-74701307D01*
X132074557Y-74701307D02*
X132074557Y-74755182D01*
X132074557Y-74755182D02*
X132047619Y-74835994D01*
X132047619Y-74835994D02*
X131832120Y-75051494D01*
X132532493Y-74135622D02*
X132909616Y-74512746D01*
X132182306Y-74054810D02*
X132451680Y-74593558D01*
X132451680Y-74593558D02*
X132801867Y-74243372D01*
X156866435Y-105558431D02*
X156785623Y-105585368D01*
X156785623Y-105585368D02*
X156704811Y-105666180D01*
X156704811Y-105666180D02*
X156650936Y-105773930D01*
X156650936Y-105773930D02*
X156650936Y-105881680D01*
X156650936Y-105881680D02*
X156677873Y-105962492D01*
X156677873Y-105962492D02*
X156758685Y-106097179D01*
X156758685Y-106097179D02*
X156839498Y-106177991D01*
X156839498Y-106177991D02*
X156974185Y-106258803D01*
X156974185Y-106258803D02*
X157054997Y-106285741D01*
X157054997Y-106285741D02*
X157162746Y-106285741D01*
X157162746Y-106285741D02*
X157270496Y-106231866D01*
X157270496Y-106231866D02*
X157324371Y-106177991D01*
X157324371Y-106177991D02*
X157378246Y-106070241D01*
X157378246Y-106070241D02*
X157378246Y-106016367D01*
X157378246Y-106016367D02*
X157189684Y-105827805D01*
X157189684Y-105827805D02*
X157081934Y-105935554D01*
X157674557Y-105827805D02*
X157108872Y-105262119D01*
X157108872Y-105262119D02*
X157997806Y-105504556D01*
X157997806Y-105504556D02*
X157432120Y-104938871D01*
X158267180Y-105235182D02*
X157701494Y-104669497D01*
X157701494Y-104669497D02*
X157836181Y-104534810D01*
X157836181Y-104534810D02*
X157943931Y-104480935D01*
X157943931Y-104480935D02*
X158051680Y-104480935D01*
X158051680Y-104480935D02*
X158132493Y-104507872D01*
X158132493Y-104507872D02*
X158267180Y-104588685D01*
X158267180Y-104588685D02*
X158347992Y-104669497D01*
X158347992Y-104669497D02*
X158428804Y-104804184D01*
X158428804Y-104804184D02*
X158455741Y-104884996D01*
X158455741Y-104884996D02*
X158455741Y-104992746D01*
X158455741Y-104992746D02*
X158401867Y-105100495D01*
X158401867Y-105100495D02*
X158267180Y-105235182D01*
X131266435Y-105558431D02*
X131185623Y-105585368D01*
X131185623Y-105585368D02*
X131104811Y-105666180D01*
X131104811Y-105666180D02*
X131050936Y-105773930D01*
X131050936Y-105773930D02*
X131050936Y-105881680D01*
X131050936Y-105881680D02*
X131077873Y-105962492D01*
X131077873Y-105962492D02*
X131158685Y-106097179D01*
X131158685Y-106097179D02*
X131239498Y-106177991D01*
X131239498Y-106177991D02*
X131374185Y-106258803D01*
X131374185Y-106258803D02*
X131454997Y-106285741D01*
X131454997Y-106285741D02*
X131562746Y-106285741D01*
X131562746Y-106285741D02*
X131670496Y-106231866D01*
X131670496Y-106231866D02*
X131724371Y-106177991D01*
X131724371Y-106177991D02*
X131778246Y-106070241D01*
X131778246Y-106070241D02*
X131778246Y-106016367D01*
X131778246Y-106016367D02*
X131589684Y-105827805D01*
X131589684Y-105827805D02*
X131481934Y-105935554D01*
X132074557Y-105827805D02*
X131508872Y-105262119D01*
X131508872Y-105262119D02*
X132397806Y-105504556D01*
X132397806Y-105504556D02*
X131832120Y-104938871D01*
X132667180Y-105235182D02*
X132101494Y-104669497D01*
X132101494Y-104669497D02*
X132236181Y-104534810D01*
X132236181Y-104534810D02*
X132343931Y-104480935D01*
X132343931Y-104480935D02*
X132451680Y-104480935D01*
X132451680Y-104480935D02*
X132532493Y-104507872D01*
X132532493Y-104507872D02*
X132667180Y-104588685D01*
X132667180Y-104588685D02*
X132747992Y-104669497D01*
X132747992Y-104669497D02*
X132828804Y-104804184D01*
X132828804Y-104804184D02*
X132855741Y-104884996D01*
X132855741Y-104884996D02*
X132855741Y-104992746D01*
X132855741Y-104992746D02*
X132801867Y-105100495D01*
X132801867Y-105100495D02*
X132667180Y-105235182D01*
X131266435Y-92858431D02*
X131185623Y-92885368D01*
X131185623Y-92885368D02*
X131104811Y-92966180D01*
X131104811Y-92966180D02*
X131050936Y-93073930D01*
X131050936Y-93073930D02*
X131050936Y-93181680D01*
X131050936Y-93181680D02*
X131077873Y-93262492D01*
X131077873Y-93262492D02*
X131158685Y-93397179D01*
X131158685Y-93397179D02*
X131239498Y-93477991D01*
X131239498Y-93477991D02*
X131374185Y-93558803D01*
X131374185Y-93558803D02*
X131454997Y-93585741D01*
X131454997Y-93585741D02*
X131562746Y-93585741D01*
X131562746Y-93585741D02*
X131670496Y-93531866D01*
X131670496Y-93531866D02*
X131724371Y-93477991D01*
X131724371Y-93477991D02*
X131778246Y-93370241D01*
X131778246Y-93370241D02*
X131778246Y-93316367D01*
X131778246Y-93316367D02*
X131589684Y-93127805D01*
X131589684Y-93127805D02*
X131481934Y-93235554D01*
X132074557Y-93127805D02*
X131508872Y-92562119D01*
X131508872Y-92562119D02*
X132397806Y-92804556D01*
X132397806Y-92804556D02*
X131832120Y-92238871D01*
X132667180Y-92535182D02*
X132101494Y-91969497D01*
X132101494Y-91969497D02*
X132236181Y-91834810D01*
X132236181Y-91834810D02*
X132343931Y-91780935D01*
X132343931Y-91780935D02*
X132451680Y-91780935D01*
X132451680Y-91780935D02*
X132532493Y-91807872D01*
X132532493Y-91807872D02*
X132667180Y-91888685D01*
X132667180Y-91888685D02*
X132747992Y-91969497D01*
X132747992Y-91969497D02*
X132828804Y-92104184D01*
X132828804Y-92104184D02*
X132855741Y-92184996D01*
X132855741Y-92184996D02*
X132855741Y-92292746D01*
X132855741Y-92292746D02*
X132801867Y-92400495D01*
X132801867Y-92400495D02*
X132667180Y-92535182D01*
X156877998Y-90560868D02*
X156797185Y-90587805D01*
X156797185Y-90587805D02*
X156716373Y-90668618D01*
X156716373Y-90668618D02*
X156662498Y-90776367D01*
X156662498Y-90776367D02*
X156662498Y-90884117D01*
X156662498Y-90884117D02*
X156689436Y-90964929D01*
X156689436Y-90964929D02*
X156770248Y-91099616D01*
X156770248Y-91099616D02*
X156851060Y-91180428D01*
X156851060Y-91180428D02*
X156985747Y-91261241D01*
X156985747Y-91261241D02*
X157066560Y-91288178D01*
X157066560Y-91288178D02*
X157174309Y-91288178D01*
X157174309Y-91288178D02*
X157282059Y-91234303D01*
X157282059Y-91234303D02*
X157335934Y-91180428D01*
X157335934Y-91180428D02*
X157389808Y-91072679D01*
X157389808Y-91072679D02*
X157389808Y-91018804D01*
X157389808Y-91018804D02*
X157201247Y-90830242D01*
X157201247Y-90830242D02*
X157093497Y-90937992D01*
X157686120Y-90830242D02*
X157120434Y-90264557D01*
X157120434Y-90264557D02*
X157335934Y-90049057D01*
X157335934Y-90049057D02*
X157416746Y-90022120D01*
X157416746Y-90022120D02*
X157470621Y-90022120D01*
X157470621Y-90022120D02*
X157551433Y-90049057D01*
X157551433Y-90049057D02*
X157632245Y-90129870D01*
X157632245Y-90129870D02*
X157659182Y-90210682D01*
X157659182Y-90210682D02*
X157659182Y-90264557D01*
X157659182Y-90264557D02*
X157632245Y-90345369D01*
X157632245Y-90345369D02*
X157416746Y-90560868D01*
X157713057Y-89779683D02*
X157713057Y-89725809D01*
X157713057Y-89725809D02*
X157739995Y-89644996D01*
X157739995Y-89644996D02*
X157874682Y-89510309D01*
X157874682Y-89510309D02*
X157955494Y-89483372D01*
X157955494Y-89483372D02*
X158009369Y-89483372D01*
X158009369Y-89483372D02*
X158090181Y-89510309D01*
X158090181Y-89510309D02*
X158144056Y-89564184D01*
X158144056Y-89564184D02*
X158197930Y-89671934D01*
X158197930Y-89671934D02*
X158197930Y-90318431D01*
X158197930Y-90318431D02*
X158548117Y-89968245D01*
X158251805Y-89240935D02*
X158251805Y-89187060D01*
X158251805Y-89187060D02*
X158278743Y-89106248D01*
X158278743Y-89106248D02*
X158413430Y-88971561D01*
X158413430Y-88971561D02*
X158494242Y-88944624D01*
X158494242Y-88944624D02*
X158548117Y-88944624D01*
X158548117Y-88944624D02*
X158628929Y-88971561D01*
X158628929Y-88971561D02*
X158682804Y-89025436D01*
X158682804Y-89025436D02*
X158736679Y-89133186D01*
X158736679Y-89133186D02*
X158736679Y-89779683D01*
X158736679Y-89779683D02*
X159086865Y-89429497D01*
X156877998Y-77606868D02*
X156797185Y-77633805D01*
X156797185Y-77633805D02*
X156716373Y-77714618D01*
X156716373Y-77714618D02*
X156662498Y-77822367D01*
X156662498Y-77822367D02*
X156662498Y-77930117D01*
X156662498Y-77930117D02*
X156689436Y-78010929D01*
X156689436Y-78010929D02*
X156770248Y-78145616D01*
X156770248Y-78145616D02*
X156851060Y-78226428D01*
X156851060Y-78226428D02*
X156985747Y-78307241D01*
X156985747Y-78307241D02*
X157066560Y-78334178D01*
X157066560Y-78334178D02*
X157174309Y-78334178D01*
X157174309Y-78334178D02*
X157282059Y-78280303D01*
X157282059Y-78280303D02*
X157335934Y-78226428D01*
X157335934Y-78226428D02*
X157389808Y-78118679D01*
X157389808Y-78118679D02*
X157389808Y-78064804D01*
X157389808Y-78064804D02*
X157201247Y-77876242D01*
X157201247Y-77876242D02*
X157093497Y-77983992D01*
X157686120Y-77876242D02*
X157120434Y-77310557D01*
X157120434Y-77310557D02*
X157335934Y-77095057D01*
X157335934Y-77095057D02*
X157416746Y-77068120D01*
X157416746Y-77068120D02*
X157470621Y-77068120D01*
X157470621Y-77068120D02*
X157551433Y-77095057D01*
X157551433Y-77095057D02*
X157632245Y-77175870D01*
X157632245Y-77175870D02*
X157659182Y-77256682D01*
X157659182Y-77256682D02*
X157659182Y-77310557D01*
X157659182Y-77310557D02*
X157632245Y-77391369D01*
X157632245Y-77391369D02*
X157416746Y-77606868D01*
X157713057Y-76825683D02*
X157713057Y-76771809D01*
X157713057Y-76771809D02*
X157739995Y-76690996D01*
X157739995Y-76690996D02*
X157874682Y-76556309D01*
X157874682Y-76556309D02*
X157955494Y-76529372D01*
X157955494Y-76529372D02*
X158009369Y-76529372D01*
X158009369Y-76529372D02*
X158090181Y-76556309D01*
X158090181Y-76556309D02*
X158144056Y-76610184D01*
X158144056Y-76610184D02*
X158197930Y-76717934D01*
X158197930Y-76717934D02*
X158197930Y-77364431D01*
X158197930Y-77364431D02*
X158548117Y-77014245D01*
X158548117Y-76367747D02*
X158467305Y-76394685D01*
X158467305Y-76394685D02*
X158413430Y-76394685D01*
X158413430Y-76394685D02*
X158332618Y-76367747D01*
X158332618Y-76367747D02*
X158305680Y-76340810D01*
X158305680Y-76340810D02*
X158278743Y-76259998D01*
X158278743Y-76259998D02*
X158278743Y-76206123D01*
X158278743Y-76206123D02*
X158305680Y-76125311D01*
X158305680Y-76125311D02*
X158413430Y-76017561D01*
X158413430Y-76017561D02*
X158494242Y-75990624D01*
X158494242Y-75990624D02*
X158548117Y-75990624D01*
X158548117Y-75990624D02*
X158628929Y-76017561D01*
X158628929Y-76017561D02*
X158655866Y-76044499D01*
X158655866Y-76044499D02*
X158682804Y-76125311D01*
X158682804Y-76125311D02*
X158682804Y-76179186D01*
X158682804Y-76179186D02*
X158655866Y-76259998D01*
X158655866Y-76259998D02*
X158548117Y-76367747D01*
X158548117Y-76367747D02*
X158521179Y-76448560D01*
X158521179Y-76448560D02*
X158521179Y-76502434D01*
X158521179Y-76502434D02*
X158548117Y-76583247D01*
X158548117Y-76583247D02*
X158655866Y-76690996D01*
X158655866Y-76690996D02*
X158736679Y-76717934D01*
X158736679Y-76717934D02*
X158790553Y-76717934D01*
X158790553Y-76717934D02*
X158871366Y-76690996D01*
X158871366Y-76690996D02*
X158979115Y-76583247D01*
X158979115Y-76583247D02*
X159006053Y-76502434D01*
X159006053Y-76502434D02*
X159006053Y-76448560D01*
X159006053Y-76448560D02*
X158979115Y-76367747D01*
X158979115Y-76367747D02*
X158871366Y-76259998D01*
X158871366Y-76259998D02*
X158790553Y-76233060D01*
X158790553Y-76233060D02*
X158736679Y-76233060D01*
X158736679Y-76233060D02*
X158655866Y-76259998D01*
X130723998Y-108340868D02*
X130643185Y-108367805D01*
X130643185Y-108367805D02*
X130562373Y-108448618D01*
X130562373Y-108448618D02*
X130508498Y-108556367D01*
X130508498Y-108556367D02*
X130508498Y-108664117D01*
X130508498Y-108664117D02*
X130535436Y-108744929D01*
X130535436Y-108744929D02*
X130616248Y-108879616D01*
X130616248Y-108879616D02*
X130697060Y-108960428D01*
X130697060Y-108960428D02*
X130831747Y-109041241D01*
X130831747Y-109041241D02*
X130912560Y-109068178D01*
X130912560Y-109068178D02*
X131020309Y-109068178D01*
X131020309Y-109068178D02*
X131128059Y-109014303D01*
X131128059Y-109014303D02*
X131181934Y-108960428D01*
X131181934Y-108960428D02*
X131235808Y-108852679D01*
X131235808Y-108852679D02*
X131235808Y-108798804D01*
X131235808Y-108798804D02*
X131047247Y-108610242D01*
X131047247Y-108610242D02*
X130939497Y-108717992D01*
X131532120Y-108610242D02*
X130966434Y-108044557D01*
X130966434Y-108044557D02*
X131181934Y-107829057D01*
X131181934Y-107829057D02*
X131262746Y-107802120D01*
X131262746Y-107802120D02*
X131316621Y-107802120D01*
X131316621Y-107802120D02*
X131397433Y-107829057D01*
X131397433Y-107829057D02*
X131478245Y-107909870D01*
X131478245Y-107909870D02*
X131505182Y-107990682D01*
X131505182Y-107990682D02*
X131505182Y-108044557D01*
X131505182Y-108044557D02*
X131478245Y-108125369D01*
X131478245Y-108125369D02*
X131262746Y-108340868D01*
X132394117Y-107748245D02*
X132070868Y-108071494D01*
X132232492Y-107909870D02*
X131666807Y-107344184D01*
X131666807Y-107344184D02*
X131693744Y-107478871D01*
X131693744Y-107478871D02*
X131693744Y-107586621D01*
X131693744Y-107586621D02*
X131666807Y-107667433D01*
X132501866Y-106886248D02*
X132878990Y-107263372D01*
X132151680Y-106805436D02*
X132421054Y-107344184D01*
X132421054Y-107344184D02*
X132771240Y-106993998D01*
X156935064Y-75894049D02*
X157204438Y-75624675D01*
X157042813Y-76109549D02*
X156665690Y-75355301D01*
X156665690Y-75355301D02*
X157419937Y-75732425D01*
X157608499Y-75543863D02*
X157042813Y-74978178D01*
X157042813Y-74978178D02*
X157177500Y-74843491D01*
X157177500Y-74843491D02*
X157285250Y-74789616D01*
X157285250Y-74789616D02*
X157392999Y-74789616D01*
X157392999Y-74789616D02*
X157473812Y-74816553D01*
X157473812Y-74816553D02*
X157608499Y-74897366D01*
X157608499Y-74897366D02*
X157689311Y-74978178D01*
X157689311Y-74978178D02*
X157770123Y-75112865D01*
X157770123Y-75112865D02*
X157797060Y-75193677D01*
X157797060Y-75193677D02*
X157797060Y-75301427D01*
X157797060Y-75301427D02*
X157743186Y-75409176D01*
X157743186Y-75409176D02*
X157608499Y-75543863D01*
X158443558Y-74601054D02*
X158443558Y-74654929D01*
X158443558Y-74654929D02*
X158389683Y-74762679D01*
X158389683Y-74762679D02*
X158335808Y-74816553D01*
X158335808Y-74816553D02*
X158228059Y-74870428D01*
X158228059Y-74870428D02*
X158120309Y-74870428D01*
X158120309Y-74870428D02*
X158039497Y-74843491D01*
X158039497Y-74843491D02*
X157904810Y-74762679D01*
X157904810Y-74762679D02*
X157823998Y-74681866D01*
X157823998Y-74681866D02*
X157743186Y-74547179D01*
X157743186Y-74547179D02*
X157716248Y-74466367D01*
X157716248Y-74466367D02*
X157716248Y-74358618D01*
X157716248Y-74358618D02*
X157770123Y-74250868D01*
X157770123Y-74250868D02*
X157823998Y-74196993D01*
X157823998Y-74196993D02*
X157931747Y-74143118D01*
X157931747Y-74143118D02*
X157985622Y-74143118D01*
X158659057Y-74601054D02*
X159090056Y-74170056D01*
X158524370Y-73496621D02*
X159278618Y-73873744D01*
X159278618Y-73873744D02*
X158901494Y-73119497D01*
X159978990Y-73173372D02*
X159521054Y-73092560D01*
X159655741Y-73496621D02*
X159090056Y-72930935D01*
X159090056Y-72930935D02*
X159305555Y-72715436D01*
X159305555Y-72715436D02*
X159386367Y-72688499D01*
X159386367Y-72688499D02*
X159440242Y-72688499D01*
X159440242Y-72688499D02*
X159521054Y-72715436D01*
X159521054Y-72715436D02*
X159601866Y-72796248D01*
X159601866Y-72796248D02*
X159628804Y-72877061D01*
X159628804Y-72877061D02*
X159628804Y-72930935D01*
X159628804Y-72930935D02*
X159601866Y-73011748D01*
X159601866Y-73011748D02*
X159386367Y-73227247D01*
X159925115Y-72634624D02*
X160113677Y-72446062D01*
X160490800Y-72661561D02*
X160221426Y-72930935D01*
X160221426Y-72930935D02*
X159655741Y-72365250D01*
X159655741Y-72365250D02*
X159925115Y-72095876D01*
X160625488Y-71934251D02*
X160436926Y-72122813D01*
X160733237Y-72419125D02*
X160167552Y-71853439D01*
X160167552Y-71853439D02*
X160436926Y-71584065D01*
X137270475Y-112884200D02*
X137384761Y-112922295D01*
X137384761Y-112922295D02*
X137575237Y-112922295D01*
X137575237Y-112922295D02*
X137651428Y-112884200D01*
X137651428Y-112884200D02*
X137689523Y-112846104D01*
X137689523Y-112846104D02*
X137727618Y-112769914D01*
X137727618Y-112769914D02*
X137727618Y-112693723D01*
X137727618Y-112693723D02*
X137689523Y-112617533D01*
X137689523Y-112617533D02*
X137651428Y-112579438D01*
X137651428Y-112579438D02*
X137575237Y-112541342D01*
X137575237Y-112541342D02*
X137422856Y-112503247D01*
X137422856Y-112503247D02*
X137346666Y-112465152D01*
X137346666Y-112465152D02*
X137308571Y-112427057D01*
X137308571Y-112427057D02*
X137270475Y-112350866D01*
X137270475Y-112350866D02*
X137270475Y-112274676D01*
X137270475Y-112274676D02*
X137308571Y-112198485D01*
X137308571Y-112198485D02*
X137346666Y-112160390D01*
X137346666Y-112160390D02*
X137422856Y-112122295D01*
X137422856Y-112122295D02*
X137613333Y-112122295D01*
X137613333Y-112122295D02*
X137727618Y-112160390D01*
X137994285Y-112122295D02*
X138184761Y-112922295D01*
X138184761Y-112922295D02*
X138337142Y-112350866D01*
X138337142Y-112350866D02*
X138489523Y-112922295D01*
X138489523Y-112922295D02*
X138680000Y-112122295D01*
X139441905Y-112846104D02*
X139403809Y-112884200D01*
X139403809Y-112884200D02*
X139289524Y-112922295D01*
X139289524Y-112922295D02*
X139213333Y-112922295D01*
X139213333Y-112922295D02*
X139099047Y-112884200D01*
X139099047Y-112884200D02*
X139022857Y-112808009D01*
X139022857Y-112808009D02*
X138984762Y-112731819D01*
X138984762Y-112731819D02*
X138946666Y-112579438D01*
X138946666Y-112579438D02*
X138946666Y-112465152D01*
X138946666Y-112465152D02*
X138984762Y-112312771D01*
X138984762Y-112312771D02*
X139022857Y-112236580D01*
X139022857Y-112236580D02*
X139099047Y-112160390D01*
X139099047Y-112160390D02*
X139213333Y-112122295D01*
X139213333Y-112122295D02*
X139289524Y-112122295D01*
X139289524Y-112122295D02*
X139403809Y-112160390D01*
X139403809Y-112160390D02*
X139441905Y-112198485D01*
X140165714Y-112922295D02*
X139784762Y-112922295D01*
X139784762Y-112922295D02*
X139784762Y-112122295D01*
X140432381Y-112922295D02*
X140432381Y-112122295D01*
X140889524Y-112922295D02*
X140546666Y-112465152D01*
X140889524Y-112122295D02*
X140432381Y-112579438D01*
X131293372Y-62351494D02*
X131212560Y-62378431D01*
X131212560Y-62378431D02*
X131131748Y-62459243D01*
X131131748Y-62459243D02*
X131077873Y-62566993D01*
X131077873Y-62566993D02*
X131077873Y-62674742D01*
X131077873Y-62674742D02*
X131104810Y-62755555D01*
X131104810Y-62755555D02*
X131185623Y-62890242D01*
X131185623Y-62890242D02*
X131266435Y-62971054D01*
X131266435Y-62971054D02*
X131401122Y-63051866D01*
X131401122Y-63051866D02*
X131481934Y-63078803D01*
X131481934Y-63078803D02*
X131589684Y-63078803D01*
X131589684Y-63078803D02*
X131697433Y-63024929D01*
X131697433Y-63024929D02*
X131751308Y-62971054D01*
X131751308Y-62971054D02*
X131805183Y-62863304D01*
X131805183Y-62863304D02*
X131805183Y-62809429D01*
X131805183Y-62809429D02*
X131616621Y-62620868D01*
X131616621Y-62620868D02*
X131508871Y-62728617D01*
X132101494Y-62620868D02*
X131535809Y-62055182D01*
X131535809Y-62055182D02*
X131751308Y-61839683D01*
X131751308Y-61839683D02*
X131832120Y-61812746D01*
X131832120Y-61812746D02*
X131885995Y-61812746D01*
X131885995Y-61812746D02*
X131966807Y-61839683D01*
X131966807Y-61839683D02*
X132047619Y-61920495D01*
X132047619Y-61920495D02*
X132074557Y-62001307D01*
X132074557Y-62001307D02*
X132074557Y-62055182D01*
X132074557Y-62055182D02*
X132047619Y-62135994D01*
X132047619Y-62135994D02*
X131832120Y-62351494D01*
X132209244Y-61381747D02*
X132263119Y-61327872D01*
X132263119Y-61327872D02*
X132343931Y-61300935D01*
X132343931Y-61300935D02*
X132397806Y-61300935D01*
X132397806Y-61300935D02*
X132478618Y-61327872D01*
X132478618Y-61327872D02*
X132613305Y-61408685D01*
X132613305Y-61408685D02*
X132747992Y-61543372D01*
X132747992Y-61543372D02*
X132828804Y-61678059D01*
X132828804Y-61678059D02*
X132855741Y-61758871D01*
X132855741Y-61758871D02*
X132855741Y-61812746D01*
X132855741Y-61812746D02*
X132828804Y-61893558D01*
X132828804Y-61893558D02*
X132774929Y-61947433D01*
X132774929Y-61947433D02*
X132694117Y-61974370D01*
X132694117Y-61974370D02*
X132640242Y-61974370D01*
X132640242Y-61974370D02*
X132559430Y-61947433D01*
X132559430Y-61947433D02*
X132424743Y-61866620D01*
X132424743Y-61866620D02*
X132290056Y-61731933D01*
X132290056Y-61731933D02*
X132209244Y-61597246D01*
X132209244Y-61597246D02*
X132182306Y-61516434D01*
X132182306Y-61516434D02*
X132182306Y-61462559D01*
X132182306Y-61462559D02*
X132209244Y-61381747D01*
X156877998Y-82950868D02*
X156797185Y-82977805D01*
X156797185Y-82977805D02*
X156716373Y-83058618D01*
X156716373Y-83058618D02*
X156662498Y-83166367D01*
X156662498Y-83166367D02*
X156662498Y-83274117D01*
X156662498Y-83274117D02*
X156689436Y-83354929D01*
X156689436Y-83354929D02*
X156770248Y-83489616D01*
X156770248Y-83489616D02*
X156851060Y-83570428D01*
X156851060Y-83570428D02*
X156985747Y-83651241D01*
X156985747Y-83651241D02*
X157066560Y-83678178D01*
X157066560Y-83678178D02*
X157174309Y-83678178D01*
X157174309Y-83678178D02*
X157282059Y-83624303D01*
X157282059Y-83624303D02*
X157335934Y-83570428D01*
X157335934Y-83570428D02*
X157389808Y-83462679D01*
X157389808Y-83462679D02*
X157389808Y-83408804D01*
X157389808Y-83408804D02*
X157201247Y-83220242D01*
X157201247Y-83220242D02*
X157093497Y-83327992D01*
X157686120Y-83220242D02*
X157120434Y-82654557D01*
X157120434Y-82654557D02*
X157335934Y-82439057D01*
X157335934Y-82439057D02*
X157416746Y-82412120D01*
X157416746Y-82412120D02*
X157470621Y-82412120D01*
X157470621Y-82412120D02*
X157551433Y-82439057D01*
X157551433Y-82439057D02*
X157632245Y-82519870D01*
X157632245Y-82519870D02*
X157659182Y-82600682D01*
X157659182Y-82600682D02*
X157659182Y-82654557D01*
X157659182Y-82654557D02*
X157632245Y-82735369D01*
X157632245Y-82735369D02*
X157416746Y-82950868D01*
X157713057Y-82169683D02*
X157713057Y-82115809D01*
X157713057Y-82115809D02*
X157739995Y-82034996D01*
X157739995Y-82034996D02*
X157874682Y-81900309D01*
X157874682Y-81900309D02*
X157955494Y-81873372D01*
X157955494Y-81873372D02*
X158009369Y-81873372D01*
X158009369Y-81873372D02*
X158090181Y-81900309D01*
X158090181Y-81900309D02*
X158144056Y-81954184D01*
X158144056Y-81954184D02*
X158197930Y-82061934D01*
X158197930Y-82061934D02*
X158197930Y-82708431D01*
X158197930Y-82708431D02*
X158548117Y-82358245D01*
X158170993Y-81603998D02*
X158548117Y-81226874D01*
X158548117Y-81226874D02*
X158871366Y-82034996D01*
X156877998Y-103260868D02*
X156797185Y-103287805D01*
X156797185Y-103287805D02*
X156716373Y-103368618D01*
X156716373Y-103368618D02*
X156662498Y-103476367D01*
X156662498Y-103476367D02*
X156662498Y-103584117D01*
X156662498Y-103584117D02*
X156689436Y-103664929D01*
X156689436Y-103664929D02*
X156770248Y-103799616D01*
X156770248Y-103799616D02*
X156851060Y-103880428D01*
X156851060Y-103880428D02*
X156985747Y-103961241D01*
X156985747Y-103961241D02*
X157066560Y-103988178D01*
X157066560Y-103988178D02*
X157174309Y-103988178D01*
X157174309Y-103988178D02*
X157282059Y-103934303D01*
X157282059Y-103934303D02*
X157335934Y-103880428D01*
X157335934Y-103880428D02*
X157389808Y-103772679D01*
X157389808Y-103772679D02*
X157389808Y-103718804D01*
X157389808Y-103718804D02*
X157201247Y-103530242D01*
X157201247Y-103530242D02*
X157093497Y-103637992D01*
X157686120Y-103530242D02*
X157120434Y-102964557D01*
X157120434Y-102964557D02*
X157335934Y-102749057D01*
X157335934Y-102749057D02*
X157416746Y-102722120D01*
X157416746Y-102722120D02*
X157470621Y-102722120D01*
X157470621Y-102722120D02*
X157551433Y-102749057D01*
X157551433Y-102749057D02*
X157632245Y-102829870D01*
X157632245Y-102829870D02*
X157659182Y-102910682D01*
X157659182Y-102910682D02*
X157659182Y-102964557D01*
X157659182Y-102964557D02*
X157632245Y-103045369D01*
X157632245Y-103045369D02*
X157416746Y-103260868D01*
X158548117Y-102668245D02*
X158224868Y-102991494D01*
X158386492Y-102829870D02*
X157820807Y-102264184D01*
X157820807Y-102264184D02*
X157847744Y-102398871D01*
X157847744Y-102398871D02*
X157847744Y-102506621D01*
X157847744Y-102506621D02*
X157820807Y-102587433D01*
X158548117Y-102021747D02*
X158467305Y-102048685D01*
X158467305Y-102048685D02*
X158413430Y-102048685D01*
X158413430Y-102048685D02*
X158332618Y-102021747D01*
X158332618Y-102021747D02*
X158305680Y-101994810D01*
X158305680Y-101994810D02*
X158278743Y-101913998D01*
X158278743Y-101913998D02*
X158278743Y-101860123D01*
X158278743Y-101860123D02*
X158305680Y-101779311D01*
X158305680Y-101779311D02*
X158413430Y-101671561D01*
X158413430Y-101671561D02*
X158494242Y-101644624D01*
X158494242Y-101644624D02*
X158548117Y-101644624D01*
X158548117Y-101644624D02*
X158628929Y-101671561D01*
X158628929Y-101671561D02*
X158655866Y-101698499D01*
X158655866Y-101698499D02*
X158682804Y-101779311D01*
X158682804Y-101779311D02*
X158682804Y-101833186D01*
X158682804Y-101833186D02*
X158655866Y-101913998D01*
X158655866Y-101913998D02*
X158548117Y-102021747D01*
X158548117Y-102021747D02*
X158521179Y-102102560D01*
X158521179Y-102102560D02*
X158521179Y-102156434D01*
X158521179Y-102156434D02*
X158548117Y-102237247D01*
X158548117Y-102237247D02*
X158655866Y-102344996D01*
X158655866Y-102344996D02*
X158736679Y-102371934D01*
X158736679Y-102371934D02*
X158790553Y-102371934D01*
X158790553Y-102371934D02*
X158871366Y-102344996D01*
X158871366Y-102344996D02*
X158979115Y-102237247D01*
X158979115Y-102237247D02*
X159006053Y-102156434D01*
X159006053Y-102156434D02*
X159006053Y-102102560D01*
X159006053Y-102102560D02*
X158979115Y-102021747D01*
X158979115Y-102021747D02*
X158871366Y-101913998D01*
X158871366Y-101913998D02*
X158790553Y-101887060D01*
X158790553Y-101887060D02*
X158736679Y-101887060D01*
X158736679Y-101887060D02*
X158655866Y-101913998D01*
X130769998Y-110880868D02*
X130689185Y-110907805D01*
X130689185Y-110907805D02*
X130608373Y-110988618D01*
X130608373Y-110988618D02*
X130554498Y-111096367D01*
X130554498Y-111096367D02*
X130554498Y-111204117D01*
X130554498Y-111204117D02*
X130581436Y-111284929D01*
X130581436Y-111284929D02*
X130662248Y-111419616D01*
X130662248Y-111419616D02*
X130743060Y-111500428D01*
X130743060Y-111500428D02*
X130877747Y-111581241D01*
X130877747Y-111581241D02*
X130958560Y-111608178D01*
X130958560Y-111608178D02*
X131066309Y-111608178D01*
X131066309Y-111608178D02*
X131174059Y-111554303D01*
X131174059Y-111554303D02*
X131227934Y-111500428D01*
X131227934Y-111500428D02*
X131281808Y-111392679D01*
X131281808Y-111392679D02*
X131281808Y-111338804D01*
X131281808Y-111338804D02*
X131093247Y-111150242D01*
X131093247Y-111150242D02*
X130985497Y-111257992D01*
X131578120Y-111150242D02*
X131012434Y-110584557D01*
X131012434Y-110584557D02*
X131227934Y-110369057D01*
X131227934Y-110369057D02*
X131308746Y-110342120D01*
X131308746Y-110342120D02*
X131362621Y-110342120D01*
X131362621Y-110342120D02*
X131443433Y-110369057D01*
X131443433Y-110369057D02*
X131524245Y-110449870D01*
X131524245Y-110449870D02*
X131551182Y-110530682D01*
X131551182Y-110530682D02*
X131551182Y-110584557D01*
X131551182Y-110584557D02*
X131524245Y-110665369D01*
X131524245Y-110665369D02*
X131308746Y-110880868D01*
X132440117Y-110288245D02*
X132116868Y-110611494D01*
X132278492Y-110449870D02*
X131712807Y-109884184D01*
X131712807Y-109884184D02*
X131739744Y-110018871D01*
X131739744Y-110018871D02*
X131739744Y-110126621D01*
X131739744Y-110126621D02*
X131712807Y-110207433D01*
X132386242Y-109210749D02*
X132116868Y-109480123D01*
X132116868Y-109480123D02*
X132359305Y-109776434D01*
X132359305Y-109776434D02*
X132359305Y-109722560D01*
X132359305Y-109722560D02*
X132386242Y-109641747D01*
X132386242Y-109641747D02*
X132520929Y-109507060D01*
X132520929Y-109507060D02*
X132601741Y-109480123D01*
X132601741Y-109480123D02*
X132655616Y-109480123D01*
X132655616Y-109480123D02*
X132736428Y-109507060D01*
X132736428Y-109507060D02*
X132871115Y-109641747D01*
X132871115Y-109641747D02*
X132898053Y-109722560D01*
X132898053Y-109722560D02*
X132898053Y-109776434D01*
X132898053Y-109776434D02*
X132871115Y-109857247D01*
X132871115Y-109857247D02*
X132736428Y-109991934D01*
X132736428Y-109991934D02*
X132655616Y-110018871D01*
X132655616Y-110018871D02*
X132601741Y-110018871D01*
X156733406Y-62887585D02*
X157487653Y-63264709D01*
X157487653Y-63264709D02*
X157110529Y-62510462D01*
X157757027Y-62402712D02*
X157864776Y-62348838D01*
X157864776Y-62348838D02*
X157918651Y-62348838D01*
X157918651Y-62348838D02*
X157999463Y-62375775D01*
X157999463Y-62375775D02*
X158080276Y-62456587D01*
X158080276Y-62456587D02*
X158107213Y-62537399D01*
X158107213Y-62537399D02*
X158107213Y-62591274D01*
X158107213Y-62591274D02*
X158080276Y-62672086D01*
X158080276Y-62672086D02*
X157864776Y-62887586D01*
X157864776Y-62887586D02*
X157299091Y-62321900D01*
X157299091Y-62321900D02*
X157487653Y-62133338D01*
X157487653Y-62133338D02*
X157568465Y-62106401D01*
X157568465Y-62106401D02*
X157622340Y-62106401D01*
X157622340Y-62106401D02*
X157703152Y-62133338D01*
X157703152Y-62133338D02*
X157757027Y-62187213D01*
X157757027Y-62187213D02*
X157783964Y-62268025D01*
X157783964Y-62268025D02*
X157783964Y-62321900D01*
X157783964Y-62321900D02*
X157757027Y-62402712D01*
X157757027Y-62402712D02*
X157568465Y-62591274D01*
X157864776Y-61756215D02*
X158322712Y-62214151D01*
X158322712Y-62214151D02*
X158403524Y-62241088D01*
X158403524Y-62241088D02*
X158457399Y-62241088D01*
X158457399Y-62241088D02*
X158538211Y-62214151D01*
X158538211Y-62214151D02*
X158645961Y-62106401D01*
X158645961Y-62106401D02*
X158672898Y-62025589D01*
X158672898Y-62025589D02*
X158672898Y-61971714D01*
X158672898Y-61971714D02*
X158645961Y-61890902D01*
X158645961Y-61890902D02*
X158188025Y-61432966D01*
X158969210Y-61729277D02*
X159076959Y-61675403D01*
X159076959Y-61675403D02*
X159211646Y-61540716D01*
X159211646Y-61540716D02*
X159238584Y-61459903D01*
X159238584Y-61459903D02*
X159238584Y-61406029D01*
X159238584Y-61406029D02*
X159211646Y-61325216D01*
X159211646Y-61325216D02*
X159157771Y-61271342D01*
X159157771Y-61271342D02*
X159076959Y-61244404D01*
X159076959Y-61244404D02*
X159023084Y-61244404D01*
X159023084Y-61244404D02*
X158942272Y-61271342D01*
X158942272Y-61271342D02*
X158807585Y-61352154D01*
X158807585Y-61352154D02*
X158726773Y-61379091D01*
X158726773Y-61379091D02*
X158672898Y-61379091D01*
X158672898Y-61379091D02*
X158592086Y-61352154D01*
X158592086Y-61352154D02*
X158538211Y-61298279D01*
X158538211Y-61298279D02*
X158511274Y-61217467D01*
X158511274Y-61217467D02*
X158511274Y-61163592D01*
X158511274Y-61163592D02*
X158538211Y-61082780D01*
X158538211Y-61082780D02*
X158672898Y-60948093D01*
X158672898Y-60948093D02*
X158780648Y-60894218D01*
X131293372Y-72511494D02*
X131212560Y-72538431D01*
X131212560Y-72538431D02*
X131131748Y-72619243D01*
X131131748Y-72619243D02*
X131077873Y-72726993D01*
X131077873Y-72726993D02*
X131077873Y-72834742D01*
X131077873Y-72834742D02*
X131104810Y-72915555D01*
X131104810Y-72915555D02*
X131185623Y-73050242D01*
X131185623Y-73050242D02*
X131266435Y-73131054D01*
X131266435Y-73131054D02*
X131401122Y-73211866D01*
X131401122Y-73211866D02*
X131481934Y-73238803D01*
X131481934Y-73238803D02*
X131589684Y-73238803D01*
X131589684Y-73238803D02*
X131697433Y-73184929D01*
X131697433Y-73184929D02*
X131751308Y-73131054D01*
X131751308Y-73131054D02*
X131805183Y-73023304D01*
X131805183Y-73023304D02*
X131805183Y-72969429D01*
X131805183Y-72969429D02*
X131616621Y-72780868D01*
X131616621Y-72780868D02*
X131508871Y-72888617D01*
X132101494Y-72780868D02*
X131535809Y-72215182D01*
X131535809Y-72215182D02*
X131751308Y-71999683D01*
X131751308Y-71999683D02*
X131832120Y-71972746D01*
X131832120Y-71972746D02*
X131885995Y-71972746D01*
X131885995Y-71972746D02*
X131966807Y-71999683D01*
X131966807Y-71999683D02*
X132047619Y-72080495D01*
X132047619Y-72080495D02*
X132074557Y-72161307D01*
X132074557Y-72161307D02*
X132074557Y-72215182D01*
X132074557Y-72215182D02*
X132047619Y-72295994D01*
X132047619Y-72295994D02*
X131832120Y-72511494D01*
X132047619Y-71703372D02*
X132397806Y-71353185D01*
X132397806Y-71353185D02*
X132424743Y-71757246D01*
X132424743Y-71757246D02*
X132505555Y-71676434D01*
X132505555Y-71676434D02*
X132586367Y-71649497D01*
X132586367Y-71649497D02*
X132640242Y-71649497D01*
X132640242Y-71649497D02*
X132721054Y-71676434D01*
X132721054Y-71676434D02*
X132855741Y-71811121D01*
X132855741Y-71811121D02*
X132882679Y-71891933D01*
X132882679Y-71891933D02*
X132882679Y-71945808D01*
X132882679Y-71945808D02*
X132855741Y-72026620D01*
X132855741Y-72026620D02*
X132694117Y-72188245D01*
X132694117Y-72188245D02*
X132613305Y-72215182D01*
X132613305Y-72215182D02*
X132559430Y-72215182D01*
X156866435Y-67458431D02*
X156785623Y-67485368D01*
X156785623Y-67485368D02*
X156704811Y-67566180D01*
X156704811Y-67566180D02*
X156650936Y-67673930D01*
X156650936Y-67673930D02*
X156650936Y-67781680D01*
X156650936Y-67781680D02*
X156677873Y-67862492D01*
X156677873Y-67862492D02*
X156758685Y-67997179D01*
X156758685Y-67997179D02*
X156839498Y-68077991D01*
X156839498Y-68077991D02*
X156974185Y-68158803D01*
X156974185Y-68158803D02*
X157054997Y-68185741D01*
X157054997Y-68185741D02*
X157162746Y-68185741D01*
X157162746Y-68185741D02*
X157270496Y-68131866D01*
X157270496Y-68131866D02*
X157324371Y-68077991D01*
X157324371Y-68077991D02*
X157378246Y-67970241D01*
X157378246Y-67970241D02*
X157378246Y-67916367D01*
X157378246Y-67916367D02*
X157189684Y-67727805D01*
X157189684Y-67727805D02*
X157081934Y-67835554D01*
X157674557Y-67727805D02*
X157108872Y-67162119D01*
X157108872Y-67162119D02*
X157997806Y-67404556D01*
X157997806Y-67404556D02*
X157432120Y-66838871D01*
X158267180Y-67135182D02*
X157701494Y-66569497D01*
X157701494Y-66569497D02*
X157836181Y-66434810D01*
X157836181Y-66434810D02*
X157943931Y-66380935D01*
X157943931Y-66380935D02*
X158051680Y-66380935D01*
X158051680Y-66380935D02*
X158132493Y-66407872D01*
X158132493Y-66407872D02*
X158267180Y-66488685D01*
X158267180Y-66488685D02*
X158347992Y-66569497D01*
X158347992Y-66569497D02*
X158428804Y-66704184D01*
X158428804Y-66704184D02*
X158455741Y-66784996D01*
X158455741Y-66784996D02*
X158455741Y-66892746D01*
X158455741Y-66892746D02*
X158401867Y-67000495D01*
X158401867Y-67000495D02*
X158267180Y-67135182D01*
X156877998Y-95650868D02*
X156797185Y-95677805D01*
X156797185Y-95677805D02*
X156716373Y-95758618D01*
X156716373Y-95758618D02*
X156662498Y-95866367D01*
X156662498Y-95866367D02*
X156662498Y-95974117D01*
X156662498Y-95974117D02*
X156689436Y-96054929D01*
X156689436Y-96054929D02*
X156770248Y-96189616D01*
X156770248Y-96189616D02*
X156851060Y-96270428D01*
X156851060Y-96270428D02*
X156985747Y-96351241D01*
X156985747Y-96351241D02*
X157066560Y-96378178D01*
X157066560Y-96378178D02*
X157174309Y-96378178D01*
X157174309Y-96378178D02*
X157282059Y-96324303D01*
X157282059Y-96324303D02*
X157335934Y-96270428D01*
X157335934Y-96270428D02*
X157389808Y-96162679D01*
X157389808Y-96162679D02*
X157389808Y-96108804D01*
X157389808Y-96108804D02*
X157201247Y-95920242D01*
X157201247Y-95920242D02*
X157093497Y-96027992D01*
X157686120Y-95920242D02*
X157120434Y-95354557D01*
X157120434Y-95354557D02*
X157335934Y-95139057D01*
X157335934Y-95139057D02*
X157416746Y-95112120D01*
X157416746Y-95112120D02*
X157470621Y-95112120D01*
X157470621Y-95112120D02*
X157551433Y-95139057D01*
X157551433Y-95139057D02*
X157632245Y-95219870D01*
X157632245Y-95219870D02*
X157659182Y-95300682D01*
X157659182Y-95300682D02*
X157659182Y-95354557D01*
X157659182Y-95354557D02*
X157632245Y-95435369D01*
X157632245Y-95435369D02*
X157416746Y-95650868D01*
X157713057Y-94869683D02*
X157713057Y-94815809D01*
X157713057Y-94815809D02*
X157739995Y-94734996D01*
X157739995Y-94734996D02*
X157874682Y-94600309D01*
X157874682Y-94600309D02*
X157955494Y-94573372D01*
X157955494Y-94573372D02*
X158009369Y-94573372D01*
X158009369Y-94573372D02*
X158090181Y-94600309D01*
X158090181Y-94600309D02*
X158144056Y-94654184D01*
X158144056Y-94654184D02*
X158197930Y-94761934D01*
X158197930Y-94761934D02*
X158197930Y-95408431D01*
X158197930Y-95408431D02*
X158548117Y-95058245D01*
X159086865Y-94519497D02*
X158763616Y-94842746D01*
X158925240Y-94681121D02*
X158359555Y-94115436D01*
X158359555Y-94115436D02*
X158386492Y-94250123D01*
X158386492Y-94250123D02*
X158386492Y-94357873D01*
X158386492Y-94357873D02*
X158359555Y-94438685D01*
X156866435Y-92858431D02*
X156785623Y-92885368D01*
X156785623Y-92885368D02*
X156704811Y-92966180D01*
X156704811Y-92966180D02*
X156650936Y-93073930D01*
X156650936Y-93073930D02*
X156650936Y-93181680D01*
X156650936Y-93181680D02*
X156677873Y-93262492D01*
X156677873Y-93262492D02*
X156758685Y-93397179D01*
X156758685Y-93397179D02*
X156839498Y-93477991D01*
X156839498Y-93477991D02*
X156974185Y-93558803D01*
X156974185Y-93558803D02*
X157054997Y-93585741D01*
X157054997Y-93585741D02*
X157162746Y-93585741D01*
X157162746Y-93585741D02*
X157270496Y-93531866D01*
X157270496Y-93531866D02*
X157324371Y-93477991D01*
X157324371Y-93477991D02*
X157378246Y-93370241D01*
X157378246Y-93370241D02*
X157378246Y-93316367D01*
X157378246Y-93316367D02*
X157189684Y-93127805D01*
X157189684Y-93127805D02*
X157081934Y-93235554D01*
X157674557Y-93127805D02*
X157108872Y-92562119D01*
X157108872Y-92562119D02*
X157997806Y-92804556D01*
X157997806Y-92804556D02*
X157432120Y-92238871D01*
X158267180Y-92535182D02*
X157701494Y-91969497D01*
X157701494Y-91969497D02*
X157836181Y-91834810D01*
X157836181Y-91834810D02*
X157943931Y-91780935D01*
X157943931Y-91780935D02*
X158051680Y-91780935D01*
X158051680Y-91780935D02*
X158132493Y-91807872D01*
X158132493Y-91807872D02*
X158267180Y-91888685D01*
X158267180Y-91888685D02*
X158347992Y-91969497D01*
X158347992Y-91969497D02*
X158428804Y-92104184D01*
X158428804Y-92104184D02*
X158455741Y-92184996D01*
X158455741Y-92184996D02*
X158455741Y-92292746D01*
X158455741Y-92292746D02*
X158401867Y-92400495D01*
X158401867Y-92400495D02*
X158267180Y-92535182D01*
X148684761Y-112884200D02*
X148799047Y-112922295D01*
X148799047Y-112922295D02*
X148989523Y-112922295D01*
X148989523Y-112922295D02*
X149065714Y-112884200D01*
X149065714Y-112884200D02*
X149103809Y-112846104D01*
X149103809Y-112846104D02*
X149141904Y-112769914D01*
X149141904Y-112769914D02*
X149141904Y-112693723D01*
X149141904Y-112693723D02*
X149103809Y-112617533D01*
X149103809Y-112617533D02*
X149065714Y-112579438D01*
X149065714Y-112579438D02*
X148989523Y-112541342D01*
X148989523Y-112541342D02*
X148837142Y-112503247D01*
X148837142Y-112503247D02*
X148760952Y-112465152D01*
X148760952Y-112465152D02*
X148722857Y-112427057D01*
X148722857Y-112427057D02*
X148684761Y-112350866D01*
X148684761Y-112350866D02*
X148684761Y-112274676D01*
X148684761Y-112274676D02*
X148722857Y-112198485D01*
X148722857Y-112198485D02*
X148760952Y-112160390D01*
X148760952Y-112160390D02*
X148837142Y-112122295D01*
X148837142Y-112122295D02*
X149027619Y-112122295D01*
X149027619Y-112122295D02*
X149141904Y-112160390D01*
X149408571Y-112122295D02*
X149599047Y-112922295D01*
X149599047Y-112922295D02*
X149751428Y-112350866D01*
X149751428Y-112350866D02*
X149903809Y-112922295D01*
X149903809Y-112922295D02*
X150094286Y-112122295D01*
X150399048Y-112922295D02*
X150399048Y-112122295D01*
X150399048Y-112122295D02*
X150589524Y-112122295D01*
X150589524Y-112122295D02*
X150703810Y-112160390D01*
X150703810Y-112160390D02*
X150780000Y-112236580D01*
X150780000Y-112236580D02*
X150818095Y-112312771D01*
X150818095Y-112312771D02*
X150856191Y-112465152D01*
X150856191Y-112465152D02*
X150856191Y-112579438D01*
X150856191Y-112579438D02*
X150818095Y-112731819D01*
X150818095Y-112731819D02*
X150780000Y-112808009D01*
X150780000Y-112808009D02*
X150703810Y-112884200D01*
X150703810Y-112884200D02*
X150589524Y-112922295D01*
X150589524Y-112922295D02*
X150399048Y-112922295D01*
X151199048Y-112922295D02*
X151199048Y-112122295D01*
X151732381Y-112122295D02*
X151884762Y-112122295D01*
X151884762Y-112122295D02*
X151960952Y-112160390D01*
X151960952Y-112160390D02*
X152037143Y-112236580D01*
X152037143Y-112236580D02*
X152075238Y-112388961D01*
X152075238Y-112388961D02*
X152075238Y-112655628D01*
X152075238Y-112655628D02*
X152037143Y-112808009D01*
X152037143Y-112808009D02*
X151960952Y-112884200D01*
X151960952Y-112884200D02*
X151884762Y-112922295D01*
X151884762Y-112922295D02*
X151732381Y-112922295D01*
X151732381Y-112922295D02*
X151656190Y-112884200D01*
X151656190Y-112884200D02*
X151580000Y-112808009D01*
X151580000Y-112808009D02*
X151541904Y-112655628D01*
X151541904Y-112655628D02*
X151541904Y-112388961D01*
X151541904Y-112388961D02*
X151580000Y-112236580D01*
X151580000Y-112236580D02*
X151656190Y-112160390D01*
X151656190Y-112160390D02*
X151732381Y-112122295D01*
X156877998Y-100720868D02*
X156797185Y-100747805D01*
X156797185Y-100747805D02*
X156716373Y-100828618D01*
X156716373Y-100828618D02*
X156662498Y-100936367D01*
X156662498Y-100936367D02*
X156662498Y-101044117D01*
X156662498Y-101044117D02*
X156689436Y-101124929D01*
X156689436Y-101124929D02*
X156770248Y-101259616D01*
X156770248Y-101259616D02*
X156851060Y-101340428D01*
X156851060Y-101340428D02*
X156985747Y-101421241D01*
X156985747Y-101421241D02*
X157066560Y-101448178D01*
X157066560Y-101448178D02*
X157174309Y-101448178D01*
X157174309Y-101448178D02*
X157282059Y-101394303D01*
X157282059Y-101394303D02*
X157335934Y-101340428D01*
X157335934Y-101340428D02*
X157389808Y-101232679D01*
X157389808Y-101232679D02*
X157389808Y-101178804D01*
X157389808Y-101178804D02*
X157201247Y-100990242D01*
X157201247Y-100990242D02*
X157093497Y-101097992D01*
X157686120Y-100990242D02*
X157120434Y-100424557D01*
X157120434Y-100424557D02*
X157335934Y-100209057D01*
X157335934Y-100209057D02*
X157416746Y-100182120D01*
X157416746Y-100182120D02*
X157470621Y-100182120D01*
X157470621Y-100182120D02*
X157551433Y-100209057D01*
X157551433Y-100209057D02*
X157632245Y-100289870D01*
X157632245Y-100289870D02*
X157659182Y-100370682D01*
X157659182Y-100370682D02*
X157659182Y-100424557D01*
X157659182Y-100424557D02*
X157632245Y-100505369D01*
X157632245Y-100505369D02*
X157416746Y-100720868D01*
X158548117Y-100128245D02*
X158224868Y-100451494D01*
X158386492Y-100289870D02*
X157820807Y-99724184D01*
X157820807Y-99724184D02*
X157847744Y-99858871D01*
X157847744Y-99858871D02*
X157847744Y-99966621D01*
X157847744Y-99966621D02*
X157820807Y-100047433D01*
X158817491Y-99858871D02*
X158925240Y-99751121D01*
X158925240Y-99751121D02*
X158952178Y-99670309D01*
X158952178Y-99670309D02*
X158952178Y-99616434D01*
X158952178Y-99616434D02*
X158925240Y-99481747D01*
X158925240Y-99481747D02*
X158844428Y-99347060D01*
X158844428Y-99347060D02*
X158628929Y-99131561D01*
X158628929Y-99131561D02*
X158548117Y-99104624D01*
X158548117Y-99104624D02*
X158494242Y-99104624D01*
X158494242Y-99104624D02*
X158413430Y-99131561D01*
X158413430Y-99131561D02*
X158305680Y-99239311D01*
X158305680Y-99239311D02*
X158278743Y-99320123D01*
X158278743Y-99320123D02*
X158278743Y-99373998D01*
X158278743Y-99373998D02*
X158305680Y-99454810D01*
X158305680Y-99454810D02*
X158440367Y-99589497D01*
X158440367Y-99589497D02*
X158521179Y-99616434D01*
X158521179Y-99616434D02*
X158575054Y-99616434D01*
X158575054Y-99616434D02*
X158655866Y-99589497D01*
X158655866Y-99589497D02*
X158763616Y-99481747D01*
X158763616Y-99481747D02*
X158790553Y-99400935D01*
X158790553Y-99400935D02*
X158790553Y-99347060D01*
X158790553Y-99347060D02*
X158763616Y-99266248D01*
X156877998Y-85480868D02*
X156797185Y-85507805D01*
X156797185Y-85507805D02*
X156716373Y-85588618D01*
X156716373Y-85588618D02*
X156662498Y-85696367D01*
X156662498Y-85696367D02*
X156662498Y-85804117D01*
X156662498Y-85804117D02*
X156689436Y-85884929D01*
X156689436Y-85884929D02*
X156770248Y-86019616D01*
X156770248Y-86019616D02*
X156851060Y-86100428D01*
X156851060Y-86100428D02*
X156985747Y-86181241D01*
X156985747Y-86181241D02*
X157066560Y-86208178D01*
X157066560Y-86208178D02*
X157174309Y-86208178D01*
X157174309Y-86208178D02*
X157282059Y-86154303D01*
X157282059Y-86154303D02*
X157335934Y-86100428D01*
X157335934Y-86100428D02*
X157389808Y-85992679D01*
X157389808Y-85992679D02*
X157389808Y-85938804D01*
X157389808Y-85938804D02*
X157201247Y-85750242D01*
X157201247Y-85750242D02*
X157093497Y-85857992D01*
X157686120Y-85750242D02*
X157120434Y-85184557D01*
X157120434Y-85184557D02*
X157335934Y-84969057D01*
X157335934Y-84969057D02*
X157416746Y-84942120D01*
X157416746Y-84942120D02*
X157470621Y-84942120D01*
X157470621Y-84942120D02*
X157551433Y-84969057D01*
X157551433Y-84969057D02*
X157632245Y-85049870D01*
X157632245Y-85049870D02*
X157659182Y-85130682D01*
X157659182Y-85130682D02*
X157659182Y-85184557D01*
X157659182Y-85184557D02*
X157632245Y-85265369D01*
X157632245Y-85265369D02*
X157416746Y-85480868D01*
X157713057Y-84699683D02*
X157713057Y-84645809D01*
X157713057Y-84645809D02*
X157739995Y-84564996D01*
X157739995Y-84564996D02*
X157874682Y-84430309D01*
X157874682Y-84430309D02*
X157955494Y-84403372D01*
X157955494Y-84403372D02*
X158009369Y-84403372D01*
X158009369Y-84403372D02*
X158090181Y-84430309D01*
X158090181Y-84430309D02*
X158144056Y-84484184D01*
X158144056Y-84484184D02*
X158197930Y-84591934D01*
X158197930Y-84591934D02*
X158197930Y-85238431D01*
X158197930Y-85238431D02*
X158548117Y-84888245D01*
X158467305Y-83837686D02*
X158359555Y-83945436D01*
X158359555Y-83945436D02*
X158332618Y-84026248D01*
X158332618Y-84026248D02*
X158332618Y-84080123D01*
X158332618Y-84080123D02*
X158359555Y-84214810D01*
X158359555Y-84214810D02*
X158440367Y-84349497D01*
X158440367Y-84349497D02*
X158655866Y-84564996D01*
X158655866Y-84564996D02*
X158736679Y-84591934D01*
X158736679Y-84591934D02*
X158790553Y-84591934D01*
X158790553Y-84591934D02*
X158871366Y-84564996D01*
X158871366Y-84564996D02*
X158979115Y-84457247D01*
X158979115Y-84457247D02*
X159006053Y-84376434D01*
X159006053Y-84376434D02*
X159006053Y-84322560D01*
X159006053Y-84322560D02*
X158979115Y-84241747D01*
X158979115Y-84241747D02*
X158844428Y-84107060D01*
X158844428Y-84107060D02*
X158763616Y-84080123D01*
X158763616Y-84080123D02*
X158709741Y-84080123D01*
X158709741Y-84080123D02*
X158628929Y-84107060D01*
X158628929Y-84107060D02*
X158521179Y-84214810D01*
X158521179Y-84214810D02*
X158494242Y-84295622D01*
X158494242Y-84295622D02*
X158494242Y-84349497D01*
X158494242Y-84349497D02*
X158521179Y-84430309D01*
X157618651Y-88303710D02*
X157160716Y-88222898D01*
X157295403Y-88626959D02*
X156729717Y-88061274D01*
X156729717Y-88061274D02*
X156945216Y-87845775D01*
X156945216Y-87845775D02*
X157026029Y-87818837D01*
X157026029Y-87818837D02*
X157079903Y-87818837D01*
X157079903Y-87818837D02*
X157160716Y-87845775D01*
X157160716Y-87845775D02*
X157241528Y-87926587D01*
X157241528Y-87926587D02*
X157268465Y-88007399D01*
X157268465Y-88007399D02*
X157268465Y-88061274D01*
X157268465Y-88061274D02*
X157241528Y-88142086D01*
X157241528Y-88142086D02*
X157026029Y-88357585D01*
X157295403Y-87495588D02*
X157753338Y-87953524D01*
X157753338Y-87953524D02*
X157834151Y-87980462D01*
X157834151Y-87980462D02*
X157888025Y-87980462D01*
X157888025Y-87980462D02*
X157968838Y-87953524D01*
X157968838Y-87953524D02*
X158076587Y-87845775D01*
X158076587Y-87845775D02*
X158103525Y-87764962D01*
X158103525Y-87764962D02*
X158103525Y-87711088D01*
X158103525Y-87711088D02*
X158076587Y-87630275D01*
X158076587Y-87630275D02*
X157618651Y-87172340D01*
X158453711Y-87468651D02*
X157888025Y-86902966D01*
X157888025Y-86902966D02*
X158776959Y-87145402D01*
X158776959Y-87145402D02*
X158211274Y-86579717D01*
X130769998Y-95640868D02*
X130689185Y-95667805D01*
X130689185Y-95667805D02*
X130608373Y-95748618D01*
X130608373Y-95748618D02*
X130554498Y-95856367D01*
X130554498Y-95856367D02*
X130554498Y-95964117D01*
X130554498Y-95964117D02*
X130581436Y-96044929D01*
X130581436Y-96044929D02*
X130662248Y-96179616D01*
X130662248Y-96179616D02*
X130743060Y-96260428D01*
X130743060Y-96260428D02*
X130877747Y-96341241D01*
X130877747Y-96341241D02*
X130958560Y-96368178D01*
X130958560Y-96368178D02*
X131066309Y-96368178D01*
X131066309Y-96368178D02*
X131174059Y-96314303D01*
X131174059Y-96314303D02*
X131227934Y-96260428D01*
X131227934Y-96260428D02*
X131281808Y-96152679D01*
X131281808Y-96152679D02*
X131281808Y-96098804D01*
X131281808Y-96098804D02*
X131093247Y-95910242D01*
X131093247Y-95910242D02*
X130985497Y-96017992D01*
X131578120Y-95910242D02*
X131012434Y-95344557D01*
X131012434Y-95344557D02*
X131227934Y-95129057D01*
X131227934Y-95129057D02*
X131308746Y-95102120D01*
X131308746Y-95102120D02*
X131362621Y-95102120D01*
X131362621Y-95102120D02*
X131443433Y-95129057D01*
X131443433Y-95129057D02*
X131524245Y-95209870D01*
X131524245Y-95209870D02*
X131551182Y-95290682D01*
X131551182Y-95290682D02*
X131551182Y-95344557D01*
X131551182Y-95344557D02*
X131524245Y-95425369D01*
X131524245Y-95425369D02*
X131308746Y-95640868D01*
X132440117Y-95048245D02*
X132116868Y-95371494D01*
X132278492Y-95209870D02*
X131712807Y-94644184D01*
X131712807Y-94644184D02*
X131739744Y-94778871D01*
X131739744Y-94778871D02*
X131739744Y-94886621D01*
X131739744Y-94886621D02*
X131712807Y-94967433D01*
X132224618Y-94132373D02*
X132278492Y-94078499D01*
X132278492Y-94078499D02*
X132359305Y-94051561D01*
X132359305Y-94051561D02*
X132413179Y-94051561D01*
X132413179Y-94051561D02*
X132493992Y-94078499D01*
X132493992Y-94078499D02*
X132628679Y-94159311D01*
X132628679Y-94159311D02*
X132763366Y-94293998D01*
X132763366Y-94293998D02*
X132844178Y-94428685D01*
X132844178Y-94428685D02*
X132871115Y-94509497D01*
X132871115Y-94509497D02*
X132871115Y-94563372D01*
X132871115Y-94563372D02*
X132844178Y-94644184D01*
X132844178Y-94644184D02*
X132790303Y-94698059D01*
X132790303Y-94698059D02*
X132709491Y-94724996D01*
X132709491Y-94724996D02*
X132655616Y-94724996D01*
X132655616Y-94724996D02*
X132574804Y-94698059D01*
X132574804Y-94698059D02*
X132440117Y-94617247D01*
X132440117Y-94617247D02*
X132305430Y-94482560D01*
X132305430Y-94482560D02*
X132224618Y-94347873D01*
X132224618Y-94347873D02*
X132197680Y-94267060D01*
X132197680Y-94267060D02*
X132197680Y-94213186D01*
X132197680Y-94213186D02*
X132224618Y-94132373D01*
X156702407Y-70318584D02*
X157052593Y-69968398D01*
X157052593Y-69968398D02*
X157079531Y-70372459D01*
X157079531Y-70372459D02*
X157160343Y-70291646D01*
X157160343Y-70291646D02*
X157241155Y-70264709D01*
X157241155Y-70264709D02*
X157295030Y-70264709D01*
X157295030Y-70264709D02*
X157375842Y-70291646D01*
X157375842Y-70291646D02*
X157510529Y-70426333D01*
X157510529Y-70426333D02*
X157537467Y-70507146D01*
X157537467Y-70507146D02*
X157537467Y-70561020D01*
X157537467Y-70561020D02*
X157510529Y-70641833D01*
X157510529Y-70641833D02*
X157348905Y-70803457D01*
X157348905Y-70803457D02*
X157268093Y-70830394D01*
X157268093Y-70830394D02*
X157214218Y-70830394D01*
X157214218Y-69806773D02*
X157968465Y-70183897D01*
X157968465Y-70183897D02*
X157591342Y-69429649D01*
X157726028Y-69294963D02*
X158076215Y-68944776D01*
X158076215Y-68944776D02*
X158103152Y-69348837D01*
X158103152Y-69348837D02*
X158183964Y-69268025D01*
X158183964Y-69268025D02*
X158264776Y-69241088D01*
X158264776Y-69241088D02*
X158318651Y-69241088D01*
X158318651Y-69241088D02*
X158399464Y-69268025D01*
X158399464Y-69268025D02*
X158534151Y-69402712D01*
X158534151Y-69402712D02*
X158561088Y-69483524D01*
X158561088Y-69483524D02*
X158561088Y-69537399D01*
X158561088Y-69537399D02*
X158534151Y-69618211D01*
X158534151Y-69618211D02*
X158372526Y-69779836D01*
X158372526Y-69779836D02*
X158291714Y-69806773D01*
X158291714Y-69806773D02*
X158237839Y-69806773D01*
X158803525Y-69456587D02*
X159234523Y-69025588D01*
X159019024Y-68540715D02*
X159207586Y-68352153D01*
X159584709Y-68567652D02*
X159315335Y-68837026D01*
X159315335Y-68837026D02*
X158749650Y-68271341D01*
X158749650Y-68271341D02*
X159019024Y-68001967D01*
X159827146Y-68325215D02*
X159261461Y-67759530D01*
X159261461Y-67759530D02*
X160150395Y-68001967D01*
X160150395Y-68001967D02*
X159584710Y-67436281D01*
X156877998Y-108340868D02*
X156797185Y-108367805D01*
X156797185Y-108367805D02*
X156716373Y-108448618D01*
X156716373Y-108448618D02*
X156662498Y-108556367D01*
X156662498Y-108556367D02*
X156662498Y-108664117D01*
X156662498Y-108664117D02*
X156689436Y-108744929D01*
X156689436Y-108744929D02*
X156770248Y-108879616D01*
X156770248Y-108879616D02*
X156851060Y-108960428D01*
X156851060Y-108960428D02*
X156985747Y-109041241D01*
X156985747Y-109041241D02*
X157066560Y-109068178D01*
X157066560Y-109068178D02*
X157174309Y-109068178D01*
X157174309Y-109068178D02*
X157282059Y-109014303D01*
X157282059Y-109014303D02*
X157335934Y-108960428D01*
X157335934Y-108960428D02*
X157389808Y-108852679D01*
X157389808Y-108852679D02*
X157389808Y-108798804D01*
X157389808Y-108798804D02*
X157201247Y-108610242D01*
X157201247Y-108610242D02*
X157093497Y-108717992D01*
X157686120Y-108610242D02*
X157120434Y-108044557D01*
X157120434Y-108044557D02*
X157335934Y-107829057D01*
X157335934Y-107829057D02*
X157416746Y-107802120D01*
X157416746Y-107802120D02*
X157470621Y-107802120D01*
X157470621Y-107802120D02*
X157551433Y-107829057D01*
X157551433Y-107829057D02*
X157632245Y-107909870D01*
X157632245Y-107909870D02*
X157659182Y-107990682D01*
X157659182Y-107990682D02*
X157659182Y-108044557D01*
X157659182Y-108044557D02*
X157632245Y-108125369D01*
X157632245Y-108125369D02*
X157416746Y-108340868D01*
X158548117Y-107748245D02*
X158224868Y-108071494D01*
X158386492Y-107909870D02*
X157820807Y-107344184D01*
X157820807Y-107344184D02*
X157847744Y-107478871D01*
X157847744Y-107478871D02*
X157847744Y-107586621D01*
X157847744Y-107586621D02*
X157820807Y-107667433D01*
X158170993Y-106993998D02*
X158548117Y-106616874D01*
X158548117Y-106616874D02*
X158871366Y-107424996D01*
X131193372Y-64881494D02*
X131112560Y-64908431D01*
X131112560Y-64908431D02*
X131031748Y-64989243D01*
X131031748Y-64989243D02*
X130977873Y-65096993D01*
X130977873Y-65096993D02*
X130977873Y-65204742D01*
X130977873Y-65204742D02*
X131004810Y-65285555D01*
X131004810Y-65285555D02*
X131085623Y-65420242D01*
X131085623Y-65420242D02*
X131166435Y-65501054D01*
X131166435Y-65501054D02*
X131301122Y-65581866D01*
X131301122Y-65581866D02*
X131381934Y-65608803D01*
X131381934Y-65608803D02*
X131489684Y-65608803D01*
X131489684Y-65608803D02*
X131597433Y-65554929D01*
X131597433Y-65554929D02*
X131651308Y-65501054D01*
X131651308Y-65501054D02*
X131705183Y-65393304D01*
X131705183Y-65393304D02*
X131705183Y-65339429D01*
X131705183Y-65339429D02*
X131516621Y-65150868D01*
X131516621Y-65150868D02*
X131408871Y-65258617D01*
X132001494Y-65150868D02*
X131435809Y-64585182D01*
X131435809Y-64585182D02*
X131651308Y-64369683D01*
X131651308Y-64369683D02*
X131732120Y-64342746D01*
X131732120Y-64342746D02*
X131785995Y-64342746D01*
X131785995Y-64342746D02*
X131866807Y-64369683D01*
X131866807Y-64369683D02*
X131947619Y-64450495D01*
X131947619Y-64450495D02*
X131974557Y-64531307D01*
X131974557Y-64531307D02*
X131974557Y-64585182D01*
X131974557Y-64585182D02*
X131947619Y-64665994D01*
X131947619Y-64665994D02*
X131732120Y-64881494D01*
X132863491Y-64288871D02*
X132540242Y-64612120D01*
X132701867Y-64450495D02*
X132136181Y-63884810D01*
X132136181Y-63884810D02*
X132163119Y-64019497D01*
X132163119Y-64019497D02*
X132163119Y-64127246D01*
X132163119Y-64127246D02*
X132136181Y-64208059D01*
X156877998Y-110880868D02*
X156797185Y-110907805D01*
X156797185Y-110907805D02*
X156716373Y-110988618D01*
X156716373Y-110988618D02*
X156662498Y-111096367D01*
X156662498Y-111096367D02*
X156662498Y-111204117D01*
X156662498Y-111204117D02*
X156689436Y-111284929D01*
X156689436Y-111284929D02*
X156770248Y-111419616D01*
X156770248Y-111419616D02*
X156851060Y-111500428D01*
X156851060Y-111500428D02*
X156985747Y-111581241D01*
X156985747Y-111581241D02*
X157066560Y-111608178D01*
X157066560Y-111608178D02*
X157174309Y-111608178D01*
X157174309Y-111608178D02*
X157282059Y-111554303D01*
X157282059Y-111554303D02*
X157335934Y-111500428D01*
X157335934Y-111500428D02*
X157389808Y-111392679D01*
X157389808Y-111392679D02*
X157389808Y-111338804D01*
X157389808Y-111338804D02*
X157201247Y-111150242D01*
X157201247Y-111150242D02*
X157093497Y-111257992D01*
X157686120Y-111150242D02*
X157120434Y-110584557D01*
X157120434Y-110584557D02*
X157335934Y-110369057D01*
X157335934Y-110369057D02*
X157416746Y-110342120D01*
X157416746Y-110342120D02*
X157470621Y-110342120D01*
X157470621Y-110342120D02*
X157551433Y-110369057D01*
X157551433Y-110369057D02*
X157632245Y-110449870D01*
X157632245Y-110449870D02*
X157659182Y-110530682D01*
X157659182Y-110530682D02*
X157659182Y-110584557D01*
X157659182Y-110584557D02*
X157632245Y-110665369D01*
X157632245Y-110665369D02*
X157416746Y-110880868D01*
X158548117Y-110288245D02*
X158224868Y-110611494D01*
X158386492Y-110449870D02*
X157820807Y-109884184D01*
X157820807Y-109884184D02*
X157847744Y-110018871D01*
X157847744Y-110018871D02*
X157847744Y-110126621D01*
X157847744Y-110126621D02*
X157820807Y-110207433D01*
X158467305Y-109237686D02*
X158359555Y-109345436D01*
X158359555Y-109345436D02*
X158332618Y-109426248D01*
X158332618Y-109426248D02*
X158332618Y-109480123D01*
X158332618Y-109480123D02*
X158359555Y-109614810D01*
X158359555Y-109614810D02*
X158440367Y-109749497D01*
X158440367Y-109749497D02*
X158655866Y-109964996D01*
X158655866Y-109964996D02*
X158736679Y-109991934D01*
X158736679Y-109991934D02*
X158790553Y-109991934D01*
X158790553Y-109991934D02*
X158871366Y-109964996D01*
X158871366Y-109964996D02*
X158979115Y-109857247D01*
X158979115Y-109857247D02*
X159006053Y-109776434D01*
X159006053Y-109776434D02*
X159006053Y-109722560D01*
X159006053Y-109722560D02*
X158979115Y-109641747D01*
X158979115Y-109641747D02*
X158844428Y-109507060D01*
X158844428Y-109507060D02*
X158763616Y-109480123D01*
X158763616Y-109480123D02*
X158709741Y-109480123D01*
X158709741Y-109480123D02*
X158628929Y-109507060D01*
X158628929Y-109507060D02*
X158521179Y-109614810D01*
X158521179Y-109614810D02*
X158494242Y-109695622D01*
X158494242Y-109695622D02*
X158494242Y-109749497D01*
X158494242Y-109749497D02*
X158521179Y-109830309D01*
X130623998Y-98180868D02*
X130543185Y-98207805D01*
X130543185Y-98207805D02*
X130462373Y-98288618D01*
X130462373Y-98288618D02*
X130408498Y-98396367D01*
X130408498Y-98396367D02*
X130408498Y-98504117D01*
X130408498Y-98504117D02*
X130435436Y-98584929D01*
X130435436Y-98584929D02*
X130516248Y-98719616D01*
X130516248Y-98719616D02*
X130597060Y-98800428D01*
X130597060Y-98800428D02*
X130731747Y-98881241D01*
X130731747Y-98881241D02*
X130812560Y-98908178D01*
X130812560Y-98908178D02*
X130920309Y-98908178D01*
X130920309Y-98908178D02*
X131028059Y-98854303D01*
X131028059Y-98854303D02*
X131081934Y-98800428D01*
X131081934Y-98800428D02*
X131135808Y-98692679D01*
X131135808Y-98692679D02*
X131135808Y-98638804D01*
X131135808Y-98638804D02*
X130947247Y-98450242D01*
X130947247Y-98450242D02*
X130839497Y-98557992D01*
X131432120Y-98450242D02*
X130866434Y-97884557D01*
X130866434Y-97884557D02*
X131081934Y-97669057D01*
X131081934Y-97669057D02*
X131162746Y-97642120D01*
X131162746Y-97642120D02*
X131216621Y-97642120D01*
X131216621Y-97642120D02*
X131297433Y-97669057D01*
X131297433Y-97669057D02*
X131378245Y-97749870D01*
X131378245Y-97749870D02*
X131405182Y-97830682D01*
X131405182Y-97830682D02*
X131405182Y-97884557D01*
X131405182Y-97884557D02*
X131378245Y-97965369D01*
X131378245Y-97965369D02*
X131162746Y-98180868D01*
X132294117Y-97588245D02*
X131970868Y-97911494D01*
X132132492Y-97749870D02*
X131566807Y-97184184D01*
X131566807Y-97184184D02*
X131593744Y-97318871D01*
X131593744Y-97318871D02*
X131593744Y-97426621D01*
X131593744Y-97426621D02*
X131566807Y-97507433D01*
X132832865Y-97049497D02*
X132509616Y-97372746D01*
X132671240Y-97211121D02*
X132105555Y-96645436D01*
X132105555Y-96645436D02*
X132132492Y-96780123D01*
X132132492Y-96780123D02*
X132132492Y-96887873D01*
X132132492Y-96887873D02*
X132105555Y-96968685D01*
X131266435Y-80158431D02*
X131185623Y-80185368D01*
X131185623Y-80185368D02*
X131104811Y-80266180D01*
X131104811Y-80266180D02*
X131050936Y-80373930D01*
X131050936Y-80373930D02*
X131050936Y-80481680D01*
X131050936Y-80481680D02*
X131077873Y-80562492D01*
X131077873Y-80562492D02*
X131158685Y-80697179D01*
X131158685Y-80697179D02*
X131239498Y-80777991D01*
X131239498Y-80777991D02*
X131374185Y-80858803D01*
X131374185Y-80858803D02*
X131454997Y-80885741D01*
X131454997Y-80885741D02*
X131562746Y-80885741D01*
X131562746Y-80885741D02*
X131670496Y-80831866D01*
X131670496Y-80831866D02*
X131724371Y-80777991D01*
X131724371Y-80777991D02*
X131778246Y-80670241D01*
X131778246Y-80670241D02*
X131778246Y-80616367D01*
X131778246Y-80616367D02*
X131589684Y-80427805D01*
X131589684Y-80427805D02*
X131481934Y-80535554D01*
X132074557Y-80427805D02*
X131508872Y-79862119D01*
X131508872Y-79862119D02*
X132397806Y-80104556D01*
X132397806Y-80104556D02*
X131832120Y-79538871D01*
X132667180Y-79835182D02*
X132101494Y-79269497D01*
X132101494Y-79269497D02*
X132236181Y-79134810D01*
X132236181Y-79134810D02*
X132343931Y-79080935D01*
X132343931Y-79080935D02*
X132451680Y-79080935D01*
X132451680Y-79080935D02*
X132532493Y-79107872D01*
X132532493Y-79107872D02*
X132667180Y-79188685D01*
X132667180Y-79188685D02*
X132747992Y-79269497D01*
X132747992Y-79269497D02*
X132828804Y-79404184D01*
X132828804Y-79404184D02*
X132855741Y-79484996D01*
X132855741Y-79484996D02*
X132855741Y-79592746D01*
X132855741Y-79592746D02*
X132801867Y-79700495D01*
X132801867Y-79700495D02*
X132667180Y-79835182D01*
X131393372Y-85181494D02*
X131312560Y-85208431D01*
X131312560Y-85208431D02*
X131231748Y-85289243D01*
X131231748Y-85289243D02*
X131177873Y-85396993D01*
X131177873Y-85396993D02*
X131177873Y-85504742D01*
X131177873Y-85504742D02*
X131204810Y-85585555D01*
X131204810Y-85585555D02*
X131285623Y-85720242D01*
X131285623Y-85720242D02*
X131366435Y-85801054D01*
X131366435Y-85801054D02*
X131501122Y-85881866D01*
X131501122Y-85881866D02*
X131581934Y-85908803D01*
X131581934Y-85908803D02*
X131689684Y-85908803D01*
X131689684Y-85908803D02*
X131797433Y-85854929D01*
X131797433Y-85854929D02*
X131851308Y-85801054D01*
X131851308Y-85801054D02*
X131905183Y-85693304D01*
X131905183Y-85693304D02*
X131905183Y-85639429D01*
X131905183Y-85639429D02*
X131716621Y-85450868D01*
X131716621Y-85450868D02*
X131608871Y-85558617D01*
X132201494Y-85450868D02*
X131635809Y-84885182D01*
X131635809Y-84885182D02*
X131851308Y-84669683D01*
X131851308Y-84669683D02*
X131932120Y-84642746D01*
X131932120Y-84642746D02*
X131985995Y-84642746D01*
X131985995Y-84642746D02*
X132066807Y-84669683D01*
X132066807Y-84669683D02*
X132147619Y-84750495D01*
X132147619Y-84750495D02*
X132174557Y-84831307D01*
X132174557Y-84831307D02*
X132174557Y-84885182D01*
X132174557Y-84885182D02*
X132147619Y-84965994D01*
X132147619Y-84965994D02*
X131932120Y-85181494D01*
X132147619Y-84373372D02*
X132524743Y-83996248D01*
X132524743Y-83996248D02*
X132847992Y-84804370D01*
X131293372Y-82671494D02*
X131212560Y-82698431D01*
X131212560Y-82698431D02*
X131131748Y-82779243D01*
X131131748Y-82779243D02*
X131077873Y-82886993D01*
X131077873Y-82886993D02*
X131077873Y-82994742D01*
X131077873Y-82994742D02*
X131104810Y-83075555D01*
X131104810Y-83075555D02*
X131185623Y-83210242D01*
X131185623Y-83210242D02*
X131266435Y-83291054D01*
X131266435Y-83291054D02*
X131401122Y-83371866D01*
X131401122Y-83371866D02*
X131481934Y-83398803D01*
X131481934Y-83398803D02*
X131589684Y-83398803D01*
X131589684Y-83398803D02*
X131697433Y-83344929D01*
X131697433Y-83344929D02*
X131751308Y-83291054D01*
X131751308Y-83291054D02*
X131805183Y-83183304D01*
X131805183Y-83183304D02*
X131805183Y-83129429D01*
X131805183Y-83129429D02*
X131616621Y-82940868D01*
X131616621Y-82940868D02*
X131508871Y-83048617D01*
X132101494Y-82940868D02*
X131535809Y-82375182D01*
X131535809Y-82375182D02*
X131751308Y-82159683D01*
X131751308Y-82159683D02*
X131832120Y-82132746D01*
X131832120Y-82132746D02*
X131885995Y-82132746D01*
X131885995Y-82132746D02*
X131966807Y-82159683D01*
X131966807Y-82159683D02*
X132047619Y-82240495D01*
X132047619Y-82240495D02*
X132074557Y-82321307D01*
X132074557Y-82321307D02*
X132074557Y-82375182D01*
X132074557Y-82375182D02*
X132047619Y-82455994D01*
X132047619Y-82455994D02*
X131832120Y-82671494D01*
X132343931Y-81567060D02*
X132236181Y-81674810D01*
X132236181Y-81674810D02*
X132209244Y-81755622D01*
X132209244Y-81755622D02*
X132209244Y-81809497D01*
X132209244Y-81809497D02*
X132236181Y-81944184D01*
X132236181Y-81944184D02*
X132316993Y-82078871D01*
X132316993Y-82078871D02*
X132532493Y-82294370D01*
X132532493Y-82294370D02*
X132613305Y-82321307D01*
X132613305Y-82321307D02*
X132667180Y-82321307D01*
X132667180Y-82321307D02*
X132747992Y-82294370D01*
X132747992Y-82294370D02*
X132855741Y-82186620D01*
X132855741Y-82186620D02*
X132882679Y-82105808D01*
X132882679Y-82105808D02*
X132882679Y-82051933D01*
X132882679Y-82051933D02*
X132855741Y-81971121D01*
X132855741Y-81971121D02*
X132721054Y-81836434D01*
X132721054Y-81836434D02*
X132640242Y-81809497D01*
X132640242Y-81809497D02*
X132586367Y-81809497D01*
X132586367Y-81809497D02*
X132505555Y-81836434D01*
X132505555Y-81836434D02*
X132397806Y-81944184D01*
X132397806Y-81944184D02*
X132370868Y-82024996D01*
X132370868Y-82024996D02*
X132370868Y-82078871D01*
X132370868Y-82078871D02*
X132397806Y-82159683D01*
X130769998Y-103260868D02*
X130689185Y-103287805D01*
X130689185Y-103287805D02*
X130608373Y-103368618D01*
X130608373Y-103368618D02*
X130554498Y-103476367D01*
X130554498Y-103476367D02*
X130554498Y-103584117D01*
X130554498Y-103584117D02*
X130581436Y-103664929D01*
X130581436Y-103664929D02*
X130662248Y-103799616D01*
X130662248Y-103799616D02*
X130743060Y-103880428D01*
X130743060Y-103880428D02*
X130877747Y-103961241D01*
X130877747Y-103961241D02*
X130958560Y-103988178D01*
X130958560Y-103988178D02*
X131066309Y-103988178D01*
X131066309Y-103988178D02*
X131174059Y-103934303D01*
X131174059Y-103934303D02*
X131227934Y-103880428D01*
X131227934Y-103880428D02*
X131281808Y-103772679D01*
X131281808Y-103772679D02*
X131281808Y-103718804D01*
X131281808Y-103718804D02*
X131093247Y-103530242D01*
X131093247Y-103530242D02*
X130985497Y-103637992D01*
X131578120Y-103530242D02*
X131012434Y-102964557D01*
X131012434Y-102964557D02*
X131227934Y-102749057D01*
X131227934Y-102749057D02*
X131308746Y-102722120D01*
X131308746Y-102722120D02*
X131362621Y-102722120D01*
X131362621Y-102722120D02*
X131443433Y-102749057D01*
X131443433Y-102749057D02*
X131524245Y-102829870D01*
X131524245Y-102829870D02*
X131551182Y-102910682D01*
X131551182Y-102910682D02*
X131551182Y-102964557D01*
X131551182Y-102964557D02*
X131524245Y-103045369D01*
X131524245Y-103045369D02*
X131308746Y-103260868D01*
X132440117Y-102668245D02*
X132116868Y-102991494D01*
X132278492Y-102829870D02*
X131712807Y-102264184D01*
X131712807Y-102264184D02*
X131739744Y-102398871D01*
X131739744Y-102398871D02*
X131739744Y-102506621D01*
X131739744Y-102506621D02*
X131712807Y-102587433D01*
X132062993Y-101913998D02*
X132413179Y-101563812D01*
X132413179Y-101563812D02*
X132440117Y-101967873D01*
X132440117Y-101967873D02*
X132520929Y-101887060D01*
X132520929Y-101887060D02*
X132601741Y-101860123D01*
X132601741Y-101860123D02*
X132655616Y-101860123D01*
X132655616Y-101860123D02*
X132736428Y-101887060D01*
X132736428Y-101887060D02*
X132871115Y-102021747D01*
X132871115Y-102021747D02*
X132898053Y-102102560D01*
X132898053Y-102102560D02*
X132898053Y-102156434D01*
X132898053Y-102156434D02*
X132871115Y-102237247D01*
X132871115Y-102237247D02*
X132709491Y-102398871D01*
X132709491Y-102398871D02*
X132628679Y-102425808D01*
X132628679Y-102425808D02*
X132574804Y-102425808D01*
X156670123Y-72850868D02*
X157020309Y-72500682D01*
X157020309Y-72500682D02*
X157047247Y-72904743D01*
X157047247Y-72904743D02*
X157128059Y-72823931D01*
X157128059Y-72823931D02*
X157208871Y-72796993D01*
X157208871Y-72796993D02*
X157262746Y-72796993D01*
X157262746Y-72796993D02*
X157343558Y-72823931D01*
X157343558Y-72823931D02*
X157478245Y-72958618D01*
X157478245Y-72958618D02*
X157505182Y-73039430D01*
X157505182Y-73039430D02*
X157505182Y-73093305D01*
X157505182Y-73093305D02*
X157478245Y-73174117D01*
X157478245Y-73174117D02*
X157316621Y-73335741D01*
X157316621Y-73335741D02*
X157235808Y-73362679D01*
X157235808Y-73362679D02*
X157181934Y-73362679D01*
X157181934Y-72339057D02*
X157936181Y-72716181D01*
X157936181Y-72716181D02*
X157559057Y-71961934D01*
X157693744Y-71827247D02*
X158043930Y-71477061D01*
X158043930Y-71477061D02*
X158070868Y-71881122D01*
X158070868Y-71881122D02*
X158151680Y-71800309D01*
X158151680Y-71800309D02*
X158232492Y-71773372D01*
X158232492Y-71773372D02*
X158286367Y-71773372D01*
X158286367Y-71773372D02*
X158367179Y-71800309D01*
X158367179Y-71800309D02*
X158501866Y-71934996D01*
X158501866Y-71934996D02*
X158528804Y-72015809D01*
X158528804Y-72015809D02*
X158528804Y-72069683D01*
X158528804Y-72069683D02*
X158501866Y-72150496D01*
X158501866Y-72150496D02*
X158340242Y-72312120D01*
X158340242Y-72312120D02*
X158259430Y-72339057D01*
X158259430Y-72339057D02*
X158205555Y-72339057D01*
X156700749Y-65430242D02*
X157454996Y-65807366D01*
X157454996Y-65807366D02*
X157077873Y-65053118D01*
X157778245Y-65430242D02*
X157885995Y-65376367D01*
X157885995Y-65376367D02*
X158020682Y-65241680D01*
X158020682Y-65241680D02*
X158047619Y-65160868D01*
X158047619Y-65160868D02*
X158047619Y-65106993D01*
X158047619Y-65106993D02*
X158020682Y-65026181D01*
X158020682Y-65026181D02*
X157966807Y-64972306D01*
X157966807Y-64972306D02*
X157885995Y-64945369D01*
X157885995Y-64945369D02*
X157832120Y-64945369D01*
X157832120Y-64945369D02*
X157751308Y-64972306D01*
X157751308Y-64972306D02*
X157616621Y-65053118D01*
X157616621Y-65053118D02*
X157535808Y-65080056D01*
X157535808Y-65080056D02*
X157481934Y-65080056D01*
X157481934Y-65080056D02*
X157401121Y-65053118D01*
X157401121Y-65053118D02*
X157347247Y-64999244D01*
X157347247Y-64999244D02*
X157320309Y-64918431D01*
X157320309Y-64918431D02*
X157320309Y-64864557D01*
X157320309Y-64864557D02*
X157347247Y-64783744D01*
X157347247Y-64783744D02*
X157481934Y-64649057D01*
X157481934Y-64649057D02*
X157589683Y-64595183D01*
X158209244Y-64514370D02*
X158478618Y-64783744D01*
X157724370Y-64406621D02*
X158209244Y-64514370D01*
X158209244Y-64514370D02*
X158101494Y-64029497D01*
X158801866Y-64406621D02*
X158909616Y-64352746D01*
X158909616Y-64352746D02*
X159044303Y-64218059D01*
X159044303Y-64218059D02*
X159071240Y-64137247D01*
X159071240Y-64137247D02*
X159071240Y-64083372D01*
X159071240Y-64083372D02*
X159044303Y-64002560D01*
X159044303Y-64002560D02*
X158990428Y-63948685D01*
X158990428Y-63948685D02*
X158909616Y-63921748D01*
X158909616Y-63921748D02*
X158855741Y-63921748D01*
X158855741Y-63921748D02*
X158774929Y-63948685D01*
X158774929Y-63948685D02*
X158640242Y-64029497D01*
X158640242Y-64029497D02*
X158559430Y-64056435D01*
X158559430Y-64056435D02*
X158505555Y-64056435D01*
X158505555Y-64056435D02*
X158424743Y-64029497D01*
X158424743Y-64029497D02*
X158370868Y-63975622D01*
X158370868Y-63975622D02*
X158343930Y-63894810D01*
X158343930Y-63894810D02*
X158343930Y-63840935D01*
X158343930Y-63840935D02*
X158370868Y-63760123D01*
X158370868Y-63760123D02*
X158505555Y-63625436D01*
X158505555Y-63625436D02*
X158613304Y-63571561D01*
X156931873Y-81101240D02*
X157201247Y-80831866D01*
X157039623Y-81316739D02*
X156662499Y-80562492D01*
X156662499Y-80562492D02*
X157416746Y-80939615D01*
X157362871Y-79915994D02*
X157282059Y-79942932D01*
X157282059Y-79942932D02*
X157201247Y-80023744D01*
X157201247Y-80023744D02*
X157147372Y-80131494D01*
X157147372Y-80131494D02*
X157147372Y-80239243D01*
X157147372Y-80239243D02*
X157174310Y-80320055D01*
X157174310Y-80320055D02*
X157255122Y-80454742D01*
X157255122Y-80454742D02*
X157335934Y-80535555D01*
X157335934Y-80535555D02*
X157470621Y-80616367D01*
X157470621Y-80616367D02*
X157551433Y-80643304D01*
X157551433Y-80643304D02*
X157659183Y-80643304D01*
X157659183Y-80643304D02*
X157766932Y-80589429D01*
X157766932Y-80589429D02*
X157820807Y-80535555D01*
X157820807Y-80535555D02*
X157874682Y-80427805D01*
X157874682Y-80427805D02*
X157874682Y-80373930D01*
X157874682Y-80373930D02*
X157686120Y-80185368D01*
X157686120Y-80185368D02*
X157578371Y-80293118D01*
X158170993Y-80185368D02*
X157605308Y-79619683D01*
X157605308Y-79619683D02*
X158494242Y-79862120D01*
X158494242Y-79862120D02*
X157928557Y-79296434D01*
X158763616Y-79592746D02*
X158197931Y-79027060D01*
X158197931Y-79027060D02*
X158332618Y-78892373D01*
X158332618Y-78892373D02*
X158440367Y-78838498D01*
X158440367Y-78838498D02*
X158548117Y-78838498D01*
X158548117Y-78838498D02*
X158628929Y-78865436D01*
X158628929Y-78865436D02*
X158763616Y-78946248D01*
X158763616Y-78946248D02*
X158844428Y-79027060D01*
X158844428Y-79027060D02*
X158925241Y-79161747D01*
X158925241Y-79161747D02*
X158952178Y-79242560D01*
X158952178Y-79242560D02*
X158952178Y-79350309D01*
X158952178Y-79350309D02*
X158898303Y-79458059D01*
X158898303Y-79458059D02*
X158763616Y-79592746D01*
X130623998Y-100720868D02*
X130543185Y-100747805D01*
X130543185Y-100747805D02*
X130462373Y-100828618D01*
X130462373Y-100828618D02*
X130408498Y-100936367D01*
X130408498Y-100936367D02*
X130408498Y-101044117D01*
X130408498Y-101044117D02*
X130435436Y-101124929D01*
X130435436Y-101124929D02*
X130516248Y-101259616D01*
X130516248Y-101259616D02*
X130597060Y-101340428D01*
X130597060Y-101340428D02*
X130731747Y-101421241D01*
X130731747Y-101421241D02*
X130812560Y-101448178D01*
X130812560Y-101448178D02*
X130920309Y-101448178D01*
X130920309Y-101448178D02*
X131028059Y-101394303D01*
X131028059Y-101394303D02*
X131081934Y-101340428D01*
X131081934Y-101340428D02*
X131135808Y-101232679D01*
X131135808Y-101232679D02*
X131135808Y-101178804D01*
X131135808Y-101178804D02*
X130947247Y-100990242D01*
X130947247Y-100990242D02*
X130839497Y-101097992D01*
X131432120Y-100990242D02*
X130866434Y-100424557D01*
X130866434Y-100424557D02*
X131081934Y-100209057D01*
X131081934Y-100209057D02*
X131162746Y-100182120D01*
X131162746Y-100182120D02*
X131216621Y-100182120D01*
X131216621Y-100182120D02*
X131297433Y-100209057D01*
X131297433Y-100209057D02*
X131378245Y-100289870D01*
X131378245Y-100289870D02*
X131405182Y-100370682D01*
X131405182Y-100370682D02*
X131405182Y-100424557D01*
X131405182Y-100424557D02*
X131378245Y-100505369D01*
X131378245Y-100505369D02*
X131162746Y-100720868D01*
X132294117Y-100128245D02*
X131970868Y-100451494D01*
X132132492Y-100289870D02*
X131566807Y-99724184D01*
X131566807Y-99724184D02*
X131593744Y-99858871D01*
X131593744Y-99858871D02*
X131593744Y-99966621D01*
X131593744Y-99966621D02*
X131566807Y-100047433D01*
X131997805Y-99400935D02*
X131997805Y-99347060D01*
X131997805Y-99347060D02*
X132024743Y-99266248D01*
X132024743Y-99266248D02*
X132159430Y-99131561D01*
X132159430Y-99131561D02*
X132240242Y-99104624D01*
X132240242Y-99104624D02*
X132294117Y-99104624D01*
X132294117Y-99104624D02*
X132374929Y-99131561D01*
X132374929Y-99131561D02*
X132428804Y-99185436D01*
X132428804Y-99185436D02*
X132482679Y-99293186D01*
X132482679Y-99293186D02*
X132482679Y-99939683D01*
X132482679Y-99939683D02*
X132832865Y-99589497D01*
D11*
%TO.C,REF\u002A\u002A*%
X224638000Y-55746000D02*
X224638000Y-58046000D01*
X225238000Y-53696000D02*
X230438000Y-53696000D01*
X225238000Y-60096000D02*
X230438000Y-60096000D01*
X231038000Y-55746000D02*
X231038000Y-58046000D01*
X225838000Y-54296000D02*
G75*
G02*
X225638000Y-54296000I-100000J0D01*
G01*
X225638000Y-54296000D02*
G75*
G02*
X225838000Y-54296000I100000J0D01*
G01*
D12*
X134280000Y-60860000D02*
X134280000Y-61160000D01*
X134280000Y-60860000D02*
X155280000Y-60860000D01*
X134280000Y-63260000D02*
X134280000Y-63660000D01*
X134280000Y-63527000D02*
X137287000Y-63527000D01*
X134280000Y-65860000D02*
X134280000Y-66260000D01*
X134280000Y-68360000D02*
X134280000Y-68760000D01*
X134280000Y-70960000D02*
X134280000Y-71360000D01*
X134280000Y-73460000D02*
X134280000Y-73860000D01*
X134280000Y-75960000D02*
X134280000Y-76360000D01*
X134280000Y-78560000D02*
X134280000Y-78960000D01*
X134280000Y-81060000D02*
X134280000Y-81460000D01*
X134280000Y-83660000D02*
X134280000Y-84060000D01*
X134280000Y-86160000D02*
X134280000Y-86560000D01*
X134280000Y-88660000D02*
X134280000Y-89060000D01*
X134280000Y-91260000D02*
X134280000Y-91660000D01*
X134280000Y-93760000D02*
X134280000Y-94160000D01*
X134280000Y-96360000D02*
X134280000Y-96760000D01*
X134280000Y-98860000D02*
X134280000Y-99260000D01*
X134280000Y-101460000D02*
X134280000Y-101860000D01*
X134280000Y-103960000D02*
X134280000Y-104360000D01*
X134280000Y-106460000D02*
X134280000Y-106860000D01*
X134280000Y-109060000D02*
X134280000Y-109460000D01*
X137287000Y-63527000D02*
X137287000Y-60860000D01*
X141080000Y-111860000D02*
X134280000Y-111860000D01*
X143280000Y-111860000D02*
X143680000Y-111860000D01*
X145880000Y-111860000D02*
X146280000Y-111860000D01*
X155280000Y-60860000D02*
X155280000Y-61160000D01*
X155280000Y-63260000D02*
X155280000Y-63660000D01*
X155280000Y-65860000D02*
X155280000Y-66260000D01*
X155280000Y-68360000D02*
X155280000Y-68760000D01*
X155280000Y-70960000D02*
X155280000Y-71360000D01*
X155280000Y-73460000D02*
X155280000Y-73860000D01*
X155280000Y-75960000D02*
X155280000Y-76360000D01*
X155280000Y-78560000D02*
X155280000Y-78960000D01*
X155280000Y-81060000D02*
X155280000Y-81460000D01*
X155280000Y-83660000D02*
X155280000Y-84060000D01*
X155280000Y-86160000D02*
X155280000Y-86560000D01*
X155280000Y-88660000D02*
X155280000Y-89060000D01*
X155280000Y-91260000D02*
X155280000Y-91660000D01*
X155280000Y-93760000D02*
X155280000Y-94160000D01*
X155280000Y-96360000D02*
X155280000Y-96760000D01*
X155280000Y-98860000D02*
X155280000Y-99260000D01*
X155280000Y-101460000D02*
X155280000Y-101860000D01*
X155280000Y-103960000D02*
X155280000Y-104360000D01*
X155280000Y-106460000D02*
X155280000Y-106860000D01*
X155280000Y-109060000D02*
X155280000Y-109460000D01*
X155280000Y-111860000D02*
X148480000Y-111860000D01*
X219810000Y-139850000D02*
X232110000Y-139850000D01*
X219810000Y-141970000D02*
X219810000Y-139850000D01*
X219810000Y-146970000D02*
X219810000Y-145030000D01*
X219810000Y-152150000D02*
X219810000Y-150030000D01*
X232110000Y-139850000D02*
X232110000Y-141970000D01*
X232110000Y-145030000D02*
X232110000Y-146970000D01*
X232110000Y-150030000D02*
X232110000Y-152150000D01*
X232110000Y-152150000D02*
X219810000Y-152150000D01*
X230639050Y-146040000D02*
G75*
G02*
X221480950Y-146040000I-4579050J0D01*
G01*
X221480950Y-146040000D02*
G75*
G02*
X230639050Y-146040000I4579050J0D01*
G01*
D13*
X220060000Y-88980000D02*
X220060000Y-89980000D01*
X220060000Y-88980000D02*
X221060000Y-87980000D01*
X220060000Y-92980000D02*
X220060000Y-94980000D01*
X220060000Y-97980000D02*
X220060000Y-98980000D01*
X220060000Y-98980000D02*
X221060000Y-99980000D01*
X221060000Y-87980000D02*
X231060000Y-87980000D01*
X221060000Y-89480000D02*
X221560000Y-88980000D01*
X221060000Y-89980000D02*
X221060000Y-89480000D01*
X221060000Y-92980000D02*
X221060000Y-94980000D01*
X221060000Y-97980000D02*
X221060000Y-98480000D01*
X221060000Y-98480000D02*
X221560000Y-98980000D01*
X221560000Y-88980000D02*
X224560000Y-88980000D01*
X221560000Y-98980000D02*
X224560000Y-98980000D01*
X224060000Y-91980000D02*
X228060000Y-91980000D01*
X224060000Y-95980000D02*
X224060000Y-91980000D01*
X227560000Y-88980000D02*
X230560000Y-88980000D01*
X227560000Y-98980000D02*
X230560000Y-98980000D01*
X228060000Y-91980000D02*
X228060000Y-95980000D01*
X228060000Y-95980000D02*
X224060000Y-95980000D01*
X230560000Y-88980000D02*
X231060000Y-89480000D01*
X230560000Y-98980000D02*
X231060000Y-98480000D01*
X231060000Y-87980000D02*
X232060000Y-88980000D01*
X231060000Y-89480000D02*
X231060000Y-89980000D01*
X231060000Y-92980000D02*
X231060000Y-94980000D01*
X231060000Y-98480000D02*
X231060000Y-97980000D01*
X231060000Y-99980000D02*
X221060000Y-99980000D01*
X231060000Y-99980000D02*
X232060000Y-98980000D01*
X232060000Y-88980000D02*
X232060000Y-89980000D01*
X232060000Y-92980000D02*
X232060000Y-94980000D01*
X232060000Y-97980000D02*
X232060000Y-98980000D01*
X227178030Y-93980000D02*
G75*
G02*
X224941970Y-93980000I-1118030J0D01*
G01*
X224941970Y-93980000D02*
G75*
G02*
X227178030Y-93980000I1118030J0D01*
G01*
X227474210Y-93980000D02*
G75*
G02*
X224645790Y-93980000I-1414210J0D01*
G01*
X224645790Y-93980000D02*
G75*
G02*
X227474210Y-93980000I1414210J0D01*
G01*
X229460000Y-93980000D02*
G75*
G02*
X222660000Y-93980000I-3400000J0D01*
G01*
X222660000Y-93980000D02*
G75*
G02*
X229460000Y-93980000I3400000J0D01*
G01*
D12*
X119420500Y-59680000D02*
X127840500Y-59680000D01*
X119420500Y-72400000D02*
X119420500Y-59680000D01*
X120640500Y-59680000D02*
X120640500Y-60900000D01*
X120640500Y-60900000D02*
X125640500Y-60900000D01*
X120640500Y-71180000D02*
X125640500Y-71180000D01*
X120640500Y-72400000D02*
X120640500Y-71180000D01*
X121140500Y-62290000D02*
X121220500Y-61970000D01*
X121140500Y-64790000D02*
X121220500Y-64470000D01*
X121140500Y-67290000D02*
X121220500Y-66970000D01*
X121140500Y-69790000D02*
X121220500Y-69470000D01*
X121220500Y-61970000D02*
X124640500Y-61970000D01*
X121220500Y-62610000D02*
X121140500Y-62290000D01*
X121220500Y-64470000D02*
X124640500Y-64470000D01*
X121220500Y-65110000D02*
X121140500Y-64790000D01*
X121220500Y-66970000D02*
X124640500Y-66970000D01*
X121220500Y-67610000D02*
X121140500Y-67290000D01*
X121220500Y-69470000D02*
X124640500Y-69470000D01*
X121220500Y-70110000D02*
X121140500Y-69790000D01*
X124640500Y-61970000D02*
X124640500Y-62290000D01*
X124640500Y-62290000D02*
X124640500Y-62610000D01*
X124640500Y-62610000D02*
X121220500Y-62610000D01*
X124640500Y-64470000D02*
X124640500Y-64790000D01*
X124640500Y-64790000D02*
X124640500Y-65110000D01*
X124640500Y-65110000D02*
X121220500Y-65110000D01*
X124640500Y-66970000D02*
X124640500Y-67290000D01*
X124640500Y-67290000D02*
X124640500Y-67610000D01*
X124640500Y-67610000D02*
X121220500Y-67610000D01*
X124640500Y-69470000D02*
X124640500Y-69790000D01*
X124640500Y-69790000D02*
X124640500Y-70110000D01*
X124640500Y-70110000D02*
X121220500Y-70110000D01*
X124640500Y-71180000D02*
X124640500Y-60900000D01*
X125640500Y-60900000D02*
X125640500Y-59680000D01*
X125640500Y-63620000D02*
X125640500Y-63460000D01*
X125640500Y-66120000D02*
X125640500Y-65960000D01*
X125640500Y-68620000D02*
X125640500Y-68460000D01*
X125640500Y-71180000D02*
X125640500Y-72400000D01*
X125640500Y-71180000D02*
X127840500Y-71180000D01*
X127730500Y-69790000D02*
X128330500Y-70090000D01*
X127840500Y-59680000D02*
X127840500Y-60900000D01*
X127840500Y-60900000D02*
X125640500Y-60900000D01*
X127840500Y-71180000D02*
X127840500Y-72400000D01*
X127840500Y-72400000D02*
X119420500Y-72400000D01*
X128330500Y-69490000D02*
X127730500Y-69790000D01*
X128330500Y-70090000D02*
X128330500Y-69490000D01*
X170932000Y-49824500D02*
X183652000Y-49824500D01*
X170932000Y-51044500D02*
X172152000Y-51044500D01*
X170932000Y-58244500D02*
X170932000Y-49824500D01*
X172152000Y-51044500D02*
X172152000Y-56044500D01*
X172152000Y-55044500D02*
X182432000Y-55044500D01*
X172152000Y-56044500D02*
X170932000Y-56044500D01*
X172152000Y-56044500D02*
X172152000Y-58244500D01*
X172152000Y-58244500D02*
X170932000Y-58244500D01*
X173222000Y-51624500D02*
X173542000Y-51544500D01*
X173222000Y-55044500D02*
X173222000Y-51624500D01*
X173242000Y-58734500D02*
X173842000Y-58734500D01*
X173542000Y-51544500D02*
X173862000Y-51624500D01*
X173542000Y-55044500D02*
X173222000Y-55044500D01*
X173542000Y-58134500D02*
X173242000Y-58734500D01*
X173842000Y-58734500D02*
X173542000Y-58134500D01*
X173862000Y-51624500D02*
X173862000Y-55044500D01*
X173862000Y-55044500D02*
X173542000Y-55044500D01*
X174712000Y-56044500D02*
X174872000Y-56044500D01*
X175722000Y-51624500D02*
X176042000Y-51544500D01*
X175722000Y-55044500D02*
X175722000Y-51624500D01*
X176042000Y-51544500D02*
X176362000Y-51624500D01*
X176042000Y-55044500D02*
X175722000Y-55044500D01*
X176362000Y-51624500D02*
X176362000Y-55044500D01*
X176362000Y-55044500D02*
X176042000Y-55044500D01*
X177212000Y-56044500D02*
X177372000Y-56044500D01*
X178222000Y-51624500D02*
X178542000Y-51544500D01*
X178222000Y-55044500D02*
X178222000Y-51624500D01*
X178542000Y-51544500D02*
X178862000Y-51624500D01*
X178542000Y-55044500D02*
X178222000Y-55044500D01*
X178862000Y-51624500D02*
X178862000Y-55044500D01*
X178862000Y-55044500D02*
X178542000Y-55044500D01*
X179712000Y-56044500D02*
X179872000Y-56044500D01*
X180722000Y-51624500D02*
X181042000Y-51544500D01*
X180722000Y-55044500D02*
X180722000Y-51624500D01*
X181042000Y-51544500D02*
X181362000Y-51624500D01*
X181042000Y-55044500D02*
X180722000Y-55044500D01*
X181362000Y-51624500D02*
X181362000Y-55044500D01*
X181362000Y-55044500D02*
X181042000Y-55044500D01*
X182432000Y-51044500D02*
X182432000Y-56044500D01*
X182432000Y-56044500D02*
X183652000Y-56044500D01*
X182432000Y-58244500D02*
X182432000Y-56044500D01*
X183652000Y-49824500D02*
X183652000Y-58244500D01*
X183652000Y-51044500D02*
X182432000Y-51044500D01*
X183652000Y-58244500D02*
X182432000Y-58244500D01*
D13*
X220060000Y-106760000D02*
X220060000Y-107760000D01*
X220060000Y-106760000D02*
X221060000Y-105760000D01*
X220060000Y-110760000D02*
X220060000Y-112760000D01*
X220060000Y-115760000D02*
X220060000Y-116760000D01*
X220060000Y-116760000D02*
X221060000Y-117760000D01*
X221060000Y-105760000D02*
X231060000Y-105760000D01*
X221060000Y-107260000D02*
X221560000Y-106760000D01*
X221060000Y-107760000D02*
X221060000Y-107260000D01*
X221060000Y-110760000D02*
X221060000Y-112760000D01*
X221060000Y-115760000D02*
X221060000Y-116260000D01*
X221060000Y-116260000D02*
X221560000Y-116760000D01*
X221560000Y-106760000D02*
X224560000Y-106760000D01*
X221560000Y-116760000D02*
X224560000Y-116760000D01*
X224060000Y-109760000D02*
X228060000Y-109760000D01*
X224060000Y-113760000D02*
X224060000Y-109760000D01*
X227560000Y-106760000D02*
X230560000Y-106760000D01*
X227560000Y-116760000D02*
X230560000Y-116760000D01*
X228060000Y-109760000D02*
X228060000Y-113760000D01*
X228060000Y-113760000D02*
X224060000Y-113760000D01*
X230560000Y-106760000D02*
X231060000Y-107260000D01*
X230560000Y-116760000D02*
X231060000Y-116260000D01*
X231060000Y-105760000D02*
X232060000Y-106760000D01*
X231060000Y-107260000D02*
X231060000Y-107760000D01*
X231060000Y-110760000D02*
X231060000Y-112760000D01*
X231060000Y-116260000D02*
X231060000Y-115760000D01*
X231060000Y-117760000D02*
X221060000Y-117760000D01*
X231060000Y-117760000D02*
X232060000Y-116760000D01*
X232060000Y-106760000D02*
X232060000Y-107760000D01*
X232060000Y-110760000D02*
X232060000Y-112760000D01*
X232060000Y-115760000D02*
X232060000Y-116760000D01*
X227178030Y-111760000D02*
G75*
G02*
X224941970Y-111760000I-1118030J0D01*
G01*
X224941970Y-111760000D02*
G75*
G02*
X227178030Y-111760000I1118030J0D01*
G01*
X227474210Y-111760000D02*
G75*
G02*
X224645790Y-111760000I-1414210J0D01*
G01*
X224645790Y-111760000D02*
G75*
G02*
X227474210Y-111760000I1414210J0D01*
G01*
X229460000Y-111760000D02*
G75*
G02*
X222660000Y-111760000I-3400000J0D01*
G01*
X222660000Y-111760000D02*
G75*
G02*
X229460000Y-111760000I3400000J0D01*
G01*
X220060000Y-124540000D02*
X220060000Y-125540000D01*
X220060000Y-124540000D02*
X221060000Y-123540000D01*
X220060000Y-128540000D02*
X220060000Y-130540000D01*
X220060000Y-133540000D02*
X220060000Y-134540000D01*
X220060000Y-134540000D02*
X221060000Y-135540000D01*
X221060000Y-123540000D02*
X231060000Y-123540000D01*
X221060000Y-125040000D02*
X221560000Y-124540000D01*
X221060000Y-125540000D02*
X221060000Y-125040000D01*
X221060000Y-128540000D02*
X221060000Y-130540000D01*
X221060000Y-133540000D02*
X221060000Y-134040000D01*
X221060000Y-134040000D02*
X221560000Y-134540000D01*
X221560000Y-124540000D02*
X224560000Y-124540000D01*
X221560000Y-134540000D02*
X224560000Y-134540000D01*
X224060000Y-127540000D02*
X228060000Y-127540000D01*
X224060000Y-131540000D02*
X224060000Y-127540000D01*
X227560000Y-124540000D02*
X230560000Y-124540000D01*
X227560000Y-134540000D02*
X230560000Y-134540000D01*
X228060000Y-127540000D02*
X228060000Y-131540000D01*
X228060000Y-131540000D02*
X224060000Y-131540000D01*
X230560000Y-124540000D02*
X231060000Y-125040000D01*
X230560000Y-134540000D02*
X231060000Y-134040000D01*
X231060000Y-123540000D02*
X232060000Y-124540000D01*
X231060000Y-125040000D02*
X231060000Y-125540000D01*
X231060000Y-128540000D02*
X231060000Y-130540000D01*
X231060000Y-134040000D02*
X231060000Y-133540000D01*
X231060000Y-135540000D02*
X221060000Y-135540000D01*
X231060000Y-135540000D02*
X232060000Y-134540000D01*
X232060000Y-124540000D02*
X232060000Y-125540000D01*
X232060000Y-128540000D02*
X232060000Y-130540000D01*
X232060000Y-133540000D02*
X232060000Y-134540000D01*
X227178030Y-129540000D02*
G75*
G02*
X224941970Y-129540000I-1118030J0D01*
G01*
X224941970Y-129540000D02*
G75*
G02*
X227178030Y-129540000I1118030J0D01*
G01*
X227474210Y-129540000D02*
G75*
G02*
X224645790Y-129540000I-1414210J0D01*
G01*
X224645790Y-129540000D02*
G75*
G02*
X227474210Y-129540000I1414210J0D01*
G01*
X229460000Y-129540000D02*
G75*
G02*
X222660000Y-129540000I-3400000J0D01*
G01*
X222660000Y-129540000D02*
G75*
G02*
X229460000Y-129540000I3400000J0D01*
G01*
D14*
X130480000Y-132980000D02*
X136780000Y-132980000D01*
X130480000Y-143880000D02*
X130480000Y-132980000D01*
X136780000Y-132980000D02*
X136780000Y-132350000D01*
X136780000Y-143880000D02*
X130480000Y-143880000D01*
X136780000Y-144500000D02*
X136780000Y-143880000D01*
X139880000Y-149530000D02*
X139880000Y-146380000D01*
X140680000Y-128930000D02*
X148780000Y-128930000D01*
X140680000Y-130480000D02*
X140680000Y-128930000D01*
X148780000Y-128930000D02*
X148780000Y-130480000D01*
X148780000Y-130480000D02*
X149900000Y-130480000D01*
X149680000Y-146380000D02*
X149680000Y-149530000D01*
X149680000Y-149530000D02*
X139880000Y-149530000D01*
X149950000Y-146380000D02*
X149680000Y-146380000D01*
X152680000Y-132350000D02*
X152680000Y-133580000D01*
X152680000Y-133580000D02*
X155880000Y-133580000D01*
X152680000Y-143280000D02*
X152680000Y-144500000D01*
X155880000Y-143280000D02*
X152680000Y-143280000D01*
D11*
X131530000Y-144480000D02*
G75*
G02*
X131330000Y-144480000I-100000J0D01*
G01*
X131330000Y-144480000D02*
G75*
G02*
X131530000Y-144480000I100000J0D01*
G01*
%TD*%
%LPC*%
D15*
%TO.C,REF\u002A\u002A*%
X224588000Y-54646000D03*
X224588000Y-59146000D03*
X231088000Y-54646000D03*
X231088000Y-59146000D03*
%TD*%
D16*
%TO.C,REF\u002A\u002A*%
X142055000Y-62360000D03*
D17*
X142355000Y-65390000D03*
X147205000Y-65390000D03*
D16*
X147505000Y-62360000D03*
D18*
X135890000Y-62230000D03*
D19*
X134990000Y-62230000D03*
D18*
X135890000Y-64770000D03*
D19*
X134990000Y-64770000D03*
D20*
X135890000Y-67310000D03*
D19*
X134990000Y-67310000D03*
D18*
X135890000Y-69850000D03*
D19*
X134990000Y-69850000D03*
D18*
X135890000Y-72390000D03*
D19*
X134990000Y-72390000D03*
D18*
X135890000Y-74930000D03*
D19*
X134990000Y-74930000D03*
D18*
X135890000Y-77470000D03*
D19*
X134990000Y-77470000D03*
D20*
X135890000Y-80010000D03*
D19*
X134990000Y-80010000D03*
D18*
X135890000Y-82550000D03*
D19*
X134990000Y-82550000D03*
D18*
X135890000Y-85090000D03*
D19*
X134990000Y-85090000D03*
D18*
X135890000Y-87630000D03*
D19*
X134990000Y-87630000D03*
D18*
X135890000Y-90170000D03*
D19*
X134990000Y-90170000D03*
D20*
X135890000Y-92710000D03*
D19*
X134990000Y-92710000D03*
D18*
X135890000Y-95250000D03*
D19*
X134990000Y-95250000D03*
D18*
X135890000Y-97790000D03*
D19*
X134990000Y-97790000D03*
D18*
X135890000Y-100330000D03*
D19*
X134990000Y-100330000D03*
D18*
X135890000Y-102870000D03*
D19*
X134990000Y-102870000D03*
D20*
X135890000Y-105410000D03*
D19*
X134990000Y-105410000D03*
D18*
X135890000Y-107950000D03*
D19*
X134990000Y-107950000D03*
D18*
X135890000Y-110490000D03*
D19*
X134990000Y-110490000D03*
D18*
X153670000Y-110490000D03*
D19*
X154570000Y-110490000D03*
D18*
X153670000Y-107950000D03*
D19*
X154570000Y-107950000D03*
D20*
X153670000Y-105410000D03*
D19*
X154570000Y-105410000D03*
D18*
X153670000Y-102870000D03*
D19*
X154570000Y-102870000D03*
D18*
X153670000Y-100330000D03*
D19*
X154570000Y-100330000D03*
D18*
X153670000Y-97790000D03*
D19*
X154570000Y-97790000D03*
D18*
X153670000Y-95250000D03*
D19*
X154570000Y-95250000D03*
D20*
X153670000Y-92710000D03*
D19*
X154570000Y-92710000D03*
D18*
X153670000Y-90170000D03*
D19*
X154570000Y-90170000D03*
D18*
X153670000Y-87630000D03*
D19*
X154570000Y-87630000D03*
D18*
X153670000Y-85090000D03*
D19*
X154570000Y-85090000D03*
D18*
X153670000Y-82550000D03*
D19*
X154570000Y-82550000D03*
D20*
X153670000Y-80010000D03*
D19*
X154570000Y-80010000D03*
D18*
X153670000Y-77470000D03*
D19*
X154570000Y-77470000D03*
D18*
X153670000Y-74930000D03*
D19*
X154570000Y-74930000D03*
D18*
X153670000Y-72390000D03*
D19*
X154570000Y-72390000D03*
D18*
X153670000Y-69850000D03*
D19*
X154570000Y-69850000D03*
D20*
X153670000Y-67310000D03*
D19*
X154570000Y-67310000D03*
D18*
X153670000Y-64770000D03*
D19*
X154570000Y-64770000D03*
D18*
X153670000Y-62230000D03*
D19*
X154570000Y-62230000D03*
D18*
X142240000Y-110260000D03*
D21*
X142240000Y-111160000D03*
D20*
X144780000Y-110260000D03*
D21*
X144780000Y-111160000D03*
D18*
X147320000Y-110260000D03*
D21*
X147320000Y-111160000D03*
%TD*%
D22*
%TO.C,REF\u002A\u002A*%
X219710000Y-143500000D03*
X232210000Y-143500000D03*
X219710000Y-148500000D03*
X232210000Y-148500000D03*
%TD*%
D23*
%TO.C,REF\u002A\u002A*%
X226060000Y-89480000D03*
X226060000Y-98480000D03*
D24*
X232060000Y-96480000D03*
X220060000Y-96480000D03*
X232060000Y-91480000D03*
X220060000Y-91480000D03*
%TD*%
D25*
%TO.C,REF\u002A\u002A*%
X126230500Y-69790000D03*
D26*
X126230500Y-67290000D03*
X126230500Y-64790000D03*
X126230500Y-62290000D03*
%TD*%
D27*
%TO.C,REF\u002A\u002A*%
X173542000Y-56634500D03*
D28*
X176042000Y-56634500D03*
X178542000Y-56634500D03*
X181042000Y-56634500D03*
%TD*%
D23*
%TO.C,REF\u002A\u002A*%
X226060000Y-107260000D03*
X226060000Y-116260000D03*
D24*
X232060000Y-114260000D03*
X220060000Y-114260000D03*
X232060000Y-109260000D03*
X220060000Y-109260000D03*
%TD*%
D23*
%TO.C,REF\u002A\u002A*%
X226060000Y-125040000D03*
X226060000Y-134040000D03*
D24*
X232060000Y-132040000D03*
X220060000Y-132040000D03*
X232060000Y-127040000D03*
X220060000Y-127040000D03*
%TD*%
D29*
%TO.C,REF\u002A\u002A*%
X132080000Y-141605000D03*
X132080000Y-135255000D03*
X137160000Y-141605000D03*
X137160000Y-135255000D03*
X154940000Y-140970000D03*
X154940000Y-138430000D03*
X154940000Y-135890000D03*
D30*
X138112500Y-146050000D03*
X151447500Y-146050000D03*
X151447500Y-130810000D03*
X138112500Y-130810000D03*
D29*
X142240000Y-148590000D03*
X144780000Y-148590000D03*
X147320000Y-148590000D03*
%TD*%
%LPD*%
M02*
