%TF.GenerationSoftware,KiCad,Pcbnew,9.0.0*%
%TF.CreationDate,2025-04-09T20:53:35+02:00*%
%TF.ProjectId,schema,73636865-6d61-42e6-9b69-6361645f7063,rev?*%
%TF.SameCoordinates,Original*%
%TF.FileFunction,Soldermask,Top*%
%TF.FilePolarity,Negative*%
%FSLAX46Y46*%
G04 Gerber Fmt 4.6, Leading zero omitted, Abs format (unit mm)*
G04 Created by KiCad (PCBNEW 9.0.0) date 2025-04-09 20:53:35*
%MOMM*%
%LPD*%
G01*
G04 APERTURE LIST*
G04 Aperture macros list*
%AMRoundRect*
0 Rectangle with rounded corners*
0 $1 Rounding radius*
0 $2 $3 $4 $5 $6 $7 $8 $9 X,Y pos of 4 corners*
0 Add a 4 corners polygon primitive as box body*
4,1,4,$2,$3,$4,$5,$6,$7,$8,$9,$2,$3,0*
0 Add four circle primitives for the rounded corners*
1,1,$1+$1,$2,$3*
1,1,$1+$1,$4,$5*
1,1,$1+$1,$6,$7*
1,1,$1+$1,$8,$9*
0 Add four rect primitives between the rounded corners*
20,1,$1+$1,$2,$3,$4,$5,0*
20,1,$1+$1,$4,$5,$6,$7,0*
20,1,$1+$1,$6,$7,$8,$9,0*
20,1,$1+$1,$8,$9,$2,$3,0*%
G04 Aperture macros list end*
%ADD10C,1.712000*%
%ADD11O,1.800000X1.800000*%
%ADD12O,1.500000X1.500000*%
%ADD13O,1.700000X1.700000*%
%ADD14R,3.500000X1.700000*%
%ADD15R,1.700000X1.700000*%
%ADD16R,1.700000X3.500000*%
%ADD17O,3.000000X2.500000*%
%ADD18C,1.800000*%
%ADD19C,2.604000*%
%ADD20RoundRect,0.250000X0.725000X-0.600000X0.725000X0.600000X-0.725000X0.600000X-0.725000X-0.600000X0*%
%ADD21O,1.950000X1.700000*%
%ADD22RoundRect,0.250000X-0.600000X-0.725000X0.600000X-0.725000X0.600000X0.725000X-0.600000X0.725000X0*%
%ADD23O,1.700000X1.950000*%
%ADD24C,1.982000*%
%ADD25C,2.490000*%
G04 APERTURE END LIST*
D10*
%TO.C,REF\u002A\u002A*%
X224588000Y-54646000D03*
X224588000Y-59146000D03*
X231088000Y-54646000D03*
X231088000Y-59146000D03*
%TD*%
D11*
%TO.C,REF\u002A\u002A*%
X142055000Y-62360000D03*
D12*
X142355000Y-65390000D03*
X147205000Y-65390000D03*
D11*
X147505000Y-62360000D03*
D13*
X135890000Y-62230000D03*
D14*
X134990000Y-62230000D03*
D13*
X135890000Y-64770000D03*
D14*
X134990000Y-64770000D03*
D15*
X135890000Y-67310000D03*
D14*
X134990000Y-67310000D03*
D13*
X135890000Y-69850000D03*
D14*
X134990000Y-69850000D03*
D13*
X135890000Y-72390000D03*
D14*
X134990000Y-72390000D03*
D13*
X135890000Y-74930000D03*
D14*
X134990000Y-74930000D03*
D13*
X135890000Y-77470000D03*
D14*
X134990000Y-77470000D03*
D15*
X135890000Y-80010000D03*
D14*
X134990000Y-80010000D03*
D13*
X135890000Y-82550000D03*
D14*
X134990000Y-82550000D03*
D13*
X135890000Y-85090000D03*
D14*
X134990000Y-85090000D03*
D13*
X135890000Y-87630000D03*
D14*
X134990000Y-87630000D03*
D13*
X135890000Y-90170000D03*
D14*
X134990000Y-90170000D03*
D15*
X135890000Y-92710000D03*
D14*
X134990000Y-92710000D03*
D13*
X135890000Y-95250000D03*
D14*
X134990000Y-95250000D03*
D13*
X135890000Y-97790000D03*
D14*
X134990000Y-97790000D03*
D13*
X135890000Y-100330000D03*
D14*
X134990000Y-100330000D03*
D13*
X135890000Y-102870000D03*
D14*
X134990000Y-102870000D03*
D15*
X135890000Y-105410000D03*
D14*
X134990000Y-105410000D03*
D13*
X135890000Y-107950000D03*
D14*
X134990000Y-107950000D03*
D13*
X135890000Y-110490000D03*
D14*
X134990000Y-110490000D03*
D13*
X153670000Y-110490000D03*
D14*
X154570000Y-110490000D03*
D13*
X153670000Y-107950000D03*
D14*
X154570000Y-107950000D03*
D15*
X153670000Y-105410000D03*
D14*
X154570000Y-105410000D03*
D13*
X153670000Y-102870000D03*
D14*
X154570000Y-102870000D03*
D13*
X153670000Y-100330000D03*
D14*
X154570000Y-100330000D03*
D13*
X153670000Y-97790000D03*
D14*
X154570000Y-97790000D03*
D13*
X153670000Y-95250000D03*
D14*
X154570000Y-95250000D03*
D15*
X153670000Y-92710000D03*
D14*
X154570000Y-92710000D03*
D13*
X153670000Y-90170000D03*
D14*
X154570000Y-90170000D03*
D13*
X153670000Y-87630000D03*
D14*
X154570000Y-87630000D03*
D13*
X153670000Y-85090000D03*
D14*
X154570000Y-85090000D03*
D13*
X153670000Y-82550000D03*
D14*
X154570000Y-82550000D03*
D15*
X153670000Y-80010000D03*
D14*
X154570000Y-80010000D03*
D13*
X153670000Y-77470000D03*
D14*
X154570000Y-77470000D03*
D13*
X153670000Y-74930000D03*
D14*
X154570000Y-74930000D03*
D13*
X153670000Y-72390000D03*
D14*
X154570000Y-72390000D03*
D13*
X153670000Y-69850000D03*
D14*
X154570000Y-69850000D03*
D15*
X153670000Y-67310000D03*
D14*
X154570000Y-67310000D03*
D13*
X153670000Y-64770000D03*
D14*
X154570000Y-64770000D03*
D13*
X153670000Y-62230000D03*
D14*
X154570000Y-62230000D03*
D13*
X142240000Y-110260000D03*
D16*
X142240000Y-111160000D03*
D15*
X144780000Y-110260000D03*
D16*
X144780000Y-111160000D03*
D13*
X147320000Y-110260000D03*
D16*
X147320000Y-111160000D03*
%TD*%
D17*
%TO.C,REF\u002A\u002A*%
X219710000Y-143500000D03*
X232210000Y-143500000D03*
X219710000Y-148500000D03*
X232210000Y-148500000D03*
%TD*%
D18*
%TO.C,REF\u002A\u002A*%
X226060000Y-89480000D03*
X226060000Y-98480000D03*
D19*
X232060000Y-96480000D03*
X220060000Y-96480000D03*
X232060000Y-91480000D03*
X220060000Y-91480000D03*
%TD*%
D20*
%TO.C,REF\u002A\u002A*%
X126230500Y-69790000D03*
D21*
X126230500Y-67290000D03*
X126230500Y-64790000D03*
X126230500Y-62290000D03*
%TD*%
D22*
%TO.C,REF\u002A\u002A*%
X173542000Y-56634500D03*
D23*
X176042000Y-56634500D03*
X178542000Y-56634500D03*
X181042000Y-56634500D03*
%TD*%
D18*
%TO.C,REF\u002A\u002A*%
X226060000Y-107260000D03*
X226060000Y-116260000D03*
D19*
X232060000Y-114260000D03*
X220060000Y-114260000D03*
X232060000Y-109260000D03*
X220060000Y-109260000D03*
%TD*%
D18*
%TO.C,REF\u002A\u002A*%
X226060000Y-125040000D03*
X226060000Y-134040000D03*
D19*
X232060000Y-132040000D03*
X220060000Y-132040000D03*
X232060000Y-127040000D03*
X220060000Y-127040000D03*
%TD*%
D24*
%TO.C,REF\u002A\u002A*%
X132080000Y-141605000D03*
X132080000Y-135255000D03*
X137160000Y-141605000D03*
X137160000Y-135255000D03*
X154940000Y-140970000D03*
X154940000Y-138430000D03*
X154940000Y-135890000D03*
D25*
X138112500Y-146050000D03*
X151447500Y-146050000D03*
X151447500Y-130810000D03*
X138112500Y-130810000D03*
D24*
X142240000Y-148590000D03*
X144780000Y-148590000D03*
X147320000Y-148590000D03*
%TD*%
M02*
