%TF.GenerationSoftware,KiCad,Pcbnew,9.0.0*%
%TF.CreationDate,2025-04-09T20:53:35+02:00*%
%TF.ProjectId,schema,73636865-6d61-42e6-9b69-6361645f7063,rev?*%
%TF.SameCoordinates,Original*%
%TF.FileFunction,Copper,L2,Bot*%
%TF.FilePolarity,Positive*%
%FSLAX46Y46*%
G04 Gerber Fmt 4.6, Leading zero omitted, Abs format (unit mm)*
G04 Created by KiCad (PCBNEW 9.0.0) date 2025-04-09 20:53:35*
%MOMM*%
%LPD*%
G01*
G04 APERTURE LIST*
G04 Aperture macros list*
%AMRoundRect*
0 Rectangle with rounded corners*
0 $1 Rounding radius*
0 $2 $3 $4 $5 $6 $7 $8 $9 X,Y pos of 4 corners*
0 Add a 4 corners polygon primitive as box body*
4,1,4,$2,$3,$4,$5,$6,$7,$8,$9,$2,$3,0*
0 Add four circle primitives for the rounded corners*
1,1,$1+$1,$2,$3*
1,1,$1+$1,$4,$5*
1,1,$1+$1,$6,$7*
1,1,$1+$1,$8,$9*
0 Add four rect primitives between the rounded corners*
20,1,$1+$1,$2,$3,$4,$5,0*
20,1,$1+$1,$4,$5,$6,$7,0*
20,1,$1+$1,$6,$7,$8,$9,0*
20,1,$1+$1,$8,$9,$2,$3,0*%
G04 Aperture macros list end*
%TA.AperFunction,ComponentPad*%
%ADD10C,1.508000*%
%TD*%
%TA.AperFunction,ComponentPad*%
%ADD11O,1.700000X1.700000*%
%TD*%
%TA.AperFunction,ComponentPad*%
%ADD12R,1.700000X1.700000*%
%TD*%
%TA.AperFunction,ComponentPad*%
%ADD13O,3.000000X2.500000*%
%TD*%
%TA.AperFunction,ComponentPad*%
%ADD14C,2.400000*%
%TD*%
%TA.AperFunction,ComponentPad*%
%ADD15RoundRect,0.250000X0.725000X-0.600000X0.725000X0.600000X-0.725000X0.600000X-0.725000X-0.600000X0*%
%TD*%
%TA.AperFunction,ComponentPad*%
%ADD16O,1.950000X1.700000*%
%TD*%
%TA.AperFunction,ComponentPad*%
%ADD17RoundRect,0.250000X-0.600000X-0.725000X0.600000X-0.725000X0.600000X0.725000X-0.600000X0.725000X0*%
%TD*%
%TA.AperFunction,ComponentPad*%
%ADD18O,1.700000X1.950000*%
%TD*%
%TA.AperFunction,ComponentPad*%
%ADD19C,1.778000*%
%TD*%
%TA.AperFunction,ComponentPad*%
%ADD20C,2.286000*%
%TD*%
%TA.AperFunction,SMDPad,CuDef*%
%ADD21R,1.200000X0.800000*%
%TD*%
%TA.AperFunction,ViaPad*%
%ADD22C,1.500000*%
%TD*%
%TA.AperFunction,Conductor*%
%ADD23C,1.000000*%
%TD*%
G04 APERTURE END LIST*
D10*
%TO.P,REF\u002A\u002A,1*%
%TO.N,N/C*%
X224588000Y-54646000D03*
%TO.P,REF\u002A\u002A,2*%
X224588000Y-59146000D03*
%TO.P,REF\u002A\u002A,3*%
X231088000Y-54646000D03*
%TO.P,REF\u002A\u002A,4*%
X231088000Y-59146000D03*
%TD*%
D11*
%TO.P,REF\u002A\u002A,1*%
%TO.N,N/C*%
X135890000Y-62230000D03*
%TO.P,REF\u002A\u002A,2*%
X135890000Y-64770000D03*
D12*
%TO.P,REF\u002A\u002A,3*%
X135890000Y-67310000D03*
D11*
%TO.P,REF\u002A\u002A,4*%
X135890000Y-69850000D03*
%TO.P,REF\u002A\u002A,5*%
X135890000Y-72390000D03*
%TO.P,REF\u002A\u002A,6*%
X135890000Y-74930000D03*
%TO.P,REF\u002A\u002A,7*%
X135890000Y-77470000D03*
D12*
%TO.P,REF\u002A\u002A,8*%
X135890000Y-80010000D03*
D11*
%TO.P,REF\u002A\u002A,9*%
X135890000Y-82550000D03*
%TO.P,REF\u002A\u002A,10*%
X135890000Y-85090000D03*
%TO.P,REF\u002A\u002A,11*%
X135890000Y-87630000D03*
%TO.P,REF\u002A\u002A,12*%
X135890000Y-90170000D03*
D12*
%TO.P,REF\u002A\u002A,13*%
X135890000Y-92710000D03*
D11*
%TO.P,REF\u002A\u002A,14*%
X135890000Y-95250000D03*
%TO.P,REF\u002A\u002A,15*%
X135890000Y-97790000D03*
%TO.P,REF\u002A\u002A,16*%
X135890000Y-100330000D03*
%TO.P,REF\u002A\u002A,17*%
X135890000Y-102870000D03*
D12*
%TO.P,REF\u002A\u002A,18*%
X135890000Y-105410000D03*
D11*
%TO.P,REF\u002A\u002A,19*%
X135890000Y-107950000D03*
%TO.P,REF\u002A\u002A,20*%
X135890000Y-110490000D03*
%TO.P,REF\u002A\u002A,21*%
X153670000Y-110490000D03*
%TO.P,REF\u002A\u002A,22*%
X153670000Y-107950000D03*
D12*
%TO.P,REF\u002A\u002A,23*%
X153670000Y-105410000D03*
D11*
%TO.P,REF\u002A\u002A,24*%
X153670000Y-102870000D03*
%TO.P,REF\u002A\u002A,25*%
X153670000Y-100330000D03*
%TO.P,REF\u002A\u002A,26*%
X153670000Y-97790000D03*
%TO.P,REF\u002A\u002A,27*%
X153670000Y-95250000D03*
D12*
%TO.P,REF\u002A\u002A,28*%
X153670000Y-92710000D03*
D11*
%TO.P,REF\u002A\u002A,29*%
X153670000Y-90170000D03*
%TO.P,REF\u002A\u002A,30*%
X153670000Y-87630000D03*
%TO.P,REF\u002A\u002A,31*%
X153670000Y-85090000D03*
%TO.P,REF\u002A\u002A,32*%
X153670000Y-82550000D03*
D12*
%TO.P,REF\u002A\u002A,33*%
X153670000Y-80010000D03*
D11*
%TO.P,REF\u002A\u002A,34*%
X153670000Y-77470000D03*
%TO.P,REF\u002A\u002A,35*%
X153670000Y-74930000D03*
%TO.P,REF\u002A\u002A,36*%
X153670000Y-72390000D03*
%TO.P,REF\u002A\u002A,37*%
X153670000Y-69850000D03*
D12*
%TO.P,REF\u002A\u002A,38*%
X153670000Y-67310000D03*
D11*
%TO.P,REF\u002A\u002A,39*%
X153670000Y-64770000D03*
%TO.P,REF\u002A\u002A,40*%
X153670000Y-62230000D03*
%TO.P,REF\u002A\u002A,41*%
X142240000Y-110260000D03*
D12*
%TO.P,REF\u002A\u002A,42*%
X144780000Y-110260000D03*
D11*
%TO.P,REF\u002A\u002A,43*%
X147320000Y-110260000D03*
%TD*%
D13*
%TO.P,REF\u002A\u002A,1*%
%TO.N,N/C*%
X219710000Y-143500000D03*
X232210000Y-143500000D03*
%TO.P,REF\u002A\u002A,2*%
X219710000Y-148500000D03*
X232210000Y-148500000D03*
%TD*%
D14*
%TO.P,REF\u002A\u002A,1*%
%TO.N,N/C*%
X232060000Y-96480000D03*
%TO.P,REF\u002A\u002A,2*%
X220060000Y-96480000D03*
%TO.P,REF\u002A\u002A,3*%
X232060000Y-91480000D03*
%TO.P,REF\u002A\u002A,4*%
X220060000Y-91480000D03*
%TD*%
D15*
%TO.P,REF\u002A\u002A,1*%
%TO.N,N/C*%
X126230500Y-69790000D03*
D16*
%TO.P,REF\u002A\u002A,2*%
X126230500Y-67290000D03*
%TO.P,REF\u002A\u002A,3*%
X126230500Y-64790000D03*
%TO.P,REF\u002A\u002A,4*%
X126230500Y-62290000D03*
%TD*%
D17*
%TO.P,REF\u002A\u002A,1*%
%TO.N,N/C*%
X173542000Y-56634500D03*
D18*
%TO.P,REF\u002A\u002A,2*%
X176042000Y-56634500D03*
%TO.P,REF\u002A\u002A,3*%
X178542000Y-56634500D03*
%TO.P,REF\u002A\u002A,4*%
X181042000Y-56634500D03*
%TD*%
D14*
%TO.P,REF\u002A\u002A,1*%
%TO.N,N/C*%
X232060000Y-114260000D03*
%TO.P,REF\u002A\u002A,2*%
X220060000Y-114260000D03*
%TO.P,REF\u002A\u002A,3*%
X232060000Y-109260000D03*
%TO.P,REF\u002A\u002A,4*%
X220060000Y-109260000D03*
%TD*%
%TO.P,REF\u002A\u002A,1*%
%TO.N,N/C*%
X232060000Y-132040000D03*
%TO.P,REF\u002A\u002A,2*%
X220060000Y-132040000D03*
%TO.P,REF\u002A\u002A,3*%
X232060000Y-127040000D03*
%TO.P,REF\u002A\u002A,4*%
X220060000Y-127040000D03*
%TD*%
D19*
%TO.P,REF\u002A\u002A,B1A*%
%TO.N,N/C*%
X132080000Y-141605000D03*
%TO.P,REF\u002A\u002A,B1B*%
X132080000Y-135255000D03*
%TO.P,REF\u002A\u002A,B2A*%
X137160000Y-141605000D03*
%TO.P,REF\u002A\u002A,B2B*%
X137160000Y-135255000D03*
%TO.P,REF\u002A\u002A,H1*%
X154940000Y-140970000D03*
%TO.P,REF\u002A\u002A,H2*%
X154940000Y-138430000D03*
%TO.P,REF\u002A\u002A,H3*%
X154940000Y-135890000D03*
D20*
%TO.P,REF\u002A\u002A,S1*%
X138112500Y-146050000D03*
%TO.P,REF\u002A\u002A,S2*%
X151447500Y-146050000D03*
%TO.P,REF\u002A\u002A,S3*%
X151447500Y-130810000D03*
%TO.P,REF\u002A\u002A,S4*%
X138112500Y-130810000D03*
D19*
%TO.P,REF\u002A\u002A,V1*%
X142240000Y-148590000D03*
%TO.P,REF\u002A\u002A,V2*%
X144780000Y-148590000D03*
%TO.P,REF\u002A\u002A,V3*%
X147320000Y-148590000D03*
%TD*%
D21*
%TO.P,REF\u002A\u002A,1*%
%TO.N,N/C*%
X228784000Y-63128000D03*
%TO.P,REF\u002A\u002A,2*%
X226384000Y-63128000D03*
%TO.P,REF\u002A\u002A,3*%
X228784000Y-67428000D03*
%TO.P,REF\u002A\u002A,4*%
X226384000Y-67428000D03*
%TD*%
D22*
%TO.N,*%
X176000000Y-63500000D03*
X139954000Y-55372000D03*
X179578000Y-92456000D03*
X160782000Y-56896000D03*
X175260000Y-108204000D03*
X190246000Y-81788000D03*
X160782000Y-58928000D03*
%TD*%
D23*
%TO.N,*%
X173542000Y-58233000D02*
X173542000Y-56634500D01*
X164465000Y-67310000D02*
X173542000Y-58233000D01*
X153670000Y-67310000D02*
X164465000Y-67310000D01*
X176042000Y-63458000D02*
X176000000Y-63500000D01*
X176042000Y-56634500D02*
X176042000Y-63458000D01*
X127956000Y-62290000D02*
X126230500Y-62290000D01*
X134874000Y-55372000D02*
X127956000Y-62290000D01*
X139954000Y-55372000D02*
X134874000Y-55372000D01*
X138176000Y-74930000D02*
X138684000Y-74422000D01*
X138684000Y-74422000D02*
X138684000Y-60960000D01*
X176784000Y-135128000D02*
X176784000Y-81788000D01*
X175260000Y-82296000D02*
X175260000Y-108204000D01*
X135890000Y-74930000D02*
X138176000Y-74930000D01*
X142748000Y-56896000D02*
X160782000Y-56896000D01*
X226384000Y-67428000D02*
X204606000Y-67428000D01*
X225854000Y-70358000D02*
X224536000Y-70358000D01*
X142494000Y-150876000D02*
X161036000Y-150876000D01*
X154940000Y-140970000D02*
X170942000Y-140970000D01*
X142240000Y-148590000D02*
X142240000Y-150622000D01*
X170942000Y-140970000D02*
X172720000Y-139192000D01*
X172720000Y-139192000D02*
X176784000Y-135128000D01*
X176784000Y-81788000D02*
X167386000Y-72390000D01*
X138684000Y-60960000D02*
X142748000Y-56896000D01*
X142240000Y-150622000D02*
X142494000Y-150876000D01*
X228784000Y-67428000D02*
X225854000Y-70358000D01*
X167386000Y-72390000D02*
X153670000Y-72390000D01*
X161036000Y-150876000D02*
X172720000Y-139192000D01*
X224536000Y-70358000D02*
X202438000Y-92456000D01*
X204606000Y-67428000D02*
X190246000Y-81788000D01*
X167894000Y-74930000D02*
X175260000Y-82296000D01*
X202438000Y-92456000D02*
X179578000Y-92456000D01*
X153670000Y-74930000D02*
X167894000Y-74930000D01*
X160782000Y-58928000D02*
X152908000Y-58928000D01*
X152908000Y-58928000D02*
X149860000Y-61976000D01*
X149860000Y-61976000D02*
X149860000Y-76200000D01*
X149860000Y-76200000D02*
X148590000Y-77470000D01*
X148590000Y-77470000D02*
X135890000Y-77470000D01*
%TD*%
M02*
