%TF.GenerationSoftware,KiCad,Pcbnew,9.0.0*%
%TF.CreationDate,2025-04-09T20:53:35+02:00*%
%TF.ProjectId,schema,73636865-6d61-42e6-9b69-6361645f7063,rev?*%
%TF.SameCoordinates,Original*%
%TF.FileFunction,Legend,Bot*%
%TF.FilePolarity,Positive*%
%FSLAX46Y46*%
G04 Gerber Fmt 4.6, Leading zero omitted, Abs format (unit mm)*
G04 Created by KiCad (PCBNEW 9.0.0) date 2025-04-09 20:53:35*
%MOMM*%
%LPD*%
G01*
G04 APERTURE LIST*
G04 Aperture macros list*
%AMRoundRect*
0 Rectangle with rounded corners*
0 $1 Rounding radius*
0 $2 $3 $4 $5 $6 $7 $8 $9 X,Y pos of 4 corners*
0 Add a 4 corners polygon primitive as box body*
4,1,4,$2,$3,$4,$5,$6,$7,$8,$9,$2,$3,0*
0 Add four circle primitives for the rounded corners*
1,1,$1+$1,$2,$3*
1,1,$1+$1,$4,$5*
1,1,$1+$1,$6,$7*
1,1,$1+$1,$8,$9*
0 Add four rect primitives between the rounded corners*
20,1,$1+$1,$2,$3,$4,$5,0*
20,1,$1+$1,$4,$5,$6,$7,0*
20,1,$1+$1,$6,$7,$8,$9,0*
20,1,$1+$1,$8,$9,$2,$3,0*%
G04 Aperture macros list end*
%ADD10C,0.200000*%
%ADD11C,1.508000*%
%ADD12O,1.800000X1.800000*%
%ADD13O,1.500000X1.500000*%
%ADD14O,1.700000X1.700000*%
%ADD15R,1.700000X1.700000*%
%ADD16O,3.000000X2.500000*%
%ADD17C,1.800000*%
%ADD18C,2.400000*%
%ADD19RoundRect,0.250000X0.725000X-0.600000X0.725000X0.600000X-0.725000X0.600000X-0.725000X-0.600000X0*%
%ADD20O,1.950000X1.700000*%
%ADD21RoundRect,0.250000X-0.600000X-0.725000X0.600000X-0.725000X0.600000X0.725000X-0.600000X0.725000X0*%
%ADD22O,1.700000X1.950000*%
%ADD23C,1.778000*%
%ADD24C,2.286000*%
%ADD25R,1.200000X0.800000*%
G04 APERTURE END LIST*
D10*
%TO.C,REF\u002A\u002A*%
X225034000Y-63278000D02*
X225034000Y-67278000D01*
X225034000Y-67278000D02*
X225384000Y-67278000D01*
X225384000Y-63278000D02*
X225034000Y-63278000D01*
X229784000Y-63278000D02*
X230134000Y-63278000D01*
X230134000Y-63278000D02*
X230134000Y-67278000D01*
X230134000Y-67278000D02*
X229784000Y-67278000D01*
X229784000Y-63978000D02*
G75*
G02*
X229584000Y-63978000I-100000J0D01*
G01*
X229584000Y-63978000D02*
G75*
G02*
X229784000Y-63978000I100000J0D01*
G01*
%TD*%
%LPC*%
D11*
%TO.C,REF\u002A\u002A*%
X224588000Y-54646000D03*
X224588000Y-59146000D03*
X231088000Y-54646000D03*
X231088000Y-59146000D03*
%TD*%
D12*
%TO.C,REF\u002A\u002A*%
X142055000Y-62360000D03*
D13*
X142355000Y-65390000D03*
X147205000Y-65390000D03*
D12*
X147505000Y-62360000D03*
D14*
X135890000Y-62230000D03*
X135890000Y-64770000D03*
D15*
X135890000Y-67310000D03*
D14*
X135890000Y-69850000D03*
X135890000Y-72390000D03*
X135890000Y-74930000D03*
X135890000Y-77470000D03*
D15*
X135890000Y-80010000D03*
D14*
X135890000Y-82550000D03*
X135890000Y-85090000D03*
X135890000Y-87630000D03*
X135890000Y-90170000D03*
D15*
X135890000Y-92710000D03*
D14*
X135890000Y-95250000D03*
X135890000Y-97790000D03*
X135890000Y-100330000D03*
X135890000Y-102870000D03*
D15*
X135890000Y-105410000D03*
D14*
X135890000Y-107950000D03*
X135890000Y-110490000D03*
X153670000Y-110490000D03*
X153670000Y-107950000D03*
D15*
X153670000Y-105410000D03*
D14*
X153670000Y-102870000D03*
X153670000Y-100330000D03*
X153670000Y-97790000D03*
X153670000Y-95250000D03*
D15*
X153670000Y-92710000D03*
D14*
X153670000Y-90170000D03*
X153670000Y-87630000D03*
X153670000Y-85090000D03*
X153670000Y-82550000D03*
D15*
X153670000Y-80010000D03*
D14*
X153670000Y-77470000D03*
X153670000Y-74930000D03*
X153670000Y-72390000D03*
X153670000Y-69850000D03*
D15*
X153670000Y-67310000D03*
D14*
X153670000Y-64770000D03*
X153670000Y-62230000D03*
X142240000Y-110260000D03*
D15*
X144780000Y-110260000D03*
D14*
X147320000Y-110260000D03*
%TD*%
D16*
%TO.C,REF\u002A\u002A*%
X219710000Y-143500000D03*
X232210000Y-143500000D03*
X219710000Y-148500000D03*
X232210000Y-148500000D03*
%TD*%
D17*
%TO.C,REF\u002A\u002A*%
X226060000Y-89480000D03*
X226060000Y-98480000D03*
D18*
X232060000Y-96480000D03*
X220060000Y-96480000D03*
X232060000Y-91480000D03*
X220060000Y-91480000D03*
%TD*%
D19*
%TO.C,REF\u002A\u002A*%
X126230500Y-69790000D03*
D20*
X126230500Y-67290000D03*
X126230500Y-64790000D03*
X126230500Y-62290000D03*
%TD*%
D21*
%TO.C,REF\u002A\u002A*%
X173542000Y-56634500D03*
D22*
X176042000Y-56634500D03*
X178542000Y-56634500D03*
X181042000Y-56634500D03*
%TD*%
D17*
%TO.C,REF\u002A\u002A*%
X226060000Y-107260000D03*
X226060000Y-116260000D03*
D18*
X232060000Y-114260000D03*
X220060000Y-114260000D03*
X232060000Y-109260000D03*
X220060000Y-109260000D03*
%TD*%
D17*
%TO.C,REF\u002A\u002A*%
X226060000Y-125040000D03*
X226060000Y-134040000D03*
D18*
X232060000Y-132040000D03*
X220060000Y-132040000D03*
X232060000Y-127040000D03*
X220060000Y-127040000D03*
%TD*%
D23*
%TO.C,REF\u002A\u002A*%
X132080000Y-141605000D03*
X132080000Y-135255000D03*
X137160000Y-141605000D03*
X137160000Y-135255000D03*
X154940000Y-140970000D03*
X154940000Y-138430000D03*
X154940000Y-135890000D03*
D24*
X138112500Y-146050000D03*
X151447500Y-146050000D03*
X151447500Y-130810000D03*
X138112500Y-130810000D03*
D23*
X142240000Y-148590000D03*
X144780000Y-148590000D03*
X147320000Y-148590000D03*
%TD*%
D25*
%TO.C,REF\u002A\u002A*%
X228784000Y-63128000D03*
X226384000Y-63128000D03*
X228784000Y-67428000D03*
X226384000Y-67428000D03*
%TD*%
%LPD*%
M02*
