M48
; DRILL file {KiCad 9.0.0} date 2025-04-09T20:53:41+0200
; FORMAT={-:-/ absolute / metric / decimal}
; #@! TF.CreationDate,2025-04-09T20:53:41+02:00
; #@! TF.GenerationSoftware,Kicad,Pcbnew,9.0.0
; #@! TF.FileFunction,Plated,1,2,PTH
FMAT,2
METRIC
; #@! TA.AperFunction,Plated,PTH,ComponentDrill
T1C0.889
; #@! TA.AperFunction,Plated,PTH,ComponentDrill
T2C0.900
; #@! TA.AperFunction,Plated,PTH,ComponentDrill
T3C0.950
; #@! TA.AperFunction,Plated,PTH,ViaDrill
T4C1.000
; #@! TA.AperFunction,Plated,PTH,ComponentDrill
T5C1.000
; #@! TA.AperFunction,Plated,PTH,ComponentDrill
T6C1.020
; #@! TA.AperFunction,Plated,PTH,ComponentDrill
T7C1.200
; #@! TA.AperFunction,Plated,PTH,ComponentDrill
T8C1.397
%
G90
G05
T1
X142.24Y-148.59
X144.78Y-148.59
X147.32Y-148.59
X154.94Y-135.89
X154.94Y-138.43
X154.94Y-140.97
T2
X132.08Y-135.255
X132.08Y-141.605
X137.16Y-135.255
X137.16Y-141.605
T3
X126.23Y-62.29
X126.23Y-64.79
X126.23Y-67.29
X126.23Y-69.79
X173.542Y-56.634
X176.042Y-56.634
X178.542Y-56.634
X181.042Y-56.634
T4
X139.954Y-55.372
X160.782Y-56.896
X160.782Y-58.928
X175.26Y-108.204
X176.0Y-63.5
X179.578Y-92.456
X190.246Y-81.788
T5
X224.588Y-54.646
X224.588Y-59.146
X231.088Y-54.646
X231.088Y-59.146
T6
X135.89Y-62.23
X135.89Y-64.77
X135.89Y-67.31
X135.89Y-69.85
X135.89Y-72.39
X135.89Y-74.93
X135.89Y-77.47
X135.89Y-80.01
X135.89Y-82.55
X135.89Y-85.09
X135.89Y-87.63
X135.89Y-90.17
X135.89Y-92.71
X135.89Y-95.25
X135.89Y-97.79
X135.89Y-100.33
X135.89Y-102.87
X135.89Y-105.41
X135.89Y-107.95
X135.89Y-110.49
X142.24Y-110.26
X144.78Y-110.26
X147.32Y-110.26
X153.67Y-62.23
X153.67Y-64.77
X153.67Y-67.31
X153.67Y-69.85
X153.67Y-72.39
X153.67Y-74.93
X153.67Y-77.47
X153.67Y-80.01
X153.67Y-82.55
X153.67Y-85.09
X153.67Y-87.63
X153.67Y-90.17
X153.67Y-92.71
X153.67Y-95.25
X153.67Y-97.79
X153.67Y-100.33
X153.67Y-102.87
X153.67Y-105.41
X153.67Y-107.95
X153.67Y-110.49
T7
X219.71Y-143.5
X219.71Y-148.5
X220.06Y-91.48
X220.06Y-96.48
X220.06Y-109.26
X220.06Y-114.26
X220.06Y-127.04
X220.06Y-132.04
X232.06Y-91.48
X232.06Y-96.48
X232.06Y-109.26
X232.06Y-114.26
X232.06Y-127.04
X232.06Y-132.04
X232.21Y-143.5
X232.21Y-148.5
T8
X138.112Y-130.81
X138.112Y-146.05
X151.447Y-130.81
X151.447Y-146.05
M30
