<svg width="2571" height="2468" viewBox="0 0 2571 2468" fill="none" xmlns="http://www.w3.org/2000/svg">
<path fill-rule="evenodd" clip-rule="evenodd" d="M427.089 1038.55C428.287 1043.52 429.491 1048.49 430.628 1053.53C391.606 1094.54 382.627 1130.42 381.66 1185.11C381.301 1206.34 381.576 1227.56 382.485 1248.77C386.218 1327.06 399.298 1403.92 412.427 1481.06C413.35 1486.48 414.273 1491.91 415.192 1497.33C416.655 1505.95 417.906 1514.71 419.162 1523.51C422.789 1548.92 426.466 1574.67 435.426 1598.49C435.907 1599.8 436.408 1601.1 436.93 1602.4C437.452 1603.69 437.995 1604.98 438.558 1606.26C439.122 1607.54 439.705 1608.81 440.309 1610.07C440.913 1611.33 441.538 1612.58 442.182 1613.82C442.826 1615.07 443.489 1616.3 444.173 1617.52C444.856 1618.75 445.559 1619.96 446.281 1621.16C447.004 1622.37 447.746 1623.56 448.506 1624.74C449.267 1625.92 450.047 1627.09 450.844 1628.25C451.642 1629.41 452.459 1630.56 453.294 1631.69C454.128 1632.82 454.981 1633.94 455.851 1635.05C456.722 1636.16 457.61 1637.25 458.515 1638.34C459.421 1639.42 460.344 1640.49 461.285 1641.54C462.224 1642.6 463.18 1643.64 464.153 1644.67C465.127 1645.7 466.116 1646.71 467.122 1647.7C468.128 1648.7 469.149 1649.68 470.186 1650.65C471.224 1651.62 472.276 1652.57 473.343 1653.51C480.33 1659.56 488.667 1665.93 497.113 1669.99C500.327 1671.54 504.055 1672.92 507.881 1674.34C513.768 1677.17 520.914 1680.06 528.043 1684.31L556.67 1664.36C547.822 1659.94 545.62 1660.16 542.407 1656.41C541.661 1656.1 540.847 1655.46 539.985 1654.73C537.327 1653.29 535.78 1651.92 533.926 1650.53C516.906 1638.78 499.94 1627.07 489.068 1609.32C449.658 1544.97 430.062 1408.97 420.449 1333.67C420.07 1330.7 419.688 1327.74 419.306 1324.77C415.853 1297.93 412.39 1271.01 411.096 1244C410.528 1229.89 410.416 1215.77 410.762 1201.65C411.109 1187.54 411.913 1173.44 413.173 1159.37C413.346 1157.3 413.5 1155.21 413.655 1153.09C414.234 1145.18 414.83 1137.03 416.521 1129.44C419.671 1115.32 427.757 1101.51 435.802 1087.76C446.038 1070.28 456.208 1052.91 456.065 1035.15C456.005 1027.54 453.797 1019.41 451.695 1011.67C451.037 1009.24 450.39 1006.86 449.821 1004.54C439.806 981.491 443.165 946.08 445.756 918.771C446.104 915.104 446.438 911.584 446.723 908.259C447.12 895.619 448.44 882.3 450.576 869.821C451.378 859.708 452.475 849.387 454.329 839.406C454.467 825.037 457.16 809.793 459.772 795.01C460.709 789.703 461.636 784.456 462.43 779.33C463.174 774.534 463.893 769.716 464.613 764.887C467.995 742.225 471.413 719.316 477.55 697.328C482.189 680.708 488.185 664.443 494.168 648.214C495.242 645.299 496.317 642.385 497.382 639.47C498.45 636.551 499.512 633.629 500.575 630.707C507.364 612.042 514.169 593.332 522.272 575.166C543.829 526.841 571.519 480.885 599.611 435.841C633.78 381.053 666.441 333.198 711.705 285.873C775.218 219.469 883.026 143.183 972.777 115.237C991.493 109.409 1010.76 106.733 1030.1 104.049C1036.59 103.147 1043.1 102.244 1049.59 101.22C1051.07 100.986 1052.55 100.753 1054.02 100.521C1108.74 91.8863 1157.66 84.1666 1213.68 81.8391C1216.33 116.362 1219.94 150.871 1223.56 185.382C1226.51 213.616 1229.47 241.852 1231.9 270.099C1233.09 283.924 1233.84 297.938 1234.6 311.995C1236.1 339.845 1237.61 367.867 1242.51 394.932C1243.87 402.418 1246.41 411.184 1252.02 416.818C1254.53 419.33 1257.93 421.205 1261.68 420.817C1266.09 420.361 1270 417.245 1272.54 413.937C1276.87 408.302 1278.42 401.018 1278.7 394.15C1279.68 369.995 1276.15 344.514 1272.69 319.477C1270.93 306.739 1269.18 294.116 1268.05 281.84C1266.08 260.378 1264.51 238.815 1262.95 217.231C1259.54 170.208 1256.13 123.085 1248.45 76.6957L1249.4 76.5376C1275.69 72.1773 1302.2 67.7798 1328.94 67.7346C1365.15 67.6733 1401.11 73.0948 1436.54 79.8439C1440.84 80.6325 1445.13 81.4593 1449.42 82.3242C1453.71 83.189 1457.99 84.0919 1462.26 85.0327C1466.53 85.9734 1470.79 86.952 1475.04 87.9684C1479.29 88.9847 1483.53 90.0387 1487.76 91.1303C1491.99 92.2219 1496.21 93.3509 1500.42 94.5174C1504.63 95.6838 1508.82 96.8875 1513.01 98.1285C1517.2 99.3694 1521.37 100.647 1525.53 101.962C1529.69 103.277 1533.84 104.629 1537.97 106.018C1542.11 107.406 1546.23 108.831 1550.34 110.293C1554.45 111.755 1558.54 113.253 1562.62 114.787C1566.7 116.321 1570.76 117.891 1574.81 119.498C1578.86 121.104 1582.89 122.747 1586.91 124.425C1590.92 126.102 1594.92 127.815 1598.91 129.565C1602.89 131.313 1606.86 133.097 1610.81 134.917C1614.76 136.736 1618.69 138.59 1622.6 140.479C1626.51 142.368 1630.41 144.292 1634.29 146.25C1638.16 148.208 1642.02 150.2 1645.86 152.227C1649.7 154.253 1653.52 156.314 1657.31 158.409C1661.11 160.503 1664.89 162.63 1668.65 164.792C1672.4 166.953 1676.14 169.148 1679.86 171.376C1683.57 173.603 1687.27 175.863 1690.94 178.157C1694.61 180.45 1698.26 182.775 1701.89 185.133C1705.52 187.491 1709.12 189.881 1712.7 192.303C1716.28 194.725 1719.84 197.178 1723.37 199.663C1726.9 202.148 1730.41 204.664 1733.9 207.212C1737.39 209.759 1740.85 212.337 1744.28 214.946C1747.72 217.554 1751.13 220.193 1754.51 222.862C1757.9 225.531 1761.26 228.23 1764.59 230.959C1767.92 233.687 1771.23 236.445 1774.51 239.233C1777.79 242.021 1781.04 244.837 1784.27 247.682C1787.5 250.527 1790.69 253.401 1793.86 256.303C1797.03 259.205 1800.18 262.134 1803.29 265.092C2009.78 461.678 2068.76 780.613 2070.05 1048.46C2069.68 1048.65 2069.3 1048.85 2068.91 1049.05C2062.74 1052.26 2053.59 1057.01 2051.39 1063.4C2047.42 1074.92 2068.82 1083.66 2086.26 1090.78C2094.33 1094.08 2101.56 1097.03 2105.02 1099.75C2116.39 1108.68 2124.75 1123.63 2131.03 1136.13C2162.17 1198.02 2166.7 1327.27 2147.19 1393.45C2142.36 1409.83 2135.26 1425.42 2128.17 1441.02C2120.52 1457.82 2112.88 1474.62 2108.07 1492.4C2104 1507.47 2102.03 1523 2100.07 1538.53C2097.55 1558.36 2095.04 1578.19 2088.15 1597.03C2079.42 1620.9 2062.39 1643.23 2038.02 1654.08C2008.11 1667.41 1976.51 1656.01 1947.5 1645.56C1944.78 1644.57 1942.07 1643.6 1939.39 1642.65C1945.27 1602.63 1951.24 1562.87 1958.9 1523.1C1978.15 1516.7 1996.11 1508.03 2011.07 1494.56C2031.81 1475.89 2044.7 1451.56 2052.29 1425.52C2052.51 1424.77 2052.74 1424 2052.98 1423.22C2054.33 1418.72 2055.84 1413.72 2055.83 1409.24L2055.83 1408.98C2055.82 1406.54 2055.82 1406.24 2053.87 1404.34C2051.82 1405.57 2045.27 1415.32 2039.91 1423.29C2036.98 1427.66 2034.4 1431.5 2033.12 1433.11C2023.29 1445.46 1996.93 1477.25 1980.19 1479.45C1979.88 1479.36 1979.56 1479.28 1979.24 1479.21C1978.11 1478.94 1976.98 1478.67 1976.3 1477.73C1973.1 1473.28 1974.84 1461.27 1975.75 1455.03C1975.82 1454.52 1975.89 1454.05 1975.95 1453.62C1977.82 1440.39 1980.79 1427.29 1983.77 1414.18C1986.04 1404.15 1988.32 1394.12 1990.1 1384.04C1999.28 1332.23 2006.75 1280.2 2012.52 1227.94C2018 1221.01 2022.93 1213.75 2026.82 1205.88C2033.54 1192.26 2039.96 1172.46 2033.93 1157.83C2031.58 1152.12 2028.41 1146.89 2022.44 1144.32C2010.46 1145.72 2006.36 1159.99 2002.43 1173.65C1999.8 1182.78 1997.25 1191.63 1992.49 1196.17C1991.38 1197.22 1991.26 1197.2 1990.28 1197.05C1989.96 1197 1989.53 1196.93 1988.94 1196.89C1985.52 1193.94 1984.83 1189.37 1984.18 1185.06C1984.06 1184.26 1983.94 1183.47 1983.81 1182.7C1981.21 1167.82 1979.62 1152.75 1978.03 1137.69C1976.87 1126.74 1975.72 1115.8 1974.18 1104.93C1965.25 1041.91 1933.46 841.659 1903.05 799.314C1898.28 792.663 1894.8 789.69 1886.48 788.296C1883.07 791.806 1879.25 795.79 1877.39 800.307C1877.16 800.879 1876.96 801.462 1876.81 802.058C1876.65 802.652 1876.53 803.254 1876.45 803.863C1876.37 804.471 1876.33 805.083 1876.33 805.697C1876.33 806.31 1876.37 806.921 1876.44 807.531C1877.74 818.056 1881.27 828.776 1884.7 839.205C1885.91 842.86 1887.1 846.479 1888.18 850.042C1893.35 867.282 1898.09 884.634 1902.38 902.097C1916.69 960.523 1928.45 1019.42 1937.64 1078.79C1937.95 1080.7 1938.26 1082.61 1938.58 1084.53C1940.79 1098.04 1943.01 1111.6 1944.47 1125.21C1945.29 1132.94 1945.88 1141.34 1946.49 1150.07C1948.47 1178.42 1950.69 1210.12 1961.9 1232.7C1965.58 1234.72 1969.42 1236.53 1973.25 1238.32C1974.64 1238.98 1976.03 1239.63 1977.41 1240.29C1968.9 1302.21 1959.47 1364.69 1947.83 1426.14C1944.33 1444.64 1940.29 1463.05 1936.25 1481.45C1932.45 1498.79 1928.64 1516.12 1925.29 1533.54C1921.49 1553.25 1917.92 1573.01 1914.34 1592.76C1909.65 1618.71 1904.95 1644.65 1899.76 1670.5C1885.45 1743.44 1868.95 1815.92 1850.27 1887.94C1847.41 1899.42 1844.63 1912.1 1841.74 1925.26C1834.05 1960.24 1825.63 1998.58 1813.19 2026.63C1797.54 2061.91 1735.2 2098.26 1695.83 2121.21C1692.07 2123.41 1688.51 2125.48 1685.23 2127.42C1681.62 2129.55 1677.99 2131.75 1674.34 2133.98C1661.31 2141.9 1647.92 2150.05 1633.94 2155.5C1636.07 2140.77 1638.15 2126.21 1639.04 2111.35L1637.4 2110.19L1639.07 2110.17L1639.73 2108.41L1638.94 2107.83L1638.74 2106.52C1638.54 2106.62 1638.33 2106.71 1638.13 2106.8C1637.73 2106.97 1637.33 2107.15 1637 2107.41C1631.91 2111.39 1629.35 2128.21 1627.34 2141.47C1626.44 2147.4 1625.64 2152.62 1624.78 2155.65L1624.32 2157.18L1609.96 2170.81C1610.44 2168.8 1611 2166.82 1611.55 2164.83L1611.81 2163.91C1612.16 2162.66 1612.6 2161.16 1613.11 2159.45C1616.66 2147.43 1623.11 2125.62 1618.05 2117.24L1616.12 2117.14C1610.11 2120.82 1607.46 2133.27 1604.94 2145.15C1603.2 2153.33 1601.52 2161.23 1598.84 2165.82L1597.65 2165.99C1594.64 2160.22 1597.2 2152.71 1599.78 2145.15C1602.34 2137.64 1604.91 2130.09 1602.03 2124.2C1601.48 2123.1 1600.64 2122.83 1599.63 2122.5C1599.34 2122.41 1599.03 2122.31 1598.72 2122.19C1594.87 2124.66 1592.8 2132.86 1590.49 2142.04C1588.26 2150.87 1585.8 2160.62 1581.31 2167.04L1580.38 2168.34C1580.65 2166.11 1581.01 2163.48 1581.41 2160.57C1584.24 2139.7 1589.11 2103.84 1581.08 2090.33C1580.46 2089.3 1580.37 2088.95 1580.15 2088.78C1579.95 2088.64 1579.64 2088.63 1578.78 2088.42C1575.51 2092.85 1573.61 2107.67 1571.44 2124.56C1568.81 2145.09 1565.78 2168.68 1559.43 2180.42C1559.28 2180.69 1559.13 2180.95 1558.98 2181.22C1558.89 2181.38 1558.79 2181.55 1558.7 2181.72C1565.36 2136.02 1564.64 2092.56 1545.18 2049.53C1545.64 2060.59 1546.32 2070.7 1546.96 2080.28C1549.38 2116.15 1551.29 2144.47 1539.11 2186.47C1538.84 2179.3 1539.18 2172.09 1539.52 2164.89C1539.71 2161.01 1539.89 2157.12 1539.98 2153.25C1540.39 2134.84 1537.27 2082.08 1523.77 2068.54C1521.87 2073.42 1522.96 2081.71 1523.85 2088.43C1524.12 2090.47 1524.37 2092.36 1524.51 2093.97C1524.72 2096.34 1524.94 2098.8 1525.18 2101.33C1527.94 2131.32 1531.65 2171.52 1518.64 2197.3C1517.59 2192.68 1518.25 2186.6 1518.89 2180.71C1519.3 2176.94 1519.71 2173.25 1519.65 2170.05C1519.37 2154.38 1513.12 2103.04 1506.86 2090.57L1505.3 2090.83C1502.88 2098.59 1503.3 2107 1503.7 2115.11C1503.77 2116.37 1503.83 2117.62 1503.88 2118.86C1503.92 2119.85 1503.96 2120.83 1504 2121.8C1505.03 2146.45 1505.91 2167.41 1497.37 2191.34C1494.26 2181.27 1494.04 2171.18 1493.82 2160.97C1493.73 2156.86 1493.64 2152.74 1493.36 2148.58C1492.44 2134.92 1488.67 2122.28 1483.7 2109.53C1483.07 2118.28 1483.2 2127.14 1483.34 2135.98C1483.42 2141.67 1483.51 2147.36 1483.39 2153.01C1483.11 2166.39 1481.4 2179.57 1479.62 2192.81C1474.35 2178.21 1470.51 2163.22 1467.21 2148.11C1466.67 2145.64 1466.21 2143.16 1465.76 2140.67C1464.83 2135.62 1463.91 2130.57 1462.27 2125.68L1460.95 2126.04C1458.07 2134.52 1458.77 2144.69 1459.45 2154.53C1460.06 2163.35 1460.65 2171.9 1458.63 2178.73C1457.53 2182.46 1455.44 2185.54 1451.86 2187.28L1449.45 2186.18C1443.75 2178.66 1441.41 2164.53 1439.38 2152.32C1438.56 2147.42 1437.8 2142.83 1436.89 2139.1C1436.72 2141.48 1436.59 2144.18 1436.46 2147.06C1435.85 2160.06 1435.07 2176.83 1429 2185.91C1428.32 2186.93 1428.12 2187.31 1427.81 2187.5C1427.46 2187.71 1426.95 2187.68 1425.41 2188.06C1420.28 2185.04 1419.04 2177.66 1417.8 2170.25C1416.8 2164.31 1415.8 2158.36 1412.79 2154.63C1409.15 2155.46 1407.96 2162.81 1406.7 2170.63C1405.44 2178.39 1404.12 2186.61 1400.25 2189.39C1395.47 2186.87 1394.24 2180.08 1392.96 2173.09C1391.81 2166.76 1390.63 2160.28 1386.77 2156.66L1384.39 2156.97C1380.37 2162.12 1379.82 2171.52 1379.31 2180.19C1379.05 2184.62 1378.8 2188.87 1378.1 2192.26C1374.23 2188.63 1371.12 2185 1368.05 2180.74C1367.82 2173.87 1367.55 2166.85 1366.06 2160.11C1365.99 2159.82 1365.93 2159.52 1365.87 2159.22C1365.36 2156.81 1364.81 2154.16 1362.66 2152.91C1358.38 2157.11 1357.68 2163.75 1356.99 2170.34C1356.29 2176.95 1355.61 2183.51 1351.31 2187.48L1348.86 2187.11C1342.78 2180.83 1339.55 2170.6 1336.56 2161.17C1335.36 2157.37 1334.2 2153.7 1332.91 2150.47C1330.92 2156.57 1330.17 2162.91 1329.42 2169.21C1328.63 2175.85 1327.84 2182.45 1325.63 2188.73L1322.91 2189.61C1315.82 2186.96 1313.71 2178.92 1311.64 2171C1310.13 2165.23 1308.63 2159.52 1305.24 2156C1303.95 2154.66 1303.49 2154.65 1302.25 2154.6C1301.92 2154.59 1301.54 2154.58 1301.08 2154.54C1297.11 2159.36 1297.75 2166.09 1298.38 2172.76C1299.01 2179.47 1299.64 2186.11 1295.57 2190.67C1295.38 2190.66 1295.21 2190.65 1295.06 2190.64C1294.11 2190.6 1293.78 2190.58 1292.53 2190.04C1285.84 2187.15 1282.94 2179.3 1280.57 2172.9C1280.3 2172.15 1280.03 2171.42 1279.76 2170.72C1279.53 2170.12 1279.31 2169.52 1279.08 2168.91C1277.01 2163.34 1274.78 2157.33 1269.06 2154.74L1266.81 2155.75C1263.99 2160.53 1265.69 2168.07 1267.21 2174.83C1267.87 2177.8 1268.5 2180.61 1268.71 2182.98C1268.98 2186.11 1268.49 2187.47 1266.39 2189.75C1264.95 2189.78 1263.97 2189.61 1262.72 2188.88C1256.24 2185.06 1250.01 2176.74 1248.37 2169.63C1248.21 2168.96 1248.06 2168.28 1247.91 2167.59C1247.31 2164.88 1246.69 2162.12 1245.77 2159.54C1244.7 2156.54 1243.85 2154.76 1240.91 2153.31L1238.72 2155.32C1234.08 2167.55 1236.26 2179.04 1238.57 2191.26C1238.8 2192.45 1239.03 2193.65 1239.25 2194.86C1221.34 2185.54 1218.97 2176.19 1215.54 2162.71C1214.48 2158.5 1213.31 2153.89 1211.53 2148.76C1204.38 2159.59 1204.66 2168.76 1204.89 2176.35C1205.05 2181.65 1205.19 2186.18 1202.77 2189.99C1195.95 2189.99 1192.94 2180.96 1189.92 2171.87C1187.45 2164.48 1184.98 2157.05 1180.43 2154.44L1178.26 2155.5C1174.16 2164.94 1176.66 2178.86 1178.63 2189.81C1178.93 2191.52 1179.23 2193.15 1179.48 2194.68C1169.93 2188.59 1164.59 2178.32 1159.84 2169.18C1155.88 2161.55 1152.32 2154.71 1147.06 2151.73L1145.06 2152.85C1141.08 2160.99 1144.59 2175.02 1147.1 2185.08C1147.53 2186.79 1147.93 2188.39 1148.26 2189.82C1147.4 2189.44 1146.52 2189.07 1145.64 2188.7C1142.22 2187.25 1138.66 2185.74 1135.68 2183.76C1124.99 2176.68 1124.72 2166.29 1124.45 2155.83C1124.32 2150.95 1124.19 2146.06 1123.01 2141.49C1122.22 2138.41 1120.72 2136.09 1117.83 2134.57L1115.58 2135.78C1108.02 2148.79 1112.83 2174.38 1115.67 2188.35C1115.32 2188.06 1114.96 2187.76 1114.61 2187.47C1111.06 2184.52 1107.42 2181.5 1104.26 2178.2C1091.97 2165.38 1093.61 2144.5 1094.99 2127.08C1095.22 2124.07 1095.45 2121.16 1095.6 2118.42C1085.62 2133.43 1083.81 2147.86 1082.38 2159.25C1081.46 2166.64 1080.69 2172.74 1077.97 2176.9L1075.7 2177.05C1070.58 2172.24 1067.52 2164.56 1064.84 2157.82C1064.38 2156.67 1063.94 2155.56 1063.5 2154.49C1064.16 2150.75 1065.39 2146.57 1066.66 2142.22C1069.51 2132.47 1072.61 2121.87 1070.25 2113.47L1068.43 2112.87C1066.28 2114.08 1064.77 2115.72 1063.37 2117.69C1048.99 2137.96 1050.42 2160.16 1055.16 2183.02C1051.38 2178.25 1047.66 2173.35 1044.53 2168.14C1031.85 2147.05 1039.78 2122.77 1047.05 2100.46C1048.62 2095.65 1050.16 2090.93 1051.46 2086.36C1031.83 2110.14 1023.51 2135.06 1021.6 2164.87C1002.64 2133.94 1011.02 2119.84 1018.64 2107.04C1023.03 2099.65 1027.17 2092.7 1025.66 2083.19C1018.71 2089.03 1011.56 2107.88 1006.66 2120.79C1005.49 2123.86 1004.45 2126.59 1003.58 2128.73C1000.93 2128.83 1000.85 2128.76 999.731 2127.77C999.455 2127.53 999.117 2127.23 998.661 2126.86C992.819 2113.06 999.913 2090.53 1005.06 2074.18C1005.93 2071.43 1006.73 2068.86 1007.42 2066.54C1005.27 2069 1003.19 2071.51 1001.18 2074.06C987.191 2091.92 973.372 2116.02 976.888 2138.86C976.305 2137.98 975.73 2137.07 975.149 2136.16C972.207 2131.52 969.123 2126.65 964.076 2124.18C963.871 2124.2 963.681 2124.21 963.503 2124.22C961.045 2124.4 960.923 2124.41 958.964 2126.34C956.044 2138.19 970.575 2159.78 979.967 2173.74C981.893 2176.6 983.604 2179.14 984.902 2181.21C968.511 2168.53 959.762 2152.73 950.784 2136.52C945.963 2127.81 941.075 2118.99 934.902 2110.46L935.262 2111.79C941.164 2133.73 946.647 2154.12 956.923 2174.77C947.898 2166.31 941.138 2155.98 934.368 2145.63C927.631 2135.33 920.886 2125.01 911.891 2116.53C914.728 2127.07 919.007 2137.25 923.297 2147.45C927.244 2156.84 931.202 2166.25 934.052 2175.99C923.894 2166.77 916.324 2154.71 908.75 2142.66C902.627 2132.91 896.501 2123.16 889.003 2114.89C894.805 2134.3 904.513 2150.01 916.284 2166.52C915.584 2166.04 914.899 2165.55 914.185 2165.09C905.194 2159.35 898.102 2151.12 890.991 2142.86C885.3 2136.25 879.595 2129.63 872.894 2124.26C876.076 2132.15 880.349 2139.65 884.594 2147.09C885.479 2148.64 886.362 2150.19 887.234 2151.74C876.314 2144.32 864.808 2136.9 853.075 2129.32C799.111 2094.5 740.335 2056.57 711.544 2001.87C691.443 1963.68 680.695 1918.34 670.88 1876.7C659.139 1826.88 649.395 1776.31 639.695 1725.97C637.873 1716.51 636.054 1707.07 634.222 1697.64L595.607 1501.25L574.657 1394.49C573.645 1389.54 572.613 1384.59 571.578 1379.63C564.736 1346.8 557.832 1313.68 556.694 1280.22C556.001 1259.81 563.793 1246.66 571.721 1233.29C577.672 1223.25 583.699 1213.08 586.272 1199.61C590.974 1174.99 592.417 1149.79 593.854 1124.7C594.435 1114.54 595.016 1104.4 595.811 1094.32C603.983 990.777 620.903 891.697 679.559 802.427C673.362 771.162 671.537 737.664 671.095 705.926C671.013 700.005 671.034 694.084 671.056 688.164C671.105 674.648 671.154 661.14 669.964 647.652C674.124 645.748 678.297 643.849 682.478 641.946C719.037 625.308 756.119 608.433 789.186 586.094C807.778 573.534 825.52 558.014 843.453 542.326C877.76 512.315 912.769 481.69 955.767 470.008C1001.6 457.556 1055.66 455.423 1103.09 455.37C1109.64 455.363 1116.29 455.753 1122.97 456.145C1137.99 457.027 1153.13 457.916 1167.49 454.285C1173.07 449.323 1175.37 445.444 1177.84 438.481C1177.64 438.045 1177.45 437.614 1177.26 437.186C1174.91 431.932 1172.86 427.341 1166.86 424.953C1138.08 413.49 953.911 429.535 921.677 443.754C901.378 452.708 884.954 469.104 868.883 485.147C861.33 492.686 853.856 500.148 846.094 506.722C841.186 510.944 836.189 515.067 831.103 519.091C826.018 523.115 820.848 527.036 815.593 530.855C810.339 534.674 805.004 538.387 799.59 541.995C794.176 545.602 788.686 549.1 783.121 552.49C777.557 555.879 771.921 559.157 766.215 562.323C760.509 565.489 754.738 568.54 748.9 571.478C743.063 574.415 737.165 577.235 731.206 579.938C725.248 582.641 719.233 585.225 713.163 587.69C711.236 588.491 709.074 589.458 706.757 590.493C696.272 595.181 682.637 601.276 673.465 599.797C673.139 599.744 672.813 599.688 672.486 599.632C669.623 599.143 666.731 598.648 664.132 600.305C649.531 609.615 642.629 642.485 640.807 657.977C638.485 677.717 639.942 697.298 641.409 717.022L641.444 717.498C646.358 783.572 644.167 814.726 609.543 873.829C607.295 880.339 604.066 886.614 600.875 892.817C600.045 894.43 599.218 896.039 598.41 897.645C593.065 910.673 588.043 923.759 583.01 936.876C581.914 939.732 580.817 942.59 579.717 945.449C578.596 951.904 576.783 958.041 574.899 964.319L574.459 968.158C568.873 1002.44 571.22 1036.79 573.569 1071.18C575.423 1098.31 577.278 1125.46 575.238 1152.62C575.079 1155.04 574.859 1157.45 574.579 1159.86C574.299 1162.27 573.958 1164.68 573.558 1167.07C573.156 1169.46 572.695 1171.85 572.175 1174.22C571.655 1176.59 571.075 1178.94 570.436 1181.29C569.797 1183.64 569.099 1185.97 568.343 1188.28C567.587 1190.59 566.774 1192.89 565.904 1195.16C565.032 1197.44 564.104 1199.69 563.119 1201.92C562.135 1204.15 561.096 1206.36 560.001 1208.55C557.674 1213.27 555.198 1217.85 552.742 1222.39C545.209 1236.32 537.865 1249.89 535.618 1266.16C528.077 1320.76 542.454 1399.62 553.638 1460.97C555.483 1471.08 557.24 1480.72 558.798 1489.7C563.167 1514.86 566.84 1540.17 570.511 1565.46C572.021 1575.88 573.532 1586.28 575.09 1596.68C577.898 1612.29 580.653 1627.91 583.406 1643.51C584.58 1650.17 585.754 1656.83 586.932 1663.48C587.568 1667.07 586.293 1662.68 586.932 1666.28C596.679 1721.07 608.75 1783.72 621.597 1838.04C623.188 1844.77 624.75 1851.53 626.315 1858.29C632.922 1886.85 639.567 1915.57 648.572 1943.4C672.691 2017.94 715.881 2097.58 783.503 2143.15C815.576 2164.76 850.698 2180.17 886.359 2195.44C888.769 2196.47 891.182 2197.52 893.601 2198.56C908.693 2205.1 924.01 2211.73 939.926 2215.92C964.107 2222.28 989.75 2225.31 1014.94 2228.29C1021.4 2229.06 1027.83 2229.82 1034.2 2230.63C1193.17 2250.89 1334.67 2245.62 1493.5 2231.03C1502.65 2230.19 1512.77 2229.59 1523.13 2228.98C1542.34 2227.84 1562.38 2226.66 1578.58 2223.79C1628.07 2215.01 1802.08 2117.19 1830.15 2079.58C1845.04 2059.62 1854.57 2010.23 1861.29 1975.41C1862.84 1967.36 1864.24 1960.08 1865.53 1954.13C1866.57 1949.32 1868.23 1941.41 1870.37 1931.21C1885.41 1859.62 1924.09 1675.55 1935.81 1664.14L1937.6 1664.49C1939.26 1669.28 1940.3 1670.64 1945.02 1672.91C1972.92 1686.38 2026.53 1691.5 2056.22 1680.95C2063.56 1678.35 2070.19 1675.6 2075.37 1669.9C2075.84 1669.39 2079.47 1665.34 2079.47 1665.34C2079.47 1665.34 2085.02 1659.8 2085.98 1658.91C2093.16 1653.12 2096.66 1649.57 2104.07 1641.23C2124.07 1609.2 2127.2 1584.84 2130.64 1557.1C2132.44 1542.54 2134.33 1527.28 2138.79 1509.96C2143.52 1491.57 2151.17 1474.18 2158.82 1456.79C2164.67 1443.47 2170.54 1430.14 2175.09 1416.36C2199.99 1341.02 2196.97 1235.84 2177.07 1159.71C2166.26 1118.33 2145.14 1081.58 2105.94 1059.42L2103.92 1058.29C2103.3 777.402 2041.43 442.539 1825.94 237.114C1698.12 115.261 1501.38 33.8103 1320.55 34.7602C1315.81 34.785 1311.17 34.8685 1306.47 35.3999C1289.16 37.1349 1271.98 39.7485 1254.8 42.3621C1238.77 44.8004 1222.74 47.2387 1206.61 48.9637C1191.98 50.528 1177.4 51.7187 1162.84 52.9069C1131.28 55.483 1099.86 58.0477 1068.51 64.384C1063.32 65.4461 1058.14 66.5609 1052.97 67.7284C1047.8 68.8959 1042.64 70.1159 1037.5 71.3883C1032.36 72.6606 1027.23 73.9851 1022.12 75.3618C1017.01 76.7384 1011.91 78.1669 1006.83 79.6473C1001.74 81.1276 996.679 82.6594 991.631 84.2428C986.584 85.8262 981.555 87.4607 976.542 89.1463C971.531 90.8319 966.539 92.5684 961.566 94.3556C956.593 96.1428 951.64 97.9803 946.707 99.8683C941.775 101.756 936.864 103.694 931.974 105.682C927.084 107.67 922.217 109.707 917.372 111.794C912.528 113.88 907.706 116.016 902.908 118.202C898.111 120.386 893.338 122.62 888.589 124.902C883.841 127.184 879.119 129.514 874.422 131.892C869.725 134.27 865.055 136.695 860.411 139.169C855.768 141.641 851.153 144.161 846.565 146.728C841.977 149.295 837.418 151.908 832.888 154.568C828.358 157.228 823.858 159.933 819.387 162.685C814.917 165.435 810.478 168.231 806.069 171.073C801.661 173.915 797.284 176.801 792.938 179.731C788.594 182.661 784.282 185.636 780.003 188.654C775.723 191.672 771.478 194.734 767.266 197.839C763.054 200.943 758.877 204.09 754.735 207.28C750.593 210.469 746.487 213.7 742.415 216.973C738.345 220.246 734.31 223.56 730.312 226.916C726.315 230.27 722.355 233.666 718.432 237.102C714.509 240.537 710.625 244.012 706.779 247.527C702.932 251.041 699.126 254.595 695.358 258.187C691.59 261.779 687.863 265.409 684.175 269.077C680.488 272.745 676.841 276.45 673.235 280.192C669.629 283.934 666.065 287.713 662.543 291.527C659.021 295.341 655.541 299.191 652.103 303.077C648.666 306.962 645.272 310.882 641.921 314.837C530.113 447.325 469.433 605.295 435.41 770.99C420.473 843.738 410.118 921.152 418.535 995.291C420.22 1010.14 423.635 1024.27 427.089 1038.55Z" fill="black"/>
<path d="M556.67 1664.36C555.527 1672.11 556.479 1685.16 555.082 1693.07C571.285 1696.56 581.962 1701.94 592.828 1696.48C591.976 1691.74 587.777 1671.02 586.932 1666.28C575.683 1668 571.737 1668.07 556.67 1664.36Z" fill="black"/>
<path d="M556.67 1664.36L528.043 1684.31C539.009 1688.68 547.757 1691.5 555.082 1693.07C556.479 1685.16 555.527 1672.11 556.67 1664.36Z" fill="black"/>
<path d="M575.09 1596.68C573.532 1586.28 572.021 1575.88 570.511 1565.46C517.695 1570.35 524.891 1503.36 489.971 1448.4C491.41 1490.19 501.539 1588.75 575.09 1596.68Z" fill="black"/>
<path d="M1301.44 460.869C1297.61 457.209 1294.16 453.774 1293.84 448.306C1293.53 442.993 1296.91 438.546 1300.81 435.161C1337.29 403.498 1490.82 386.337 1540.76 389.989C1548.03 390.59 1555.27 391.365 1562.49 392.312C1569.71 393.26 1576.9 394.38 1584.07 395.672C1591.24 396.964 1598.36 398.427 1605.45 400.06C1612.54 401.693 1619.59 403.495 1626.58 405.466C1670.63 418.301 1755.27 456.714 1784.28 490.211C1788.49 495.071 1792.77 501.436 1791.71 508.074C1790.96 512.748 1787.66 516.598 1783.66 519.167C1779.85 521.62 1775.59 523.066 1771.28 524.509C1745.61 504.013 1719.2 483.192 1690 467.497C1602.22 420.325 1492.19 412.545 1395.85 437.764C1367.72 445.128 1331.99 463.696 1303.09 461.036L1301.44 460.869Z" fill="black"/>
<path d="M1799.19 574.986C1797.8 567.505 1794.6 558.286 1799.92 551.632C1802.42 548.498 1806.4 544.997 1810.72 544.905C1816.7 544.777 1822.11 549.94 1825.56 554.069C1840.31 571.753 1859.62 629.098 1857.1 651.885C1856.61 656.245 1854.45 659.543 1852.02 663.155C1851.6 663.329 1851.18 663.518 1850.75 663.679C1846.24 665.367 1840.35 667.396 1835.81 664.757C1824.83 658.376 1804.79 590.111 1799.19 574.986Z" fill="black"/>
<path d="M683.371 964.945C688.414 964.061 733.41 958.338 734.257 956.979C734.616 956.404 734.709 955.709 734.935 955.075L734.989 955.123C733.24 954.559 734.202 954.722 731.855 954.838C727.655 955.046 725.277 955.705 721.789 953.192L722.885 951.834C727.864 950.79 732.448 950.304 737.543 950.204C747.744 946.887 767.782 948.093 778.175 950.654L777.211 950.968C768.17 953.988 758.735 954.076 749.365 955.724C764.571 957.79 785.58 955.785 800.354 951.939C822.061 959.688 846.825 953.525 867.443 962.631C887.856 971.647 895.317 965.618 914.284 969.92C948.405 977.659 981.584 990.528 1014.79 1001.24C1027.38 1005.3 1042.22 1007.57 1053.89 1013.46C1064.71 1018.92 1083.67 1034.74 1087.38 1045.98C1086.78 1049.5 1086.66 1049.55 1083.95 1052.01C1075.46 1053.02 1069.54 1041.56 1062.26 1038.13L1060.08 1039.04C1061.26 1042.3 1065.72 1046.56 1067.83 1049.71L1067.01 1051.37C1060.41 1051.83 1054.91 1046.25 1050.01 1042.69C1046.39 1040.06 1043.22 1037.59 1038.41 1038.23C1036.31 1042.8 1040.9 1047.55 1038.57 1052.26L1035.82 1052.74C1023.98 1049.48 1014.64 1038.61 1005.2 1031.2C1009.78 1040.32 1014.63 1047.06 1022.12 1054.19C1014.23 1053.38 1006.55 1051.5 998.842 1049.79C1002.77 1052.84 1006.5 1055.48 1009.08 1059.76L1008.4 1061.04C995.78 1059.22 980.361 1049.7 967.143 1045.88C971.551 1049.54 982.735 1055.26 985.045 1060.03C979.803 1061.36 974.42 1058.89 969.122 1058.74C964.554 1058.62 960.161 1060.93 955.378 1061C918.612 1061.52 879.647 1062.37 843.295 1057.32C802.117 1046.05 744.745 1038.63 702.119 1041.91C704.254 1042.59 706.398 1043.2 708.549 1043.82C722.281 1047.8 738.154 1044.77 752.385 1047.28L751.396 1047.2L751.778 1047.77C746.278 1048 735.5 1047.43 730.984 1050.22C734.718 1053.45 739.768 1054.76 744.41 1056.41C737.888 1056.49 669.622 1050.52 667.431 1049.7C666.788 1049.47 666.222 1049.07 665.618 1048.76L664.784 1050.3C683.861 1056.47 704.272 1055.85 723.318 1062.18L725.133 1062.79C705.688 1064.22 686.849 1060.69 667.465 1059.88C676.235 1062.32 684.717 1065.56 693.246 1068.67C686.857 1068.43 680.568 1067.17 674.183 1066.92C670.664 1066.78 659.716 1066.33 657.138 1068.58C662.546 1071.49 668.963 1070.62 674.194 1073.58L672.821 1075.37C667.848 1077.23 662.813 1078.17 657.435 1077.68C651.117 1077.11 634.97 1064.46 631.672 1059.5C629.105 1055.63 629.844 1052.67 630.842 1048.43C631.521 1045.55 627.513 1040.61 625.867 1037.9L626.456 1036.42C631.486 1037.19 633.974 1042.43 639.012 1042.83C639.251 1040.41 639.403 1039.34 640.937 1037.29C641.314 1036.79 641.747 1036.33 642.152 1035.84C639.025 1032.11 635.076 1028.61 634.494 1023.81C636.046 1022.7 637.399 1021.65 638.817 1020.37L635.777 1016.55L636.548 1014.67C642.383 1012.13 649.282 1012.08 655.603 1011.47C652.183 1008.24 647.164 1004.56 645.485 1000.21C649.614 998.63 656.485 1001 661.146 1001.52L662.482 1000.02C659.952 996.222 648.448 992.911 643.659 990.724C649.373 991.109 654.93 991.54 660.66 991.124L660.806 989.276L655.236 987.225L654.971 985.404C657.236 981.691 659.234 979.809 662.853 977.257C663.245 976.98 663.642 976.712 664.037 976.439L662.394 976.576C666.377 973.007 668.307 973.569 673.613 973.079L683.371 964.945Z" fill="black"/>
<path d="M1796.58 990.635C1787.36 981.892 1762.14 969.045 1757.47 959.379C1756.61 957.583 1757.89 956.25 1758.64 954.571C1798.81 954.324 1806.33 973.104 1838.3 988.751L1839.69 989.42C1826.21 976.117 1808.15 967.333 1795.76 953.386C1822.86 965.742 1845.78 985.514 1871.46 1000.46C1874.93 1009.06 1878.48 1017.68 1881.58 1026.41C1883.76 1032.57 1887.5 1042.82 1884.21 1048.86C1883.51 1050.15 1882.85 1050.95 1882.6 1052.37C1881.46 1058.77 1889.2 1069.37 1892.3 1074.88C1884.63 1069.89 1871.5 1054.68 1862.96 1053.69C1865.94 1061.1 1878.46 1069.4 1884.05 1076C1888.52 1081.29 1892.31 1087.12 1896.12 1092.86C1875.01 1080 1850.47 1057.34 1827.15 1050.29C1842.61 1064.43 1861.93 1074.96 1874.27 1092.05C1860.04 1085.36 1846.98 1074.59 1833.48 1066.49C1825.76 1061.86 1808.98 1051.29 1799.88 1053.33C1800.64 1055.49 1801.08 1057.11 1801.08 1059.4C1792.75 1063.17 1783.69 1053.9 1775.06 1053.79C1771.85 1053.75 1769.36 1054.02 1767.28 1056.33L1769.78 1061.3C1767.04 1064 1761.3 1063.22 1757.57 1062.99C1751.2 1062.6 1743.54 1061.29 1737.3 1062.37C1728.86 1063.83 1721.78 1067.31 1712.94 1067.96L1711.07 1068.09C1639.15 1076.79 1567.69 1085 1495.04 1081.07C1485.8 1080.57 1468.83 1081.19 1461.66 1075.4C1459.9 1073.98 1459.94 1072.62 1459.86 1070.46C1459.4 1059.23 1475.51 1017.92 1484.35 1010.32C1485.97 1008.94 1485.19 1009.31 1487.45 1009.33C1488.19 1010.45 1489.37 1012.65 1490.45 1013.61C1497.79 1020.16 1509.41 997.481 1518.16 996.377C1522.17 997.738 1522.57 999.219 1524.94 1002.51C1540.53 995.537 1555.94 988.975 1572.16 983.441C1563.72 991.166 1553.52 997.494 1544.04 1004C1560.74 1000.91 1577.09 995.975 1593.53 991.819C1619.47 985.264 1645.64 979.534 1672.27 976.225C1684.56 974.698 1720.38 979.167 1727.59 974.642C1728.82 971.499 1729.56 969.428 1732.4 967.244C1750.95 962.771 1780.95 982.608 1796.58 990.635Z" fill="black"/>
<path d="M1433.29 1081.91C1432.14 1079.62 1431.36 1077.55 1431.17 1075C1429.78 1056.02 1456.49 1011.31 1469.72 997.693L1470.73 999.062C1471.64 1011.28 1454.68 1061.05 1450.02 1076.38C1444.68 1078.7 1438.86 1080.2 1433.29 1081.91Z" fill="black"/>
<path d="M756.785 1115.73C779.227 1105.3 803.538 1104.24 827.966 1101.99C841.033 1101.25 854.109 1101.01 867.196 1101.26C880.283 1101.51 893.338 1102.26 906.363 1103.51C946.293 1107.57 1012.23 1121.44 1038.93 1153.1C1023.4 1145.47 1008.95 1137.1 992.678 1130.78C942.132 1111.05 842.253 1107.17 787.019 1111.28C776.804 1112.04 766.929 1114.47 756.785 1115.73Z" fill="black"/>
<path d="M1443.72 1151.58C1482.07 1119.24 1531.5 1108.96 1580.68 1104.4C1594.28 1103.72 1607.89 1103.43 1621.51 1103.53C1689.55 1104 1750.7 1115.19 1800.32 1163.59C1780.83 1157.19 1762.46 1148.06 1743.19 1141.11C1719.55 1132.6 1695.73 1129.16 1670.86 1126.2C1579.16 1119.27 1531.57 1127.02 1443.72 1151.58Z" fill="black"/>
<path d="M862.063 1143.99C841.195 1152.15 784.287 1174.06 763.705 1175.11C753.647 1175.63 739.436 1174.09 731.741 1167.29C730.695 1164.16 730.577 1164.32 732.014 1161.36C741.655 1157.01 760.123 1157.2 771.609 1154.69C791.171 1150.42 809.419 1142.77 828.745 1138.15C848.565 1133.41 868.454 1131.49 888.196 1125.81C893.355 1124.95 898.671 1124.95 903.868 1125.44C943.056 1129.2 1011.24 1153.77 1035.69 1185.06C1037.76 1187.72 1038.62 1189.13 1038.24 1192.42C1028.11 1197.93 1017.63 1167.94 964.808 1154.12C967.648 1166.11 969.033 1178.32 965.697 1190.4C961.917 1204.07 952.837 1216.37 939.87 1223.33C923.833 1231.93 906.639 1230.29 889.706 1225.89C888.474 1225.44 887.239 1225.01 886.029 1224.52C872.641 1219.06 861.739 1210.37 856.363 1197.11C848.842 1178.57 854.173 1161.25 862.063 1143.99Z" fill="black"/>
<path d="M1448.76 1194.77C1483.14 1152.51 1540.13 1140.27 1592.65 1133.2C1616.98 1131.88 1640.57 1132.76 1664.63 1136.77C1704.5 1143.41 1754.92 1165.52 1778.82 1198.16C1766.14 1192.46 1754.2 1184.92 1741.76 1178.68C1716.82 1166.16 1691.58 1159.08 1664.09 1154.07C1668.15 1165.89 1672.21 1177.4 1670.34 1190.06C1667.59 1208.62 1654.78 1222.38 1639.63 1232.97C1627.94 1238.57 1615.17 1240.73 1602.2 1238.83C1587.23 1236.63 1574.58 1228.71 1565.93 1216.82C1551.9 1197.55 1553.85 1178.01 1557.69 1156.23C1518.74 1162.27 1484.85 1180.71 1448.76 1194.77Z" fill="black"/>
<path d="M2120.05 1349.31C2119.2 1349.39 2118 1349.02 2117.15 1348.86C2114.06 1338.25 2114.22 1325.29 2112.73 1314.26C2109.55 1290.53 2105.4 1266.68 2098.59 1243.65C2096.76 1237.46 2094.9 1231.01 2092.14 1225.14C2086.28 1212.7 2074.95 1198.95 2074.52 1184.89C2074.26 1176.3 2077.68 1171.9 2083.78 1166.06C2086.93 1166.16 2090.24 1166.27 2093.33 1166.99C2101.51 1168.89 2108.7 1176.82 2112.73 1183.51C2137.53 1224.62 2132.16 1305.07 2120.05 1349.31Z" fill="black"/>
<path d="M444.313 1354.58C445.378 1354.69 446.891 1354.28 447.961 1354.11C452.028 1341.89 452.058 1326.88 454.124 1314.13C458.538 1286.71 464.17 1259.18 473.127 1232.64C475.534 1225.51 477.983 1218.07 481.552 1211.33C489.128 1197.04 503.592 1181.33 504.382 1165.06C504.861 1155.12 500.647 1149.96 493.096 1143.08C489.141 1143.13 484.984 1143.19 481.094 1143.97C470.794 1146.01 461.629 1155.06 456.452 1162.72C424.596 1209.85 429.903 1303.12 444.313 1354.58Z" fill="black"/>
<path d="M1102.86 1528.74C1120.83 1528.01 1138.76 1527.3 1156.75 1527.36L1157.14 1533.63C1151.22 1543.31 1149.87 1551.65 1146.55 1562.08L1145.08 1562.06C1140.49 1556.41 1142.3 1543.75 1142.5 1536.91C1132.7 1536.2 1111.77 1532.83 1103.66 1539C1100.58 1541.34 1099.55 1547.5 1098.36 1550.93C1097.08 1554.61 1096.66 1556.78 1093.5 1559.2C1091.03 1558.68 1089.13 1557.45 1087.64 1555.43C1086.23 1553.5 1086.13 1551.51 1086.38 1549.26C1087.26 1541.24 1096.87 1533.58 1102.86 1528.74Z" fill="url(#paint0_linear_396_2)"/>
<path d="M1156.75 1527.36C1177.26 1535.37 1184.37 1557.35 1202.24 1568.59C1211.94 1574.68 1233.87 1578.54 1239.98 1584.23L1239.75 1586.42C1233.23 1590.26 1221.11 1587.92 1213.84 1586.18C1186.58 1579.66 1174.9 1552.11 1157.14 1533.63L1156.75 1527.36Z" fill="black"/>
<path d="M1366.78 1577.33C1356.23 1576.23 1345.36 1576.99 1334.76 1576.33C1328.95 1575.97 1321.82 1575.49 1317.82 1571.1L1318.53 1568.4C1328.21 1558.84 1343.78 1557.41 1356.8 1555.06C1367.09 1554.26 1377.28 1553.55 1387.43 1555.93C1394.58 1557.62 1400.9 1560.41 1404.87 1566.56C1405.22 1569.82 1405.62 1570.74 1403.14 1573.36C1396.27 1580.66 1375.92 1578.07 1366.78 1577.33Z" fill="black"/>
<path d="M1541.31 1776.68C1467.26 1781.67 1393.19 1791 1318.99 1793C1274.63 1794.2 1230.48 1792.65 1186.16 1791.3C1154.56 1790.33 1122.78 1789.97 1091.23 1788C1076.15 1787.06 1061.37 1783.88 1046.36 1782.97C1040.68 1782.63 1034.03 1781.97 1029.83 1786.04C1014.07 1801.28 1045.47 1819.72 1045.19 1835.11C1043.41 1838.08 1042.36 1839.33 1038.9 1840.51C1022.04 1846.26 986.573 1833.54 971.437 1825.93C946.386 1813.33 914.31 1788.75 906.197 1761.58C903.567 1752.78 909.574 1753.15 912.589 1746.45C913.857 1743.64 913.33 1740.49 912.046 1737.81C911.076 1735.79 910.988 1735.59 910.767 1733.14C913.82 1729.47 918.129 1727.76 922.386 1725.65C926.49 1728.12 933.387 1729.95 936.398 1733.52C933.806 1736.07 929.347 1736.49 925.843 1737.33C923.485 1737.9 923.543 1737.91 921.602 1739.68C924.958 1745.04 935.431 1739.78 941.542 1741.82C951.518 1745.14 971.855 1747.31 978.237 1751.1C1000.05 1748.15 1003.44 1756.17 1023.12 1756.95C1067.64 1758.7 1112.93 1754.97 1157.35 1758.39C1168.37 1759.24 1179.16 1761.89 1190.16 1762.79C1199.74 1763.57 1209.49 1763.14 1219.01 1764.46C1228.04 1765.71 1236.25 1770.71 1245.44 1771.16C1266.24 1772.18 1289.27 1771.03 1309.86 1768.18C1326.78 1765.84 1343.35 1762.06 1360.51 1761.44C1423.86 1759.16 1487.14 1763.96 1550.6 1760.47C1552.4 1757.97 1554.22 1755.34 1556.29 1753.02C1562.48 1746.07 1571.61 1741.26 1581.18 1740.52C1586.85 1740.08 1593.05 1740.8 1597.43 1744.59C1601.89 1748.46 1603.95 1755.13 1604.14 1760.75C1604.27 1764.81 1603.08 1768.66 1600 1771.55C1588.38 1782.52 1556.43 1776.25 1541.31 1776.68Z" fill="black"/>
<path d="M919.655 2040.69C917.355 2038.88 916.208 2037.56 914.836 2035.03C914.533 2024.03 923.607 2014.2 930.109 2005.75C931.786 2006.46 932.192 2007.04 933.34 2008.36C933.992 2013.21 932.964 2018.19 931.54 2022.86C929.322 2030.13 926.921 2037 919.655 2040.69Z" fill="black"/>
<path d="M954.637 2075.46C952.487 2073.53 950.764 2072.12 950.634 2069.11C950.217 2059.48 964.561 2043.49 970.572 2035.95C971.23 2036.36 972.156 2036.87 972.633 2037.47C975.033 2040.45 973.623 2044.52 972.577 2047.76C969.685 2056.71 963.324 2071.04 954.637 2075.46Z" fill="black"/>
<path d="M970.22 2093.86C967.876 2091.86 967.613 2091.29 966.562 2088.43C968.036 2075.24 978.937 2062.3 986.486 2051.65C988.182 2052.47 988.315 2053.07 989.336 2054.55C989.82 2059.48 988.353 2064.62 986.901 2069.34C983.84 2079.28 980.081 2088.75 970.22 2093.86Z" fill="black"/>
<path d="M1224.77 1883L1226.49 1884.86C1231.18 1906.02 1224.02 1918.96 1216.59 1937.78C1214.9 1942.05 1214.28 1947.13 1212.8 1951.6C1209.86 1950.94 1209.36 1950.78 1206.94 1948.74C1212.61 1926.78 1219.04 1904.98 1224.77 1883Z" fill="black"/>
<path d="M1264.96 1884.35C1265.4 1884.78 1265.88 1885.16 1266.28 1885.63C1274.83 1895.85 1276.67 1912.35 1276.66 1925.16L1282.2 1928.02L1282.3 1930.47L1277.26 1935.04C1276.5 1938.12 1275.34 1939.65 1276.7 1942.62L1281.44 1940.17L1279.57 1944.54L1277.53 1945.72L1274.59 1944.58C1271.05 1938.49 1268.47 1929.04 1268.34 1921.97C1268.28 1918.61 1268.57 1919.23 1270.72 1917.07C1269.7 1913.98 1270.25 1915.13 1268.89 1912.65C1263.36 1902.58 1263.45 1895.44 1264.96 1884.35Z" fill="black"/>
<path d="M1248.4 1882.56C1248.54 1882.67 1248.7 1882.76 1248.82 1882.89C1253.14 1887.46 1253.47 1898.81 1253.5 1905.07C1253.55 1916.43 1250.72 1942.15 1243 1950.02L1239.99 1947.31C1240.27 1928.5 1242.1 1900.12 1248.4 1882.56Z" fill="black"/>
<path d="M1274.29 1672.06C1275.12 1672.25 1275.95 1672.42 1276.77 1672.64C1289.85 1676.13 1315.08 1711.83 1322.25 1723.64C1298.97 1714.56 1288.24 1690.79 1274.29 1672.06Z" fill="black"/>
<path d="M1198.53 1660.79C1198.91 1661.55 1199.31 1662.3 1199.66 1663.08C1205.25 1675.41 1193.65 1717.55 1189.08 1730.59C1181.33 1706.83 1192.9 1683.46 1198.53 1660.79Z" fill="black"/>
<path d="M1163.41 1683.7C1163.53 1683.16 1163.67 1682.62 1163.77 1682.08C1165.27 1674.34 1164.59 1654.47 1171.25 1649.37C1174.06 1650.64 1173.42 1649.72 1174.5 1652.36C1179.59 1664.87 1173.19 1697.56 1168.16 1709.77C1164.75 1711.11 1164.8 1711.26 1161.36 1710.07C1161.27 1706.94 1161 1708.56 1162.11 1705.76C1164.25 1700.39 1163.26 1692.07 1163.27 1686.27L1163.41 1683.7Z" fill="black"/>
<path d="M1219.92 1694.45C1220.04 1693.91 1220.18 1693.37 1220.29 1692.83C1221.78 1685.09 1221.11 1665.22 1227.77 1660.12C1230.58 1661.38 1229.94 1660.47 1231.01 1663.11C1236.1 1675.62 1229.7 1708.31 1224.68 1720.52C1221.27 1721.85 1221.32 1722.01 1217.88 1720.82C1217.78 1717.68 1217.52 1719.31 1218.63 1716.51C1220.76 1711.14 1219.78 1702.82 1219.78 1697.02L1219.92 1694.45Z" fill="black"/>
<path d="M1304.9 1646.45C1311.35 1651.15 1320.26 1667.27 1326.06 1674.17C1333.87 1683.46 1365.72 1714.63 1369.25 1721.48C1347.63 1716.29 1329.84 1692.42 1317.41 1675.21C1312.03 1667.76 1303.41 1655.85 1304.9 1646.45Z" fill="black"/>
<path d="M1365.1 1667.14C1365.93 1667.33 1366.76 1667.5 1367.58 1667.72C1380.66 1671.22 1405.88 1706.92 1413.05 1718.72C1389.77 1709.64 1379.05 1685.88 1365.1 1667.14Z" fill="black"/>
<path d="M1395.7 1641.53C1402.16 1646.24 1411.06 1662.35 1416.87 1669.25C1424.68 1678.54 1456.53 1709.71 1460.06 1716.56C1438.44 1711.37 1420.65 1687.5 1408.22 1670.29C1402.84 1662.84 1394.22 1650.93 1395.7 1641.53Z" fill="black"/>
<path d="M1250.74 1646.5C1255.48 1652.93 1259.12 1670.98 1262.58 1679.31C1267.23 1690.52 1288.21 1729.83 1289.52 1737.42C1270.46 1725.97 1260.69 1697.85 1254.02 1677.7C1251.13 1668.97 1246.5 1655.01 1250.74 1646.5Z" fill="black"/>
<path d="M1074.13 1654.19C1074.25 1655.04 1074.4 1655.87 1074.5 1656.72C1076.05 1670.16 1052.1 1706.73 1043.75 1717.74C1043.65 1692.75 1061.82 1674.05 1074.13 1654.19Z" fill="black"/>
<path d="M1084.18 1692.79C1084.46 1692.31 1084.76 1691.84 1085.02 1691.36C1088.82 1684.45 1094.26 1665.32 1102.16 1662.51C1104.45 1664.57 1104.12 1663.51 1104.34 1666.35C1105.35 1679.82 1089.24 1708.97 1080.72 1719.06C1077.06 1719.28 1077.06 1719.45 1074.15 1717.26C1075.02 1714.25 1074.27 1715.71 1076.19 1713.39C1079.87 1708.93 1081.48 1700.71 1083.26 1695.19L1084.18 1692.79Z" fill="black"/>
<path d="M1108.3 1729.75C1109.5 1721.86 1119.68 1706.51 1123.12 1698.18C1127.74 1686.96 1140.68 1644.31 1145.13 1638.02C1150.51 1659.59 1137.55 1686.39 1128.03 1705.37C1123.91 1713.58 1117.32 1726.73 1108.3 1729.75Z" fill="black"/>
<defs>
<linearGradient id="paint0_linear_396_2" x1="1125.35" y1="1540.21" x2="1147.05" y2="1527.23" gradientUnits="userSpaceOnUse">
<stop stop-opacity="0.968627"/>
<stop offset="1"/>
</linearGradient>
</defs>
</svg>
